{
.appVersion = "3260";
.formatVersion = 3;
axes = (
{
name = Weight;
tag = wght;
},
{
name = Width;
tag = wdth;
}
);
classes = (
{
automatic = 1;

glyphs = (
{
category = Separator;
glyphname = .notdef;
layers = (
{
layerId = "9FF96064-8718-4A86-A5C8-73C592101F67";
shapes = (
{
closed = 1;
nodes = (
(505,0,l),
(505,714,l),
(94,714,l),
(94,0,l)
);
},
{
closed = 1;
nodes = (
(145,663,l),
(454,663,l),
(454,51,l),
(145,51,l)
);
}
);
width = 600;
}
);
script = "";
subCategory = Other;
},
{
category = Punctuation;
glyphname = exclam;
layers = (
{
layerId = "9FF96064-8718-4A86-A5C8-73C592101F67";
shapes = (
{
closed = 1;
nodes = (
(188,714,l),
(81,714,l),
(106,201,l),
(163,201,l)
);
},
{
closed = 1;
nodes = (
(72,6,o),
(99,-14,o),
(134,-14,cs),
(167,-14,o),
(196,6,o),
(196,54,cs),
(196,103,o),
(167,121,o),
(134,121,cs),
(99,121,o),
(72,103,o),
(72,54,cs)
);
}
);
width = 269;
}
);
script = "";
subCategory = Other;
unicode = 33;
},
{
category = Punctuation;
glyphname = quotedbl;
kernLeft = quote.right;
kernRight = quote.left;
layers = (
{
layerId = "9FF96064-8718-4A86-A5C8-73C592101F67";
shapes = (
{
closed = 1;
nodes = (
(65,714,l),
(85,456,l),
(140,456,l),
(160,714,l)
);
},
{
closed = 1;
nodes = (
(248,714,l),
(268,456,l),
(323,456,l),
(343,714,l)
);
}
);
width = 408;
}
);
script = "";
subCategory = Other;
unicode = 34;
},
{
category = Punctuation;
glyphname = numbersign;
layers = (
{
layerId = "9FF96064-8718-4A86-A5C8-73C592101F67";
shapes = (
{
closed = 1;
nodes = (
(620,436,l),
(620,502,l),
(493,502,l),
(533,714,l),
(464,714,l),
(424,502,l),
(280,502,l),
(320,714,l),
(248,714,l),
(208,502,l),
(62,502,l),
(62,436,l),
(196,436,l),
(164,276,l),
(25,276,l),
(25,209,l),
(151,209,l),
(113,0,l),
(183,0,l),
(222,209,l),
(365,209,l),
(324,0,l),
(395,0,l),
(436,209,l),
(586,209,l),
(586,276,l),
(449,276,l),
(480,436,l)
);
},
{
closed = 1;
nodes = (
(266,436,l),
(409,436,l),
(378,276,l),
(235,276,l)
);
}
);
width = 646;
}
);
script = "";
subCategory = Other;
unicode = 35;
},
{
category = Symbol;
glyphname = dollar;
layers = (
{
layerId = "9FF96064-8718-4A86-A5C8-73C592101F67";
shapes = (
{
closed = 1;
nodes = (
(253,-58,l),
(317,-58,l),
(317,53,l),
(444,66,o),
(516,127,o),
(516,220,cs),
(516,320,o),
(449,357,o),
(317,395,c),
(317,596,l),
(370,592,o),
(423,578,o),
(466,561,c),
(493,635,l),
(445,655,o),
(388,670,o),
(317,672,c),
(317,759,l),
(253,759,l),
(253,671,l),
(136,664,o),
(62,606,o),
(62,508,cs),
(62,413,o),
(121,364,o),
(253,328,c),
(253,126,l),
(185,127,o),
(107,146,o),
(62,167,c),
(62,82,l),
(105,62,o),
(179,50,o),
(253,49,c)
);
},
{
closed = 1;
nodes = (
(317,307,l),
(404,285,o),
(430,264,o),
(430,214,cs),
(430,169,o),
(395,139,o),
(317,131,c)
);
},
{
closed = 1;
nodes = (
(253,417,l),
(173,437,o),
(148,462,o),
(148,515,cs),
(148,559,o),
(181,589,o),
(253,594,c)
);
}
);
width = 572;
}
);
script = "";
subCategory = Currency;
unicode = 36;
},
{
category = Symbol;
glyphname = percent;
layers = (
{
layerId = "9FF96064-8718-4A86-A5C8-73C592101F67";
shapes = (
{
closed = 1;
nodes = (
(94,724,o),
(49,642,o),
(49,501,cs),
(49,360,o),
(100,276,o),
(195,276,cs),
(298,276,o),
(345,360,o),
(345,501,cs),
(345,642,o),
(293,724,o),
(195,724,cs)
);
},
{
closed = 1;
nodes = (
(247,662,o),
(272,608,o),
(272,501,cs),
(272,393,o),
(247,339,o),
(195,339,cs),
(144,339,o),
(122,394,o),
(122,501,cs),
(122,608,o),
(144,662,o),
(195,662,cs)
);
},
{
closed = 1;
nodes = (
(575,714,l),
(179,0,l),
(256,0,l),
(652,714,l)
);
},
{
closed = 1;
nodes = (
(531,438,o),
(486,356,o),
(486,215,cs),
(486,74,o),
(537,-10,o),
(632,-10,cs),
(735,-10,o),
(782,74,o),
(782,215,cs),
(782,356,o),
(729,438,o),
(632,438,cs)
);
},
{
closed = 1;
nodes = (
(684,375,o),
(709,322,o),
(709,215,cs),
(709,106,o),
(684,53,o),
(632,53,cs),
(581,53,o),
(559,107,o),
(559,215,cs),
(559,322,o),
(581,375,o),
(632,375,cs)
);
}
);
width = 831;
}
);
script = "";
subCategory = Math;
unicode = 37;
},
{
category = Symbol;
glyphname = ampersand;
layers = (
{
layerId = "9FF96064-8718-4A86-A5C8-73C592101F67";
shapes = (
{
closed = 1;
nodes = (
(190,725,o),
(120,667,o),
(120,569,cs),
(120,496,o),
(164,444,o),
(207,396,c),
(112,342,o),
(53,288,o),
(53,186,cs),
(53,60,o),
(140,-10,o),
(278,-10,cs),
(389,-10,o),
(461,28,o),
(524,84,c),
(611,0,l),
(730,0,l),
(584,142,l),
(634,197,o),
(665,271,o),
(686,357,c),
(597,357,l),
(582,294,o),
(562,239,o),
(527,198,c),
(334,384,l),
(416,432,o),
(477,487,o),
(477,571,cs),
(477,668,o),
(411,725,o),
(304,725,cs)
);
},
{
closed = 1;
nodes = (
(468,139,l),
(426,100,o),
(366,68,o),
(281,68,cs),
(198,68,o),
(145,116,o),
(145,189,cs),
(145,261,o),
(188,298,o),
(260,341,c)
);
},
{
closed = 1;
nodes = (
(355,653,o),
(390,619,o),
(390,571,cs),
(390,517,o),
(359,481,o),
(280,436,c),
(232,485,o),
(206,522,o),
(206,570,cs),
(206,622,o),
(245,653,o),
(301,653,cs)
);
}
);
width = 732;
}
);
script = "";
subCategory = Other;
unicode = 38;
},
{
category = Punctuation;
glyphname = quotesingle;
kernLeft = quote.right;
kernRight = quote.left;
layers = (
{
layerId = "9FF96064-8718-4A86-A5C8-73C592101F67";
shapes = (
{
closed = 1;
nodes = (
(65,714,l),
(85,456,l),
(140,456,l),
(160,714,l)
);
}
);
width = 225;
}
);
script = "";
subCategory = Other;
unicode = 39;
},
{
category = Punctuation;
glyphname = parenleft;
kernRight = paren.left;
layers = (
{
layerId = "9FF96064-8718-4A86-A5C8-73C592101F67";
shapes = (
{
closed = 1;
nodes = (
(40,113,o),
(86,-41,o),
(187,-158,c),
(269,-158,l),
(177,-33,o),
(129,120,o),
(129,275,cs),
(129,433,o),
(177,589,o),
(270,714,c),
(187,714,l),
(86,593,o),
(40,437,o),
(40,274,cs)
);
}
);
width = 300;
}
);
script = "";
subCategory = Parenthesis;
unicode = 40;
},
{
category = Punctuation;
glyphname = parenright;
kernLeft = Paren.right;
layers = (
{
layerId = "9FF96064-8718-4A86-A5C8-73C592101F67";
shapes = (
{
closed = 1;
nodes = (
(260,437,o),
(214,593,o),
(113,714,c),
(30,714,l),
(123,589,o),
(171,433,o),
(171,275,cs),
(171,120,o),
(123,-33,o),
(31,-158,c),
(113,-158,l),
(214,-41,o),
(260,113,o),
(260,274,cs)
);
}
);
width = 300;
}
);
script = "";
subCategory = Parenthesis;
unicode = 41;
},
{
category = Punctuation;
glyphname = asterisk;
layers = (
{
layerId = "9FF96064-8718-4A86-A5C8-73C592101F67";
shapes = (
{
closed = 1;
nodes = (
(224,760,l),
(245,568,l),
(55,622,l),
(41,530,l),
(223,515,l),
(106,357,l),
(195,310,l),
(272,485,l),
(357,310,l),
(443,357,l),
(324,515,l),
(508,530,l),
(494,622,l),
(302,568,l),
(322,760,l)
);
}
);
width = 551;
}
);
script = "";
subCategory = Other;
unicode = 42;
},
{
category = Symbol;
glyphname = plus;
layers = (
{
layerId = "9FF96064-8718-4A86-A5C8-73C592101F67";
shapes = (
{
closed = 1;
nodes = (
(321,595,l),
(249,595,l),
(249,388,l),
(50,388,l),
(50,317,l),
(249,317,l),
(249,111,l),
(321,111,l),
(321,317,l),
(520,317,l),
(520,388,l),
(321,388,l)
);
}
);
width = 572;
}
);
script = "";
subCategory = Math;
unicode = 43;
},
{
category = Punctuation;
glyphname = comma;
kernLeft = period.right;
kernRight = period.left;
layers = (
{
layerId = "9FF96064-8718-4A86-A5C8-73C592101F67";
shapes = (
{
closed = 1;
nodes = (
(185,116,l),
(91,116,l),
(81,46,o),
(60,-53,o),
(41,-129,c),
(106,-129,l),
(138,-57,o),
(174,34,o),
(192,105,c)
);
}
);
width = 268;
}
);
script = "";
subCategory = Other;
unicode = 44;
},
{
category = Punctuation;
glyphname = hyphen;
kernLeft = hyphen.right;
kernRight = hyphen.left;
layers = (
{
layerId = "9FF96064-8718-4A86-A5C8-73C592101F67";
shapes = (
{
closed = 1;
nodes = (
(282,229,l),
(282,307,l),
(40,307,l),
(40,229,l)
);
}
);
width = 322;
}
);
script = "";
subCategory = Dash;
unicode = 45;
},
{
category = Punctuation;
glyphname = period;
kernLeft = period.right;
kernRight = period.left;
layers = (
{
layerId = "9FF96064-8718-4A86-A5C8-73C592101F67";
shapes = (
{
closed = 1;
nodes = (
(72,6,o),
(99,-14,o),
(133,-14,cs),
(167,-14,o),
(196,6,o),
(196,54,cs),
(196,103,o),
(167,121,o),
(133,121,cs),
(99,121,o),
(72,103,o),
(72,54,cs)
);
}
);
width = 268;
}
);
script = "";
subCategory = Other;
unicode = 46;
},
{
category = Punctuation;
glyphname = slash;
layers = (
{
layerId = "9FF96064-8718-4A86-A5C8-73C592101F67";
shapes = (
{
closed = 1;
nodes = (
(276,714,l),
(10,0,l),
(96,0,l),
(362,714,l)
);
}
);
width = 372;
}
);
script = "";
subCategory = Other;
unicode = 47;
},
{
category = Number;
glyphname = zero;
layers = (
{
layerId = "9FF96064-8718-4A86-A5C8-73C592101F67";
shapes = (
{
closed = 1;
nodes = (
(523,590,o),
(445,725,o),
(285,725,cs),
(114,725,o),
(49,589,o),
(49,358,cs),
(49,127,o),
(124,-10,o),
(285,-10,cs),
(456,-10,o),
(523,127,o),
(523,358,cs)
);
},
{
closed = 1;
nodes = (
(137,553,o),
(177,650,o),
(285,650,cs),
(392,650,o),
(434,553,o),
(434,358,cs),
(434,161,o),
(392,65,o),
(285,65,cs),
(177,65,o),
(137,162,o),
(137,358,cs)
);
}
);
width = 572;
}
);
script = "";
subCategory = "Decimal Digit";
unicode = 48;
},
{
category = Number;
glyphname = one;
layers = (
{
layerId = "9FF96064-8718-4A86-A5C8-73C592101F67";
shapes = (
{
closed = 1;
nodes = (
(355,714,l),
(282,714,l),
(89,564,l),
(135,505,l),
(211,567,ls),
(237,589,o),
(252,600,o),
(273,622,c),
(270,584,o),
(269,556,o),
(269,499,cs),
(269,0,l),
(355,0,l)
);
}
);
width = 572;
}
);
script = "";
subCategory = "Decimal Digit";
unicode = 49;
},
{
category = Number;
glyphname = two;
layers = (
{
layerId = "9FF96064-8718-4A86-A5C8-73C592101F67";
shapes = (
{
closed = 1;
nodes = (
(520,80,l),
(159,80,l),
(159,84,l),
(308,231,ls),
(418,338,o),
(491,422,o),
(491,534,cs),
(491,652,o),
(408,724,o),
(275,724,cs),
(184,724,o),
(112,687,o),
(56,640,c),
(103,581,l),
(158,624,o),
(205,649,o),
(275,649,cs),
(350,649,o),
(401,607,o),
(401,529,cs),
(401,432,o),
(342,370,o),
(235,262,cs),
(48,73,l),
(48,0,l),
(520,0,l)
);
}
);
width = 572;
}
);
script = "";
subCategory = "Decimal Digit";
unicode = 50;
},
{
category = Number;
glyphname = three;
layers = (
{
layerId = "9FF96064-8718-4A86-A5C8-73C592101F67";
shapes = (
{
closed = 1;
nodes = (
(493,649,o),
(421,724,o),
(272,724,cs),
(176,724,o),
(100,690,o),
(49,650,c),
(93,590,l),
(146,625,o),
(196,650,o),
(273,650,cs),
(353,650,o),
(403,610,o),
(403,541,cs),
(403,460,o),
(341,406,o),
(224,406,cs),
(154,406,l),
(154,331,l),
(223,331,ls),
(349,331,o),
(423,294,o),
(423,205,cs),
(423,117,o),
(370,64,o),
(242,64,cs),
(178,64,o),
(105,81,o),
(45,111,c),
(45,29,l),
(104,0,o),
(166,-10,o),
(241,-10,cs),
(430,-10,o),
(515,78,o),
(515,203,cs),
(515,297,o),
(459,358,o),
(345,372,c),
(345,376,l),
(435,394,o),
(493,451,o),
(493,547,cs)
);
}
);
width = 572;
}
);
script = "";
subCategory = "Decimal Digit";
unicode = 51;
},
{
category = Number;
glyphname = four;
layers = (
{
layerId = "9FF96064-8718-4A86-A5C8-73C592101F67";
shapes = (
{
closed = 1;
nodes = (
(552,241,l),
(448,241,l),
(448,718,l),
(357,718,l),
(21,237,l),
(21,162,l),
(363,162,l),
(363,0,l),
(448,0,l),
(448,162,l),
(552,162,l)
);
},
{
closed = 1;
nodes = (
(363,241,l),
(107,241,l),
(321,546,ls),
(335,566,o),
(353,599,o),
(364,624,c),
(368,624,l),
(366,580,o),
(363,535,o),
(363,466,cs)
);
}
);
width = 572;
}
);
script = "";
subCategory = "Decimal Digit";
unicode = 52;
},
{
category = Number;
glyphname = five;
layers = (
{
layerId = "9FF96064-8718-4A86-A5C8-73C592101F67";
shapes = (
{
closed = 1;
nodes = (
(228,438,o),
(188,431,o),
(165,427,c),
(182,634,l),
(465,634,l),
(465,714,l),
(107,714,l),
(80,377,l),
(124,349,l),
(153,356,o),
(208,364,o),
(246,364,cs),
(370,364,o),
(425,312,o),
(425,219,cs),
(425,114,o),
(354,65,o),
(249,65,cs),
(186,65,o),
(111,83,o),
(63,112,c),
(63,29,l),
(107,3,o),
(174,-10,o),
(248,-10,cs),
(416,-10,o),
(515,80,o),
(515,228,cs),
(515,361,o),
(421,438,o),
(275,438,cs)
);
}
);
width = 572;
}
);
script = "";
subCategory = "Decimal Digit";
unicode = 53;
},
{
category = Number;
glyphname = six;
layers = (
{
layerId = "9FF96064-8718-4A86-A5C8-73C592101F67";
shapes = (
{
closed = 1;
nodes = (
(55,91,o),
(162,-10,o),
(298,-10,cs),
(437,-10,o),
(525,81,o),
(525,230,cs),
(525,368,o),
(442,447,o),
(318,447,cs),
(232,447,o),
(179,410,o),
(149,363,c),
(143,363,l),
(150,519,o),
(199,652,o),
(384,652,cs),
(414,652,o),
(446,648,o),
(470,640,c),
(470,715,l),
(448,721,o),
(410,724,o),
(382,724,cs),
(113,724,o),
(55,510,o),
(55,305,cs)
);
},
{
closed = 1;
nodes = (
(196,64,o),
(144,160,o),
(144,247,cs),
(144,310,o),
(206,378,o),
(300,378,cs),
(392,378,o),
(438,321,o),
(438,230,cs),
(438,117,o),
(381,64,o),
(297,64,cs)
);
}
);
width = 572;
}
);
script = "";
subCategory = "Decimal Digit";
unicode = 54;
},
{
category = Number;
glyphname = seven;
layers = (
{
layerId = "9FF96064-8718-4A86-A5C8-73C592101F67";
shapes = (
{
closed = 1;
nodes = (
(233,0,l),
(523,646,l),
(523,714,l),
(44,714,l),
(44,634,l),
(429,634,l),
(136,0,l)
);
}
);
width = 572;
}
);
script = "";
subCategory = "Decimal Digit";
unicode = 55;
},
{
category = Number;
glyphname = eight;
layers = (
{
layerId = "9FF96064-8718-4A86-A5C8-73C592101F67";
shapes = (
{
closed = 1;
nodes = (
(163,724,o),
(72,663,o),
(72,554,cs),
(72,466,o),
(127,413,o),
(197,373,c),
(118,337,o),
(49,279,o),
(49,182,cs),
(49,61,o),
(134,-10,o),
(288,-10,cs),
(430,-10,o),
(522,65,o),
(522,185,cs),
(522,282,o),
(451,335,o),
(363,378,c),
(437,416,o),
(499,467,o),
(499,553,cs),
(499,664,o),
(410,724,o),
(285,724,cs)
);
},
{
closed = 1;
nodes = (
(135,254,o),
(182,299,o),
(270,337,c),
(286,331,ls),
(377,296,o),
(436,253,o),
(436,184,cs),
(436,111,o),
(383,60,o),
(286,60,cs),
(183,60,o),
(135,112,o),
(135,181,cs)
);
},
{
closed = 1;
nodes = (
(361,653,o),
(412,616,o),
(412,550,cs),
(412,478,o),
(358,441,o),
(289,412,c),
(216,443,o),
(158,476,o),
(158,550,cs),
(158,616,o),
(210,653,o),
(284,653,cs)
);
}
);
width = 572;
}
);
script = "";
subCategory = "Decimal Digit";
unicode = 56;
},
{
category = Number;
glyphname = nine;
layers = (
{
layerId = "9FF96064-8718-4A86-A5C8-73C592101F67";
shapes = (
{
closed = 1;
nodes = (
(520,622,o),
(414,724,o),
(278,724,cs),
(140,724,o),
(50,632,o),
(50,483,cs),
(50,345,o),
(132,267,o),
(255,267,cs),
(342,267,o),
(395,304,o),
(425,350,c),
(431,350,l),
(425,194,o),
(376,62,o),
(190,62,cs),
(160,62,o),
(126,67,o),
(102,75,c),
(102,0,l),
(124,-7,o),
(165,-10,o),
(192,-10,cs),
(462,-10,o),
(520,204,o),
(520,409,cs)
);
},
{
closed = 1;
nodes = (
(380,650,o),
(431,553,o),
(431,467,cs),
(431,403,o),
(370,336,o),
(274,336,cs),
(181,336,o),
(137,392,o),
(137,484,cs),
(137,596,o),
(195,650,o),
(278,650,cs)
);
}
);
width = 572;
}
);
script = "";
subCategory = "Decimal Digit";
unicode = 57;
},
{
category = Punctuation;
glyphname = colon;
kernLeft = colon;
layers = (
{
layerId = "9FF96064-8718-4A86-A5C8-73C592101F67";
shapes = (
{
closed = 1;
nodes = (
(72,6,o),
(99,-14,o),
(133,-14,cs),
(167,-14,o),
(196,6,o),
(196,54,cs),
(196,103,o),
(167,121,o),
(133,121,cs),
(99,121,o),
(72,103,o),
(72,54,cs)
);
},
{
closed = 1;
nodes = (
(72,434,o),
(99,414,o),
(133,414,cs),
(167,414,o),
(196,434,o),
(196,482,cs),
(196,532,o),
(167,550,o),
(133,550,cs),
(99,550,o),
(72,532,o),
(72,482,cs)
);
}
);
width = 268;
}
);
script = "";
subCategory = Other;
unicode = 58;
},
{
category = Punctuation;
glyphname = semicolon;
kernLeft = colon;
layers = (
{
layerId = "9FF96064-8718-4A86-A5C8-73C592101F67";
shapes = (
{
closed = 1;
nodes = (
(176,116,l),
(82,116,l),
(72,46,o),
(50,-54,o),
(31,-129,c),
(97,-129,l),
(129,-58,o),
(165,35,o),
(183,105,c)
);
},
{
closed = 1;
nodes = (
(70,434,o),
(97,414,o),
(131,414,cs),
(166,414,o),
(194,434,o),
(194,482,cs),
(194,532,o),
(166,550,o),
(131,550,cs),
(97,550,o),
(70,532,o),
(70,482,cs)
);
}
);
width = 268;
}
);
script = "";
subCategory = Other;
unicode = 59;
},
{
category = Symbol;
glyphname = less;
layers = (
{
layerId = "9FF96064-8718-4A86-A5C8-73C592101F67";
shapes = (
{
closed = 1;
nodes = (
(521,194,l),
(144,352,l),
(521,530,l),
(521,608,l),
(50,373,l),
(50,323,l),
(521,116,l)
);
}
);
width = 572;
}
);
script = "";
subCategory = Math;
unicode = 60;
},
{
category = Symbol;
glyphname = equal;
layers = (
{
layerId = "9FF96064-8718-4A86-A5C8-73C592101F67";
shapes = (
{
closed = 1;
nodes = (
(514,416,l),
(514,487,l),
(56,487,l),
(56,416,l)
);
},
{
closed = 1;
nodes = (
(514,217,l),
(514,288,l),
(56,288,l),
(56,217,l)
);
}
);
width = 572;
}
);
script = "";
subCategory = Math;
unicode = 61;
},
{
category = Symbol;
glyphname = greater;
layers = (
{
layerId = "9FF96064-8718-4A86-A5C8-73C592101F67";
shapes = (
{
closed = 1;
nodes = (
(50,116,l),
(521,323,l),
(521,373,l),
(50,608,l),
(50,530,l),
(427,351,l),
(50,194,l)
);
}
);
width = 572;
}
);
script = "";
subCategory = Math;
unicode = 62;
},
{
category = Punctuation;
glyphname = question;
layers = (
{
layerId = "9FF96064-8718-4A86-A5C8-73C592101F67";
shapes = (
{
closed = 1;
nodes = (
(140,201,l),
(210,201,l),
(210,218,ls),
(210,275,o),
(223,301,o),
(290,358,cs),
(362,418,o),
(408,459,o),
(408,549,cs),
(408,657,o),
(336,724,o),
(209,724,cs),
(129,724,o),
(65,703,o),
(12,675,c),
(43,605,l),
(89,627,o),
(137,647,o),
(203,647,cs),
(281,647,o),
(324,611,o),
(324,547,cs),
(324,487,o),
(301,463,o),
(224,398,cs),
(159,343,o),
(140,303,o),
(140,228,cs)
);
},
{
closed = 1;
nodes = (
(117,6,o),
(143,-14,o),
(179,-14,cs),
(212,-14,o),
(240,6,o),
(240,54,cs),
(240,103,o),
(212,121,o),
(179,121,cs),
(143,121,o),
(117,103,o),
(117,54,cs)
);
}
);
width = 434;
}
);
script = "";
subCategory = Other;
unicode = 63;
},
{
category = Symbol;
glyphname = at;
layers = (
{
layerId = "9FF96064-8718-4A86-A5C8-73C592101F67";
shapes = (
{
closed = 1;
nodes = (
(841,578,o),
(690,714,o),
(482,714,cs),
(218,714,o),
(58,529,o),
(58,280,cs),
(58,48,o),
(197,-89,o),
(433,-89,cs),
(519,-89,o),
(591,-72,o),
(648,-48,c),
(648,20,l),
(591,-2,o),
(514,-23,o),
(433,-23,cs),
(237,-23,o),
(130,86,o),
(130,283,cs),
(130,495,o),
(254,648,o),
(482,648,cs),
(648,648,o),
(771,543,o),
(771,358,cs),
(771,255,o),
(736,171,o),
(674,171,cs),
(641,171,o),
(612,187,o),
(612,257,cs),
(612,261,o),
(612,269,o),
(613,293,cs),
(623,496,l),
(591,508,o),
(529,520,o),
(470,520,cs),
(340,520,o),
(258,426,o),
(258,295,cs),
(258,183,o),
(315,109,o),
(417,109,cs),
(488,109,o),
(534,147,o),
(558,196,c),
(563,196,l),
(571,150,o),
(607,109,o),
(668,109,cs),
(784,109,o),
(841,235,o),
(841,357,cs)
);
},
{
closed = 1;
nodes = (
(336,375,o),
(372,457,o),
(471,457,cs),
(499,457,o),
(527,452,o),
(545,447,c),
(539,322,ls),
(534,233,o),
(504,171,o),
(430,171,cs),
(372,171,o),
(336,207,o),
(336,293,cs)
);
}
);
width = 899;
}
);
script = "";
subCategory = Other;
unicode = 64;
},
{
category = Letter;
glyphname = A;
kernLeft = A.right;
kernRight = A.left;
layers = (
{
anchors = (
{
name = bottom;
pos = (324,0);
},
{
name = center;
pos = (319,358);
},
{
name = top;
pos = (318,714);
},
{
name = topright;
pos = (519,714);
}
);
layerId = "9FF96064-8718-4A86-A5C8-73C592101F67";
shapes = (
{
closed = 1;
nodes = (
(638,0,l),
(360,717,l),
(279,717,l),
(0,0,l),
(91,0,l),
(176,221,l),
(459,221,l),
(545,0,l)
);
},
{
closed = 1;
nodes = (
(432,301,l),
(206,301,l),
(287,517,ls),
(295,540,o),
(308,583,o),
(318,624,c),
(325,599,o),
(346,533,o),
(352,517,cs)
);
}
);
width = 639;
}
);
script = latin;
subCategory = Uppercase;
unicode = 65;
},
{
category = Letter;
glyphname = B;
layers = (
{
anchors = (
{
name = bottom;
pos = (315,0);
},
{
name = center;
pos = (346,357);
},
{
name = top;
pos = (322,714);
},
{
name = topright;
pos = (630,714);
}
);
layerId = "9FF96064-8718-4A86-A5C8-73C592101F67";
shapes = (
{
closed = 1;
nodes = (
(97,714,l),
(97,0,l),
(348,0,ls),
(501,0,o),
(596,73,o),
(596,203,cs),
(596,314,o),
(526,359,o),
(436,374,c),
(436,379,l),
(524,395,o),
(572,453,o),
(572,537,cs),
(572,667,o),
(479,714,o),
(301,714,cs)
);
},
{
closed = 1;
nodes = (
(187,410,l),
(187,637,l),
(305,637,ls),
(426,637,o),
(479,605,o),
(479,527,cs),
(479,450,o),
(441,410,o),
(319,410,cs)
);
},
{
closed = 1;
nodes = (
(324,335,l),
(456,335,o),
(500,285,o),
(500,210,cs),
(500,130,o),
(457,76,o),
(331,76,cs),
(187,76,l),
(187,335,l)
);
}
);
width = 650;
}
);
script = latin;
subCategory = Uppercase;
unicode = 66;
},
{
category = Letter;
glyphname = C;
kernLeft = O.right;
kernRight = C.left;
layers = (
{
anchors = (
{
name = bottom;
pos = (372,0);
},
{
name = center;
pos = (331,357);
},
{
name = top;
pos = (380,714);
},
{
name = topright;
pos = (612,714);
}
);
layerId = "9FF96064-8718-4A86-A5C8-73C592101F67";
shapes = (
{
closed = 1;
nodes = (
(467,645,o),
(521,626,o),
(565,606,c),
(601,682,l),
(547,709,o),
(477,724,o),
(404,724,cs),
(183,724,o),
(61,574,o),
(61,358,cs),
(61,133,o),
(170,-10,o),
(389,-10,cs),
(468,-10,o),
(520,-1,o),
(573,19,c),
(573,97,l),
(519,81,o),
(464,69,o),
(402,69,cs),
(238,69,o),
(156,180,o),
(156,357,cs),
(156,536,o),
(250,645,o),
(403,645,cs)
);
}
);
width = 632;
}
);
script = latin;
subCategory = Uppercase;
unicode = 67;
},
{
category = Letter;
glyphname = D;
kernRight = O.left;
layers = (
{
anchors = (
{
name = bottom;
pos = (342,0);
},
{
name = center;
pos = (365,357);
},
{
name = top;
pos = (361,714);
},
{
name = topright;
pos = (710,714);
}
);
layerId = "9FF96064-8718-4A86-A5C8-73C592101F67";
shapes = (
{
closed = 1;
nodes = (
(669,593,o),
(532,714,o),
(317,714,cs),
(97,714,l),
(97,0,l),
(296,0,ls),
(531,0,o),
(669,123,o),
(669,364,cs)
);
},
{
closed = 1;
nodes = (
(574,173,o),
(477,77,o),
(284,77,cs),
(187,77,l),
(187,637,l),
(304,637,ls),
(476,637,o),
(574,551,o),
(574,361,cs)
);
}
);
width = 730;
}
);
script = latin;
subCategory = Uppercase;
unicode = 68;
},
{
category = Letter;
glyphname = E;
kernRight = E.left;
layers = (
{
anchors = (
{
name = bottom;
pos = (300,0);
},
{
name = center;
pos = (296,357);
},
{
name = top;
pos = (305,714);
},
{
name = topright;
pos = (536,714);
}
);
layerId = "9FF96064-8718-4A86-A5C8-73C592101F67";
shapes = (
{
closed = 1;
nodes = (
(496,79,l),
(187,79,l),
(187,334,l),
(478,334,l),
(478,412,l),
(187,412,l),
(187,635,l),
(496,635,l),
(496,714,l),
(97,714,l),
(97,0,l),
(496,0,l)
);
}
);
width = 556;
}
);
script = latin;
subCategory = Uppercase;
unicode = 69;
},
{
category = Letter;
glyphname = F;
layers = (
{
anchors = (
{
name = bottom;
pos = (260,0);
},
{
name = center;
pos = (296,357);
},
{
name = top;
pos = (298,714);
},
{
name = topright;
pos = (499,714);
}
);
layerId = "9FF96064-8718-4A86-A5C8-73C592101F67";
shapes = (
{
closed = 1;
nodes = (
(187,303,l),
(477,303,l),
(477,382,l),
(187,382,l),
(187,635,l),
(496,635,l),
(496,714,l),
(97,714,l),
(97,0,l),
(187,0,l)
);
}
);
width = 519;
}
);
script = latin;
subCategory = Uppercase;
unicode = 70;
},
{
category = Letter;
glyphname = G;
kernLeft = O.right;
layers = (
{
anchors = (
{
name = bottom;
pos = (402,0);
},
{
name = center;
pos = (357,357);
},
{
name = top;
pos = (405,714);
},
{
name = topright;
pos = (708,714);
}
);
layerId = "9FF96064-8718-4A86-A5C8-73C592101F67";
shapes = (
{
closed = 1;
nodes = (
(407,297,l),
(564,297,l),
(564,85,l),
(528,76,o),
(487,68,o),
(424,68,cs),
(232,68,o),
(155,186,o),
(155,357,cs),
(155,535,o),
(255,645,o),
(426,645,cs),
(494,645,o),
(559,626,o),
(610,604,c),
(644,682,l),
(583,708,o),
(511,724,o),
(431,724,cs),
(197,724,o),
(61,580,o),
(61,357,cs),
(61,131,o),
(181,-10,o),
(403,-10,cs),
(503,-10,o),
(577,2,o),
(654,27,c),
(654,377,l),
(407,377,l)
);
}
);
width = 728;
}
);
script = latin;
subCategory = Uppercase;
unicode = 71;
},
{
category = Letter;
glyphname = H;
layers = (
{
anchors = (
{
name = bottom;
pos = (368,0);
},
{
name = center;
pos = (371,357);
},
{
name = top;
pos = (371,714);
},
{
name = topright;
pos = (721,714);
}
);
layerId = "9FF96064-8718-4A86-A5C8-73C592101F67";
shapes = (
{
closed = 1;
nodes = (
(643,714,l),
(553,714,l),
(553,412,l),
(187,412,l),
(187,714,l),
(97,714,l),
(97,0,l),
(187,0,l),
(187,333,l),
(553,333,l),
(553,0,l),
(643,0,l)
);
}
);
width = 741;
}
);
script = latin;
subCategory = Uppercase;
unicode = 72;
},
{
category = Letter;
glyphname = I;
layers = (
{
anchors = (
{
name = bottom;
pos = (170,0);
},
{
name = center;
pos = (169,357);
},
{
name = top;
pos = (170,714);
},
{
name = topright;
pos = (319,714);
}
);
layerId = "9FF96064-8718-4A86-A5C8-73C592101F67";
shapes = (
{
closed = 1;
nodes = (
(298,52,l),
(214,71,l),
(214,642,l),
(298,662,l),
(298,714,l),
(40,714,l),
(40,662,l),
(124,642,l),
(124,71,l),
(40,52,l),
(40,0,l),
(298,0,l)
);
}
);
width = 339;
}
);
script = latin;
subCategory = Uppercase;
unicode = 73;
},
{
category = Letter;
glyphname = J;
layers = (
{
anchors = (
{
name = bottom;
pos = (-4,-170);
},
{
name = center;
pos = (52,262);
},
{
name = top;
pos = (137,714);
},
{
name = topright;
pos = (253,714);
}
);
layerId = "9FF96064-8718-4A86-A5C8-73C592101F67";
shapes = (
{
closed = 1;
nodes = (
(108,-190,o),
(182,-127,o),
(182,11,cs),
(182,714,l),
(92,714,l),
(92,4,ls),
(92,-87,o),
(44,-111,o),
(-6,-111,cs),
(-33,-111,o),
(-57,-107,o),
(-78,-101,c),
(-78,-177,l),
(-60,-185,o),
(-36,-190,o),
(-4,-190,cs)
);
}
);
width = 273;
}
);
script = latin;
subCategory = Uppercase;
unicode = 74;
},
{
category = Letter;
glyphname = K;
kernRight = K.left;
layers = (
{
anchors = (
{
name = bottom;
pos = (330,0);
},
{
name = center;
pos = (358,357);
},
{
name = top;
pos = (340,714);
},
{
name = topright;
pos = (599,714);
}
);
layerId = "9FF96064-8718-4A86-A5C8-73C592101F67";
shapes = (
{
closed = 1;
nodes = (
(325,403,l),
(608,714,l),
(503,714,l),
(310,498,ls),
(269,452,o),
(227,407,o),
(187,362,c),
(187,714,l),
(97,714,l),
(97,0,l),
(187,0,l),
(187,277,l),
(260,341,l),
(513,0,l),
(619,0,l)
);
}
);
width = 619;
}
);
script = latin;
subCategory = Uppercase;
unicode = 75;
},
{
category = Letter;
glyphname = L;
kernRight = L.left;
layers = (
{
anchors = (
{
name = bottom;
pos = (300,0);
},
{
name = center;
pos = (262,357);
},
{
name = top;
pos = (140,714);
},
{
name = topright;
pos = (364,714);
}
);
layerId = "9FF96064-8718-4A86-A5C8-73C592101F67";
shapes = (
{
closed = 1;
nodes = (
(499,0,l),
(499,80,l),
(187,80,l),
(187,714,l),
(97,714,l),
(97,0,l)
);
}
);
width = 524;
}
);
script = latin;
subCategory = Uppercase;
unicode = 76;
},
{
category = Letter;
glyphname = M;
layers = (
{
anchors = (
{
name = bottom;
pos = (448,0);
},
{
name = center;
pos = (453,357);
},
{
name = top;
pos = (454,714);
},
{
name = topright;
pos = (887,714);
}
);
layerId = "9FF96064-8718-4A86-A5C8-73C592101F67";
shapes = (
{
closed = 1;
nodes = (
(486,0,l),
(724,625,l),
(728,625,l),
(725,582,o),
(721,508,o),
(721,439,cs),
(721,0,l),
(810,0,l),
(810,714,l),
(678,714,l),
(454,129,l),
(450,129,l),
(230,714,l),
(97,714,l),
(97,0,l),
(180,0,l),
(180,433,ls),
(180,509,o),
(177,585,o),
(173,626,c),
(177,626,l),
(412,0,l)
);
}
);
width = 907;
}
);
script = latin;
subCategory = Uppercase;
unicode = 77;
},
{
category = Letter;
glyphname = N;
layers = (
{
anchors = (
{
name = bottom;
pos = (380,0);
},
{
name = center;
pos = (380,357);
},
{
name = top;
pos = (380,714);
},
{
name = topright;
pos = (740,714);
}
);
layerId = "9FF96064-8718-4A86-A5C8-73C592101F67";
shapes = (
{
closed = 1;
nodes = (
(663,714,l),
(579,714,l),
(579,311,ls),
(579,246,o),
(584,155,o),
(586,123,c),
(582,123,l),
(201,714,l),
(97,714,l),
(97,0,l),
(180,0,l),
(180,399,ls),
(180,472,o),
(175,546,o),
(172,593,c),
(176,593,l),
(558,0,l),
(663,0,l)
);
}
);
width = 760;
}
);
script = latin;
subCategory = Uppercase;
unicode = 78;
},
{
category = Letter;
glyphname = O;
kernLeft = O.right;
kernRight = O.left;
layers = (
{
anchors = (
{
name = bottom;
pos = (392,0);
},
{
name = center;
pos = (391,357);
},
{
name = top;
pos = (391,714);
},
{
name = topright;
pos = (761,714);
}
);
layerId = "9FF96064-8718-4A86-A5C8-73C592101F67";
shapes = (
{
closed = 1;
nodes = (
(720,580,o),
(606,725,o),
(392,725,cs),
(168,725,o),
(61,578,o),
(61,359,cs),
(61,138,o),
(168,-10,o),
(391,-10,cs),
(606,-10,o),
(720,137,o),
(720,358,cs)
);
},
{
closed = 1;
nodes = (
(156,538,o),
(230,646,o),
(392,646,cs),
(553,646,o),
(625,538,o),
(625,358,cs),
(625,178,o),
(553,68,o),
(391,68,cs),
(230,68,o),
(156,178,o),
(156,358,cs)
);
}
);
width = 781;
}
);
script = latin;
subCategory = Uppercase;
unicode = 79;
},
{
category = Letter;
glyphname = P;
kernRight = P.left;
layers = (
{
anchors = (
{
name = bottom;
pos = (303,0);
},
{
name = center;
pos = (325,357);
},
{
name = top;
pos = (317,714);
},
{
name = topright;
pos = (585,714);
}
);
layerId = "9FF96064-8718-4A86-A5C8-73C592101F67";
shapes = (
{
closed = 1;
nodes = (
(97,714,l),
(97,0,l),
(187,0,l),
(187,278,l),
(269,278,ls),
(483,278,o),
(554,386,o),
(554,504,cs),
(554,637,o),
(473,714,o),
(286,714,cs)
);
},
{
closed = 1;
nodes = (
(404,637,o),
(461,592,o),
(461,500,cs),
(461,395,o),
(395,355,o),
(259,355,cs),
(187,355,l),
(187,637,l),
(278,637,l)
);
}
);
width = 605;
}
);
script = latin;
subCategory = Uppercase;
unicode = 80;
},
{
category = Letter;
glyphname = Q;
kernLeft = O.right;
kernRight = O.left;
layers = (
{
anchors = (
{
name = bottom;
pos = (391,-170);
},
{
name = center;
pos = (390,277);
},
{
name = top;
pos = (391,714);
},
{
name = topright;
pos = (761,714);
}
);
layerId = "9FF96064-8718-4A86-A5C8-73C592101F67";
shapes = (
{
closed = 1;
nodes = (
(720,580,o),
(606,725,o),
(392,725,cs),
(168,725,o),
(61,578,o),
(61,359,cs),
(61,138,o),
(168,-10,o),
(391,-10,cs),
(399,-10,o),
(408,-9,o),
(416,-9,c),
(554,-170,l),
(683,-170,l),
(512,8,l),
(649,54,o),
(720,183,o),
(720,358,cs)
);
},
{
closed = 1;
nodes = (
(156,538,o),
(230,646,o),
(392,646,cs),
(553,646,o),
(625,538,o),
(625,358,cs),
(625,178,o),
(553,68,o),
(391,68,cs),
(230,68,o),
(156,178,o),
(156,358,cs)
);
}
);
width = 781;
}
);
script = latin;
subCategory = Uppercase;
unicode = 81;
},
{
category = Letter;
glyphname = R;
layers = (
{
anchors = (
{
name = bottom;
pos = (328,0);
},
{
name = center;
pos = (352,357);
},
{
name = top;
pos = (311,714);
},
{
name = topright;
pos = (602,714);
}
);
layerId = "9FF96064-8718-4A86-A5C8-73C592101F67";
shapes = (
{
closed = 1;
nodes = (
(97,714,l),
(97,0,l),
(187,0,l),
(187,295,l),
(329,295,l),
(502,0,l),
(607,0,l),
(411,320,l),
(483,345,o),
(554,397,o),
(554,511,cs),
(554,647,o),
(471,714,o),
(294,714,cs)
);
},
{
closed = 1;
nodes = (
(406,636,o),
(461,600,o),
(461,507,cs),
(461,417,o),
(410,371,o),
(294,371,cs),
(187,371,l),
(187,636,l),
(289,636,l)
);
}
);
width = 622;
}
);
script = latin;
subCategory = Uppercase;
unicode = 82;
},
{
category = Letter;
glyphname = S;
layers = (
{
anchors = (
{
name = bottom;
pos = (257,0);
},
{
name = center;
pos = (276,357);
},
{
name = top;
pos = (285,714);
},
{
name = topright;
pos = (529,714);
}
);
layerId = "9FF96064-8718-4A86-A5C8-73C592101F67";
shapes = (
{
closed = 1;
nodes = (
(502,303,o),
(433,350,o),
(307,397,cs),
(191,440,o),
(151,469,o),
(151,541,cs),
(151,603,o),
(197,645,o),
(286,645,cs),
(348,645,o),
(407,628,o),
(457,607,c),
(485,684,l),
(431,708,o),
(366,724,o),
(288,724,cs),
(153,724,o),
(60,655,o),
(60,542,cs),
(60,431,o),
(122,374,o),
(244,330,cs),
(373,283,o),
(412,253,o),
(412,183,cs),
(412,112,o),
(357,68,o),
(251,68,cs),
(175,68,o),
(99,89,o),
(51,110,c),
(51,24,l),
(96,2,o),
(167,-10,o),
(247,-10,cs),
(403,-10,o),
(502,64,o),
(502,191,cs)
);
}
);
width = 549;
}
);
script = latin;
subCategory = Uppercase;
unicode = 83;
},
{
category = Letter;
glyphname = T;
kernLeft = T.right;
kernRight = T.left;
layers = (
{
anchors = (
{
name = bottom;
pos = (278,0);
},
{
name = center;
pos = (278,357);
},
{
name = top;
pos = (278,714);
},
{
name = topright;
pos = (536,714);
}
);
layerId = "9FF96064-8718-4A86-A5C8-73C592101F67";
shapes = (
{
closed = 1;
nodes = (
(323,635,l),
(545,635,l),
(545,714,l),
(10,714,l),
(10,635,l),
(233,635,l),
(233,0,l),
(323,0,l)
);
}
);
width = 556;
}
);
script = latin;
subCategory = Uppercase;
unicode = 84;
},
{
category = Letter;
glyphname = U;
kernLeft = U.right;
kernRight = U.left;
layers = (
{
anchors = (
{
name = bottom;
pos = (364,0);
},
{
name = center;
pos = (365,352);
},
{
name = top;
pos = (366,714);
},
{
name = topright;
pos = (711,714);
}
);
layerId = "9FF96064-8718-4A86-A5C8-73C592101F67";
shapes = (
{
closed = 1;
nodes = (
(640,714,l),
(551,714,l),
(551,252,ls),
(551,144,o),
(496,68,o),
(367,68,cs),
(242,68,o),
(180,135,o),
(180,251,cs),
(180,714,l),
(90,714,l),
(90,254,ls),
(90,95,o),
(184,-10,o),
(362,-10,cs),
(551,-10,o),
(640,104,o),
(640,252,cs)
);
}
);
width = 731;
}
);
script = latin;
subCategory = Uppercase;
unicode = 85;
},
{
category = Letter;
glyphname = V;
kernLeft = V.right;
kernRight = V.left;
layers = (
{
anchors = (
{
name = bottom;
pos = (299,0);
},
{
name = center;
pos = (300,357);
},
{
name = top;
pos = (303,714);
},
{
name = topright;
pos = (580,714);
}
);
layerId = "9FF96064-8718-4A86-A5C8-73C592101F67";
shapes = (
{
closed = 1;
nodes = (
(505,714,l),
(345,258,ls),
(324,198,o),
(309,147,o),
(300,100,c),
(290,147,o),
(276,197,o),
(255,256,cs),
(94,714,l),
(0,714,l),
(255,0,l),
(345,0,l),
(600,714,l)
);
}
);
width = 600;
}
);
script = latin;
subCategory = Uppercase;
unicode = 86;
},
{
category = Letter;
glyphname = W;
kernLeft = V.right;
kernRight = V.left;
layers = (
{
anchors = (
{
name = bottom;
pos = (458,0);
},
{
name = center;
pos = (464,357);
},
{
name = top;
pos = (465,714);
},
{
name = topright;
pos = (910,714);
}
);
layerId = "9FF96064-8718-4A86-A5C8-73C592101F67";
shapes = (
{
closed = 1;
nodes = (
(823,714,l),
(713,279,ls),
(697,216,o),
(684,157,o),
(678,108,c),
(671,154,o),
(658,218,o),
(639,280,cs),
(508,714,l),
(415,714,l),
(289,283,ls),
(272,224,o),
(258,160,o),
(251,108,c),
(244,158,o),
(233,216,o),
(217,278,cs),
(106,714,l),
(12,714,l),
(201,0,l),
(292,0,l),
(427,465,ls),
(445,526,o),
(459,591,o),
(461,609,c),
(464,591,o),
(480,525,o),
(497,468,cs),
(636,0,l),
(727,0,l),
(917,714,l)
);
}
);
width = 930;
}
);
script = latin;
subCategory = Uppercase;
unicode = 87;
},
{
category = Letter;
glyphname = X;
kernRight = K.left;
layers = (
{
anchors = (
{
name = bottom;
pos = (293,0);
},
{
name = center;
pos = (293,357);
},
{
name = top;
pos = (292,714);
},
{
name = topright;
pos = (566,714);
}
);
layerId = "9FF96064-8718-4A86-A5C8-73C592101F67";
shapes = (
{
closed = 1;
nodes = (
(344,374,l),
(565,714,l),
(470,714,l),
(294,434,l),
(119,714,l),
(19,714,l),
(241,372,l),
(4,0,l),
(99,0,l),
(291,310,l),
(480,0,l),
(582,0,l)
);
}
);
width = 586;
}
);
script = latin;
subCategory = Uppercase;
unicode = 88;
},
{
category = Letter;
glyphname = Y;
kernLeft = Y.right;
kernRight = Y.left;
layers = (
{
anchors = (
{
name = bottom;
pos = (283,0);
},
{
name = center;
pos = (283,357);
},
{
name = top;
pos = (283,714);
},
{
name = topright;
pos = (546,714);
}
);
layerId = "9FF96064-8718-4A86-A5C8-73C592101F67";
shapes = (
{
closed = 1;
nodes = (
(98,714,l),
(0,714,l),
(238,273,l),
(238,0,l),
(328,0,l),
(328,277,l),
(566,714,l),
(469,714,l),
(283,363,l)
);
}
);
width = 566;
}
);
script = latin;
subCategory = Uppercase;
unicode = 89;
},
{
category = Letter;
glyphname = Z;
kernLeft = Z.right;
kernRight = Z.left;
layers = (
{
anchors = (
{
name = bottom;
pos = (297,0);
},
{
name = center;
pos = (285,357);
},
{
name = top;
pos = (290,714);
},
{
name = topright;
pos = (552,714);
}
);
layerId = "9FF96064-8718-4A86-A5C8-73C592101F67";
shapes = (
{
closed = 1;
nodes = (
(533,80,l),
(147,80,l),
(523,646,l),
(523,714,l),
(50,714,l),
(50,634,l),
(414,634,l),
(38,68,l),
(38,0,l),
(533,0,l)
);
}
);
width = 572;
}
);
script = latin;
subCategory = Uppercase;
unicode = 90;
},
{
category = Punctuation;
glyphname = bracketleft;
kernRight = paren.left;
layers = (
{
layerId = "9FF96064-8718-4A86-A5C8-73C592101F67";
shapes = (
{
closed = 1;
nodes = (
(304,-86,l),
(166,-86,l),
(166,642,l),
(304,642,l),
(304,714,l),
(80,714,l),
(80,-158,l),
(304,-158,l)
);
}
);
width = 329;
}
);
script = "";
subCategory = Parenthesis;
unicode = 91;
},
{
category = Punctuation;
glyphname = backslash;
layers = (
{
layerId = "9FF96064-8718-4A86-A5C8-73C592101F67";
shapes = (
{
closed = 1;
nodes = (
(10,714,l),
(276,0,l),
(363,0,l),
(96,714,l)
);
}
);
width = 372;
}
);
script = "";
subCategory = Other;
unicode = 92;
},
{
category = Punctuation;
glyphname = bracketright;
kernLeft = Paren.right;
layers = (
{
layerId = "9FF96064-8718-4A86-A5C8-73C592101F67";
shapes = (
{
closed = 1;
nodes = (
(25,-158,l),
(249,-158,l),
(249,714,l),
(25,714,l),
(25,642,l),
(163,642,l),
(163,-86,l),
(25,-86,l)
);
}
);
width = 329;
}
);
script = "";
subCategory = Parenthesis;
unicode = 93;
},
{
category = Symbol;
glyphname = asciicircum;
layers = (
{
layerId = "9FF96064-8718-4A86-A5C8-73C592101F67";
shapes = (
{
closed = 1;
nodes = (
(116,267,l),
(276,626,l),
(456,267,l),
(534,267,l),
(300,719,l),
(250,719,l),
(38,267,l)
);
}
);
width = 572;
}
);
script = "";
subCategory = Other;
unicode = 94;
},
{
category = Punctuation;
glyphname = underscore;
layers = (
{
layerId = "9FF96064-8718-4A86-A5C8-73C592101F67";
shapes = (
{
closed = 1;
nodes = (
(446,-90,l),
(-2,-90,l),
(-2,-154,l),
(446,-154,l)
);
}
);
width = 444;
}
);
script = "";
subCategory = Other;
unicode = 95;
},
{
category = Mark;
glyphname = grave;
layers = (
{
layerId = "9FF96064-8718-4A86-A5C8-73C592101F67";
shapes = (
{
closed = 1;
nodes = (
(40,766,l),
(40,756,l),
(63,719,o),
(136,642,o),
(182,606,c),
(241,606,l),
(241,618,l),
(210,655,o),
(167,721,o),
(145,766,c)
);
}
);
width = 281;
}
);
script = "";
subCategory = Spacing;
unicode = 96;
},
{
category = Letter;
glyphname = a;
kernLeft = a.right;
kernRight = n.left;
layers = (
{
anchors = (
{
name = bottom;
pos = (281,0);
},
{
name = center;
pos = (263,267);
},
{
name = top;
pos = (281,536);
},
{
name = topright;
pos = (511,536);
}
);
layerId = "9FF96064-8718-4A86-A5C8-73C592101F67";
shapes = (
{
closed = 1;
nodes = (
(218,545,o),
(152,524,o),
(105,499,c),
(132,433,l),
(176,454,o),
(227,474,o),
(283,474,cs),
(353,474,o),
(394,444,o),
(394,355,cs),
(394,323,l),
(303,320,ls),
(128,315,o),
(46,256,o),
(46,149,cs),
(46,40,o),
(118,-10,o),
(215,-10,cs),
(305,-10,o),
(348,17,o),
(395,76,c),
(399,76,l),
(416,0,l),
(480,0,l),
(480,365,ls),
(480,490,o),
(418,545,o),
(288,545,cs)
);
},
{
closed = 1;
nodes = (
(393,262,l),
(393,214,ls),
(393,110,o),
(325,61,o),
(235,61,cs),
(177,61,o),
(137,88,o),
(137,148,cs),
(137,216,o),
(180,254,o),
(314,259,cs)
);
}
);
width = 561;
}
);
script = latin;
subCategory = Lowercase;
unicode = 97;
},
{
category = Letter;
glyphname = b;
kernLeft = b;
kernRight = o.left;
layers = (
{
anchors = (
{
name = bottom;
pos = (322,0);
},
{
name = center;
pos = (322,375);
},
{
name = top;
pos = (338,760);
},
{
name = topright;
pos = (515,760);
}
);
layerId = "9FF96064-8718-4A86-A5C8-73C592101F67";
shapes = (
{
closed = 1;
nodes = (
(173,760,l),
(85,760,l),
(85,0,l),
(148,0,l),
(166,68,l),
(173,68,l),
(203,25,o),
(255,-10,o),
(339,-10,cs),
(471,-10,o),
(560,84,o),
(560,268,cs),
(560,452,o),
(472,545,o),
(339,545,cs),
(255,545,o),
(203,510,o),
(173,465,c),
(168,465,l),
(170,487,o),
(173,530,o),
(173,575,cs)
);
},
{
closed = 1;
nodes = (
(422,472,o),
(469,404,o),
(469,269,cs),
(469,136,o),
(422,63,o),
(326,63,cs),
(208,63,o),
(173,135,o),
(173,267,cs),
(173,271,ls),
(173,408,o),
(210,472,o),
(324,472,cs)
);
}
);
width = 615;
}
);
script = latin;
subCategory = Lowercase;
unicode = 98;
},
{
category = Letter;
glyphname = c;
kernLeft = o.right;
layers = (
{
anchors = (
{
name = bottom;
pos = (281,0);
},
{
name = center;
pos = (251,268);
},
{
name = top;
pos = (284,536);
},
{
name = topright;
pos = (460,536);
}
);
layerId = "9FF96064-8718-4A86-A5C8-73C592101F67";
shapes = (
{
closed = 1;
nodes = (
(361,-10,o),
(402,0,o),
(438,19,c),
(438,97,l),
(401,80,o),
(357,66,o),
(299,66,cs),
(198,66,o),
(146,137,o),
(146,266,cs),
(146,400,o),
(197,469,o),
(304,469,cs),
(341,469,o),
(388,456,o),
(420,444,c),
(447,517,l),
(415,533,o),
(360,546,o),
(306,546,cs),
(162,546,o),
(55,463,o),
(55,265,cs),
(55,75,o),
(157,-10,o),
(300,-10,cs)
);
}
);
width = 480;
}
);
script = latin;
subCategory = Lowercase;
unicode = 99;
},
{
category = Letter;
glyphname = d;
kernLeft = o.right;
kernRight = d;
layers = (
{
anchors = (
{
name = bottom;
pos = (292,0);
},
{
name = center;
pos = (308,268);
},
{
name = top;
pos = (275,760);
},
{
name = topright;
pos = (553,760);
}
);
layerId = "9FF96064-8718-4A86-A5C8-73C592101F67";
shapes = (
{
closed = 1;
nodes = (
(359,-10,o),
(410,26,o),
(442,72,c),
(446,72,l),
(459,0,l),
(530,0,l),
(530,760,l),
(442,760,l),
(442,546,ls),
(442,526,o),
(446,484,o),
(448,467,c),
(442,467,l),
(409,511,o),
(359,546,o),
(276,546,cs),
(143,546,o),
(55,451,o),
(55,267,cs),
(55,83,o),
(142,-10,o),
(275,-10,cs)
);
},
{
closed = 1;
nodes = (
(193,63,o),
(146,137,o),
(146,265,cs),
(146,392,o),
(193,473,o),
(288,473,cs),
(407,473,o),
(443,399,o),
(443,266,cs),
(443,250,ls),
(443,125,o),
(402,63,o),
(289,63,cs)
);
}
);
width = 615;
}
);
script = latin;
subCategory = Lowercase;
unicode = 100;
},
{
category = Letter;
glyphname = e;
kernLeft = o.right;
kernRight = o.left;
layers = (
{
anchors = (
{
name = bottom;
pos = (301,0);
},
{
name = center;
pos = (284,268);
},
{
name = top;
pos = (285,536);
},
{
name = topright;
pos = (544,536);
}
);
layerId = "9FF96064-8718-4A86-A5C8-73C592101F67";
shapes = (
{
closed = 1;
nodes = (
(150,546,o),
(55,440,o),
(55,264,cs),
(55,85,o),
(160,-10,o),
(313,-10,cs),
(386,-10,o),
(434,1,o),
(489,25,c),
(489,102,l),
(433,78,o),
(385,65,o),
(317,65,cs),
(210,65,o),
(149,130,o),
(146,251,c),
(513,251,l),
(513,304,ls),
(513,450,o),
(429,546,o),
(292,546,cs)
);
},
{
closed = 1;
nodes = (
(380,474,o),
(420,412,o),
(421,321,c),
(148,321,l),
(157,417,o),
(207,474,o),
(291,474,cs)
);
}
);
width = 564;
}
);
script = latin;
subCategory = Lowercase;
unicode = 101;
},
{
category = Letter;
glyphname = f;
kernLeft = f.right;
kernRight = f.left;
layers = (
{
anchors = (
{
name = bottom;
pos = (153,0);
},
{
name = center;
pos = (201,382);
},
{
name = top;
pos = (252,765);
},
{
name = topright;
pos = (380,765);
}
);
layerId = "9FF96064-8718-4A86-A5C8-73C592101F67";
shapes = (
{
closed = 1;
nodes = (
(332,536,l),
(197,536,l),
(197,571,ls),
(197,655,o),
(225,693,o),
(284,693,cs),
(313,693,o),
(342,685,o),
(364,678,c),
(387,747,l),
(361,756,o),
(325,765,o),
(283,765,cs),
(173,765,o),
(109,708,o),
(109,570,cs),
(109,539,l),
(15,509,l),
(15,468,l),
(109,468,l),
(109,0,l),
(197,0,l),
(197,468,l),
(332,468,l)
);
}
);
width = 344;
}
);
script = latin;
subCategory = Lowercase;
unicode = 102;
},
{
category = Letter;
glyphname = g;
kernLeft = g.right;
layers = (
{
anchors = (
{
name = bottom;
pos = (298,-240);
},
{
name = center;
pos = (292,153);
},
{
name = top;
pos = (297,536);
},
{
name = topright;
pos = (555,536);
}
);
layerId = "9FF96064-8718-4A86-A5C8-73C592101F67";
shapes = (
{
closed = 1;
nodes = (
(137,546,o),
(55,438,o),
(55,267,cs),
(55,92,o),
(137,-10,o),
(276,-10,cs),
(349,-10,o),
(405,16,o),
(442,71,c),
(446,71,l),
(445,59,o),
(443,21,o),
(443,5,cs),
(443,-16,l),
(443,-110,o),
(387,-167,o),
(295,-167,cs),
(218,-167,o),
(148,-152,o),
(97,-125,c),
(97,-206,l),
(148,-229,o),
(212,-240,o),
(290,-240,cs),
(454,-240,o),
(530,-162,o),
(530,-9,cs),
(530,536,l),
(460,536,l),
(448,465,l),
(443,465,l),
(403,520,o),
(345,546,o),
(275,546,cs)
);
},
{
closed = 1;
nodes = (
(395,472,o),
(444,413,o),
(444,267,cs),
(444,246,ls),
(444,117,o),
(397,62,o),
(289,62,cs),
(195,62,o),
(146,134,o),
(146,266,cs),
(146,398,o),
(197,472,o),
(287,472,cs)
);
}
);
width = 615;
}
);
script = latin;
subCategory = Lowercase;
unicode = 103;
},
{
category = Letter;
glyphname = h;
kernLeft = b;
kernRight = n.left;
layers = (
{
anchors = (
{
name = bottom;
pos = (310,0);
},
{
name = center;
pos = (309,268);
},
{
name = top;
pos = (130,760);
},
{
name = topright;
pos = (535,760);
}
);
layerId = "9FF96064-8718-4A86-A5C8-73C592101F67";
shapes = (
{
closed = 1;
nodes = (
(173,760,l),
(85,760,l),
(85,0,l),
(173,0,l),
(173,277,ls),
(173,402,o),
(210,472,o),
(330,472,cs),
(412,472,o),
(450,429,o),
(450,343,cs),
(450,0,l),
(537,0,l),
(537,349,ls),
(537,486,o),
(471,545,o),
(341,545,cs),
(272,545,o),
(208,517,o),
(174,462,c),
(168,462,l),
(171,483,o),
(173,511,o),
(173,537,cs)
);
}
);
width = 618;
}
);
script = latin;
subCategory = Lowercase;
unicode = 104;
},
{
category = Letter;
glyphname = i;
layers = (
{
anchors = (
{
name = bottom;
pos = (131,0);
},
{
name = center;
pos = (129,368);
},
{
name = top;
pos = (129,737);
},
{
name = topright;
pos = (238,737);
}
);
layerId = "9FF96064-8718-4A86-A5C8-73C592101F67";
shapes = (
{
closed = 1;
nodes = (
(85,536,l),
(85,0,l),
(173,0,l),
(173,536,l)
);
},
{
closed = 1;
nodes = (
(101,737,o),
(78,720,o),
(78,681,cs),
(78,643,o),
(101,625,o),
(130,625,cs),
(157,625,o),
(181,643,o),
(181,681,cs),
(181,720,o),
(157,737,o),
(130,737,cs)
);
}
);
width = 258;
}
);
script = latin;
subCategory = Lowercase;
unicode = 105;
},
{
category = Letter;
glyphname = j;
kernRight = j;
layers = (
{
anchors = (
{
name = bottom;
pos = (22,-240);
},
{
name = center;
pos = (63,248);
},
{
name = top;
pos = (129,737);
},
{
name = topright;
pos = (238,737);
}
);
layerId = "9FF96064-8718-4A86-A5C8-73C592101F67";
shapes = (
{
closed = 1;
nodes = (
(127,-240,o),
(173,-180,o),
(173,-80,cs),
(173,536,l),
(85,536,l),
(85,-83,ls),
(85,-148,o),
(54,-167,o),
(11,-167,cs),
(-15,-167,o),
(-35,-163,o),
(-55,-157,c),
(-55,-228,l),
(-37,-235,o),
(-12,-240,o),
(22,-240,cs)
);
},
{
closed = 1;
nodes = (
(78,643,o),
(101,625,o),
(130,625,cs),
(157,625,o),
(181,643,o),
(181,681,cs),
(181,720,o),
(157,737,o),
(130,737,cs),
(101,737,o),
(78,720,o),
(78,681,cs)
);
}
);
width = 258;
}
);
script = latin;
subCategory = Lowercase;
unicode = 106;
},
{
category = Letter;
glyphname = k;
kernLeft = b;
kernRight = k;
layers = (
{
anchors = (
{
name = bottom;
pos = (267,0);
},
{
name = center;
pos = (305,380);
},
{
name = top;
pos = (129,760);
},
{
name = topright;
pos = (369,840);
}
);
layerId = "9FF96064-8718-4A86-A5C8-73C592101F67";
shapes = (
{
closed = 1;
nodes = (
(172,760,l),
(85,760,l),
(85,0,l),
(172,0,l),
(172,197,l),
(233,250,l),
(419,0,l),
(525,0,l),
(293,307,l),
(510,536,l),
(407,536,l),
(236,355,ls),
(218,335,o),
(184,292,o),
(172,276,c),
(168,276,l),
(169,301,o),
(172,342,o),
(172,363,cs)
);
}
);
width = 534;
}
);
script = latin;
subCategory = Lowercase;
unicode = 107;
},
{
category = Letter;
glyphname = l;
kernLeft = b;
kernRight = d;
layers = (
{
anchors = (
{
name = bottom;
pos = (129,0);
},
{
name = center;
pos = (129,268);
},
{
name = top;
pos = (129,760);
},
{
name = topright;
pos = (202,760);
}
);
layerId = "9FF96064-8718-4A86-A5C8-73C592101F67";
shapes = (
{
closed = 1;
nodes = (
(173,760,l),
(85,760,l),
(85,0,l),
(173,0,l)
);
}
);
width = 258;
}
);
script = latin;
subCategory = Lowercase;
unicode = 108;
},
{
category = Letter;
glyphname = m;
kernLeft = n.right;
kernRight = n.left;
layers = (
{
anchors = (
{
name = bottom;
pos = (471,0);
},
{
name = center;
pos = (469,273);
},
{
name = top;
pos = (479,536);
},
{
name = topright;
pos = (885,536);
}
);
layerId = "9FF96064-8718-4A86-A5C8-73C592101F67";
shapes = (
{
closed = 1;
nodes = (
(603,546,o),
(537,517,o),
(501,456,c),
(496,456,l),
(470,517,o),
(414,546,o),
(332,546,cs),
(268,546,o),
(207,519,o),
(174,463,c),
(169,463,l),
(156,536,l),
(85,536,l),
(85,0,l),
(173,0,l),
(173,278,ls),
(173,403,o),
(208,472,o),
(316,472,cs),
(391,472,o),
(426,429,o),
(426,345,cs),
(426,0,l),
(513,0,l),
(513,296,ls),
(513,410,o),
(554,472,o),
(658,472,cs),
(732,472,o),
(767,429,o),
(767,345,cs),
(767,0,l),
(854,0,l),
(854,349,ls),
(854,487,o),
(794,546,o),
(673,546,cs)
);
}
);
width = 935;
}
);
script = latin;
subCategory = Lowercase;
unicode = 109;
},
{
category = Letter;
glyphname = n;
kernLeft = n.right;
kernRight = n.left;
layers = (
{
anchors = (
{
name = bottom;
pos = (309,0);
},
{
name = center;
pos = (311,273);
},
{
name = top;
pos = (309,536);
},
{
name = topright;
pos = (562,536);
}
);
layerId = "9FF96064-8718-4A86-A5C8-73C592101F67";
shapes = (
{
closed = 1;
nodes = (
(275,546,o),
(209,519,o),
(174,463,c),
(169,463,l),
(156,536,l),
(85,536,l),
(85,0,l),
(173,0,l),
(173,278,ls),
(173,403,o),
(211,472,o),
(330,472,cs),
(412,472,o),
(450,429,o),
(450,343,cs),
(450,0,l),
(537,0,l),
(537,349,ls),
(537,487,o),
(471,546,o),
(343,546,cs)
);
}
);
width = 618;
}
);
script = latin;
subCategory = Lowercase;
unicode = 110;
},
{
category = Letter;
glyphname = o;
kernLeft = o.right;
kernRight = o.left;
layers = (
{
anchors = (
{
name = bottom;
pos = (301,0);
},
{
name = center;
pos = (303,268);
},
{
name = top;
pos = (303,536);
},
{
name = topright;
pos = (575,536);
}
);
layerId = "9FF96064-8718-4A86-A5C8-73C592101F67";
shapes = (
{
closed = 1;
nodes = (
(551,446,o),
(449,546,o),
(304,546,cs),
(150,546,o),
(55,446,o),
(55,269,cs),
(55,91,o),
(159,-10,o),
(301,-10,cs),
(454,-10,o),
(551,91,o),
(551,269,cs)
);
},
{
closed = 1;
nodes = (
(146,396,o),
(193,472,o),
(302,472,cs),
(411,472,o),
(460,396,o),
(460,269,cs),
(460,142,o),
(411,63,o),
(303,63,cs),
(194,63,o),
(146,142,o),
(146,269,cs)
);
}
);
width = 605;
}
);
script = latin;
subCategory = Lowercase;
unicode = 111;
},
{
category = Letter;
glyphname = p;
kernLeft = n.right;
kernRight = o.left;
layers = (
{
anchors = (
{
name = bottom;
pos = (129,-240);
},
{
name = center;
pos = (322,153);
},
{
name = top;
pos = (332,536);
},
{
name = topright;
pos = (585,536);
}
);
layerId = "9FF96064-8718-4A86-A5C8-73C592101F67";
shapes = (
{
closed = 1;
nodes = (
(253,546,o),
(205,509,o),
(173,463,c),
(169,463,l),
(157,536,l),
(85,536,l),
(85,-240,l),
(173,-240,l),
(173,-20,ls),
(173,5,o),
(169,45,o),
(167,68,c),
(173,68,l),
(204,26,o),
(256,-10,o),
(339,-10,cs),
(472,-10,o),
(560,86,o),
(560,269,cs),
(560,454,o),
(472,546,o),
(340,546,cs)
);
},
{
closed = 1;
nodes = (
(423,472,o),
(469,392,o),
(469,270,cs),
(469,150,o),
(423,63,o),
(326,63,cs),
(209,63,o),
(173,137,o),
(173,269,cs),
(173,286,ls),
(175,411,o),
(215,472,o),
(324,472,cs)
);
}
);
width = 615;
}
);
script = latin;
subCategory = Lowercase;
unicode = 112;
},
{
category = Letter;
glyphname = q;
kernLeft = o.right;
layers = (
{
anchors = (
{
name = bottom;
pos = (486,-240);
},
{
name = center;
pos = (292,153);
},
{
name = top;
pos = (308,536);
},
{
name = topright;
pos = (555,536);
}
);
layerId = "9FF96064-8718-4A86-A5C8-73C592101F67";
shapes = (
{
closed = 1;
nodes = (
(442,-240,l),
(530,-240,l),
(530,536,l),
(460,536,l),
(447,463,l),
(443,463,l),
(411,509,o),
(360,546,o),
(276,546,cs),
(145,546,o),
(55,451,o),
(55,267,cs),
(55,83,o),
(143,-10,o),
(273,-10,cs),
(358,-10,o),
(410,26,o),
(441,72,c),
(447,72,l),
(443,49,o),
(442,13,o),
(442,-11,cs)
);
},
{
closed = 1;
nodes = (
(192,63,o),
(146,138,o),
(146,265,cs),
(146,392,o),
(192,473,o),
(288,473,cs),
(404,473,o),
(443,402,o),
(443,266,cs),
(443,248,ls),
(441,123,o),
(400,63,o),
(290,63,cs)
);
}
);
width = 615;
}
);
script = latin;
subCategory = Lowercase;
unicode = 113;
},
{
category = Letter;
glyphname = r;
kernLeft = n.right;
kernRight = r.left;
layers = (
{
anchors = (
{
name = bottom;
pos = (126,0);
},
{
name = center;
pos = (241,273);
},
{
name = top;
pos = (240,536);
},
{
name = topright;
pos = (393,536);
}
);
layerId = "9FF96064-8718-4A86-A5C8-73C592101F67";
shapes = (
{
closed = 1;
nodes = (
(260,546,o),
(205,497,o),
(171,438,c),
(167,438,l),
(157,536,l),
(85,536,l),
(85,0,l),
(173,0,l),
(173,286,ls),
(173,394,o),
(246,466,o),
(329,466,cs),
(347,466,o),
(370,463,o),
(387,459,c),
(398,540,l),
(380,544,o),
(355,546,o),
(335,546,cs)
);
}
);
width = 413;
}
);
script = latin;
subCategory = Lowercase;
unicode = 114;
},
{
category = Letter;
glyphname = s;
kernLeft = s.right;
layers = (
{
anchors = (
{
name = bottom;
pos = (240,0);
},
{
name = center;
pos = (242,268);
},
{
name = top;
pos = (240,536);
},
{
name = topright;
pos = (439,536);
}
);
layerId = "9FF96064-8718-4A86-A5C8-73C592101F67";
shapes = (
{
closed = 1;
nodes = (
(434,234,o),
(375,269,o),
(273,307,cs),
(170,346,o),
(135,364,o),
(135,409,cs),
(135,449,o),
(174,474,o),
(246,474,cs),
(298,474,o),
(348,459,o),
(393,440,c),
(423,510,l),
(373,532,o),
(317,546,o),
(252,546,cs),
(132,546,o),
(51,495,o),
(51,404,cs),
(51,316,o),
(113,284,o),
(217,244,cs),
(322,204,o),
(349,180,o),
(349,140,cs),
(349,92,o),
(311,61,o),
(222,61,cs),
(159,61,o),
(94,83,o),
(52,104,c),
(52,24,l),
(93,2,o),
(145,-10,o),
(220,-10,cs),
(351,-10,o),
(434,44,o),
(434,148,cs)
);
}
);
width = 479;
}
);
script = latin;
subCategory = Lowercase;
unicode = 115;
},
{
category = Letter;
glyphname = t;
kernLeft = t.right;
kernRight = t.left;
layers = (
{
anchors = (
{
name = bottom;
pos = (214,0);
},
{
name = center;
pos = (181,268);
},
{
name = top;
pos = (154,659);
},
{
name = topright;
pos = (225,840);
}
);
layerId = "9FF96064-8718-4A86-A5C8-73C592101F67";
shapes = (
{
closed = 1;
nodes = (
(215,62,o),
(180,93,o),
(180,158,cs),
(180,468,l),
(335,468,l),
(335,536,l),
(180,536,l),
(180,659,l),
(128,659,l),
(93,545,l),
(16,510,l),
(16,468,l),
(92,468,l),
(92,156,ls),
(92,26,o),
(165,-10,o),
(249,-10,cs),
(281,-10,o),
(320,-3,o),
(339,6,c),
(339,73,l),
(322,67,o),
(290,62,o),
(264,62,cs)
);
}
);
width = 361;
}
);
script = latin;
subCategory = Lowercase;
unicode = 116;
},
{
category = Letter;
glyphname = u;
kernLeft = n.right;
layers = (
{
anchors = (
{
name = bottom;
pos = (294,0);
},
{
name = center;
pos = (306,263);
},
{
name = top;
pos = (309,536);
},
{
name = topright;
pos = (562,536);
}
);
layerId = "9FF96064-8718-4A86-A5C8-73C592101F67";
shapes = (
{
closed = 1;
nodes = (
(445,536,l),
(445,257,ls),
(445,132,o),
(406,63,o),
(287,63,cs),
(206,63,o),
(168,105,o),
(168,191,cs),
(168,536,l),
(79,536,l),
(79,185,ls),
(79,49,o),
(145,-10,o),
(274,-10,cs),
(343,-10,o),
(409,15,o),
(444,71,c),
(448,71,l),
(461,0,l),
(533,0,l),
(533,536,l)
);
}
);
width = 618;
}
);
script = latin;
subCategory = Lowercase;
unicode = 117;
},
{
category = Letter;
glyphname = v;
kernLeft = v.right;
kernRight = v.left;
layers = (
{
anchors = (
{
name = bottom;
pos = (252,0);
},
{
name = center;
pos = (254,268);
},
{
name = top;
pos = (252,536);
},
{
name = topright;
pos = (488,536);
}
);
layerId = "9FF96064-8718-4A86-A5C8-73C592101F67";
shapes = (
{
closed = 1;
nodes = (
(304,0,l),
(508,536,l),
(414,536,l),
(300,220,ls),
(285,177,o),
(262,111,o),
(255,78,c),
(251,78,l),
(245,111,o),
(224,176,o),
(208,220,cs),
(94,536,l),
(0,536,l),
(203,0,l)
);
}
);
width = 508;
}
);
script = latin;
subCategory = Lowercase;
unicode = 118;
},
{
category = Letter;
glyphname = w;
kernLeft = v.right;
kernRight = v.left;
layers = (
{
anchors = (
{
name = bottom;
pos = (391,0);
},
{
name = center;
pos = (393,269);
},
{
name = top;
pos = (393,536);
},
{
name = topright;
pos = (766,536);
}
);
layerId = "9FF96064-8718-4A86-A5C8-73C592101F67";
shapes = (
{
closed = 1;
nodes = (
(523,1,l),
(626,1,l),
(775,537,l),
(685,537,l),
(610,251,ls),
(594,190,o),
(578,125,o),
(574,92,c),
(570,92,l),
(565,130,o),
(548,189,o),
(534,235,cs),
(442,537,l),
(346,537,l),
(251,235,ls),
(237,191,o),
(222,124,o),
(215,91,c),
(211,91,l),
(206,129,o),
(191,193,o),
(176,251,cs),
(102,537,l),
(11,537,l),
(158,1,l),
(258,1,l),
(354,302,ls),
(372,358,o),
(385,415,o),
(390,445,c),
(394,445,l),
(400,415,o),
(414,358,o),
(431,303,cs)
);
}
);
width = 786;
}
);
script = latin;
subCategory = Lowercase;
unicode = 119;
},
{
category = Letter;
glyphname = x;
kernLeft = v.right;
kernRight = k.left;
layers = (
{
anchors = (
{
name = bottom;
pos = (265,0);
},
{
name = center;
pos = (264,268);
},
{
name = top;
pos = (263,536);
},
{
name = topright;
pos = (509,536);
}
);
layerId = "9FF96064-8718-4A86-A5C8-73C592101F67";
shapes = (
{
closed = 1;
nodes = (
(18,0,l),
(117,0,l),
(265,214,l),
(411,0,l),
(511,0,l),
(316,274,l),
(501,536,l),
(402,536,l),
(265,334,l),
(127,536,l),
(27,536,l),
(212,274,l)
);
}
);
width = 529;
}
);
script = latin;
subCategory = Lowercase;
unicode = 120;
},
{
category = Letter;
glyphname = y;
kernLeft = v.right;
kernRight = v.left;
layers = (
{
anchors = (
{
name = bottom;
pos = (94,-240);
},
{
name = center;
pos = (255,148);
},
{
name = top;
pos = (255,536);
},
{
name = topright;
pos = (490,536);
}
);
layerId = "9FF96064-8718-4A86-A5C8-73C592101F67";
shapes = (
{
closed = 1;
nodes = (
(217,-2,l),
(189,-73,ls),
(167,-131,o),
(131,-168,o),
(70,-168,cs),
(47,-168,o),
(25,-165,o),
(11,-162,c),
(11,-232,l),
(28,-236,o),
(52,-240,o),
(84,-240,cs),
(188,-240,o),
(241,-175,o),
(279,-74,cs),
(510,536,l),
(415,536,l),
(306,232,ls),
(287,177,o),
(268,118,o),
(260,85,c),
(256,85,l),
(248,129,o),
(231,177,o),
(211,231,cs),
(95,536,l),
(1,536,l)
);
}
);
width = 510;
}
);
script = latin;
subCategory = Lowercase;
unicode = 121;
},
{
category = Letter;
glyphname = z;
kernLeft = z.right;
layers = (
{
anchors = (
{
name = bottom;
pos = (242,0);
},
{
name = center;
pos = (235,268);
},
{
name = top;
pos = (235,536);
},
{
name = topright;
pos = (430,536);
}
);
layerId = "9FF96064-8718-4A86-A5C8-73C592101F67";
shapes = (
{
closed = 1;
nodes = (
(431,68,l),
(140,68,l),
(424,470,l),
(424,536,l),
(56,536,l),
(56,468,l),
(327,468,l),
(39,58,l),
(39,0,l),
(431,0,l)
);
}
);
width = 470;
}
);
script = latin;
subCategory = Lowercase;
unicode = 122;
},
{
category = Punctuation;
glyphname = braceleft;
kernRight = paren.left;
layers = (
{
layerId = "9FF96064-8718-4A86-A5C8-73C592101F67";
shapes = (
{
closed = 1;
nodes = (
(348,-86,l),
(277,-85,o),
(237,-58,o),
(237,7,cs),
(237,154,ls),
(237,222,o),
(202,263,o),
(128,276,c),
(128,282,l),
(201,295,o),
(237,336,o),
(237,404,cs),
(237,548,ls),
(237,613,o),
(279,640,o),
(348,642,c),
(348,714,l),
(231,714,o),
(150,662,o),
(150,556,cs),
(150,408,ls),
(150,341,o),
(107,316,o),
(28,315,c),
(28,242,l),
(107,242,o),
(150,216,o),
(150,148,cs),
(150,1,ls),
(150,-106,o),
(225,-157,o),
(348,-158,c)
);
}
);
width = 380;
}
);
script = "";
subCategory = Parenthesis;
unicode = 123;
},
{
category = Symbol;
glyphname = bar;
layers = (
{
layerId = "9FF96064-8718-4A86-A5C8-73C592101F67";
shapes = (
{
closed = 1;
nodes = (
(239,-241,l),
(312,-241,l),
(312,760,l),
(239,760,l)
);
}
);
width = 551;
}
);
script = "";
subCategory = Other;
unicode = 124;
},
{
category = Punctuation;
glyphname = braceright;
kernLeft = Paren.right;
layers = (
{
layerId = "9FF96064-8718-4A86-A5C8-73C592101F67";
shapes = (
{
closed = 1;
nodes = (
(32,-158,l),
(149,-158,o),
(230,-106,o),
(230,0,cs),
(230,149,ls),
(230,216,o),
(273,241,o),
(352,242,c),
(352,315,l),
(273,315,o),
(230,341,o),
(230,409,cs),
(230,555,ls),
(230,662,o),
(155,713,o),
(32,714,c),
(32,642,l),
(103,641,o),
(143,614,o),
(143,549,cs),
(143,403,ls),
(143,335,o),
(178,294,o),
(252,281,c),
(252,275,l),
(179,262,o),
(143,221,o),
(143,153,cs),
(143,8,ls),
(143,-57,o),
(101,-84,o),
(32,-86,c)
);
}
);
width = 380;
}
);
script = "";
subCategory = Parenthesis;
unicode = 125;
},
{
category = Symbol;
glyphname = asciitilde;
layers = (
{
layerId = "9FF96064-8718-4A86-A5C8-73C592101F67";
shapes = (
{
closed = 1;
nodes = (
(329,293,o),
(363,287,o),
(401,287,cs),
(449,287,o),
(489,306,o),
(521,341,c),
(521,418,l),
(489,385,o),
(445,359,o),
(406,359,cs),
(378,359,o),
(350,365,o),
(302,386,cs),
(241,412,o),
(208,418,o),
(170,418,cs),
(122,418,o),
(82,400,o),
(50,365,c),
(50,287,l),
(82,320,o),
(127,346,o),
(164,346,cs),
(193,346,o),
(221,340,o),
(269,319,cs)
);
}
);
width = 572;
}
);
script = "";
subCategory = Math;
unicode = 126;
},
{
category = Punctuation;
glyphname = exclamdown;
layers = (
{
layerId = "9FF96064-8718-4A86-A5C8-73C592101F67";
shapes = (
{
closed = 1;
nodes = (
(79,-182,l),
(187,-182,l),
(162,330,l),
(104,330,l)
);
},
{
closed = 1;
nodes = (
(196,526,o),
(168,546,o),
(134,546,cs),
(100,546,o),
(72,526,o),
(72,478,cs),
(72,428,o),
(100,411,o),
(134,411,cs),
(168,411,o),
(196,428,o),
(196,478,cs)
);
}
);
width = 269;
}
);
script = "";
subCategory = Other;
unicode = 161;
},
{
category = Symbol;
glyphname = cent;
layers = (
{
layerId = "9FF96064-8718-4A86-A5C8-73C592101F67";
shapes = (
{
closed = 1;
nodes = (
(353,724,l),
(285,724,l),
(285,640,l),
(168,622,o),
(91,544,o),
(91,362,cs),
(91,183,o),
(167,108,o),
(285,90,c),
(285,-10,l),
(352,-10,l),
(352,87,l),
(404,89,o),
(440,99,o),
(476,117,c),
(476,194,l),
(435,177,o),
(394,164,o),
(336,164,cs),
(234,164,o),
(181,224,o),
(181,363,cs),
(181,501,o),
(231,568,o),
(340,568,cs),
(376,568,o),
(424,555,o),
(459,542,c),
(485,615,l),
(452,630,o),
(403,642,o),
(353,644,c)
);
}
);
width = 572;
}
);
script = "";
subCategory = Currency;
unicode = 162;
},
{
category = Symbol;
glyphname = sterling;
layers = (
{
layerId = "9FF96064-8718-4A86-A5C8-73C592101F67";
shapes = (
{
closed = 1;
nodes = (
(211,723,o),
(131,653,o),
(131,534,cs),
(131,386,l),
(35,386,l),
(35,320,l),
(131,320,l),
(131,215,ls),
(131,127,o),
(89,88,o),
(32,74,c),
(32,0,l),
(535,0,l),
(535,80,l),
(151,80,l),
(186,101,o),
(219,135,o),
(219,216,cs),
(219,320,l),
(423,320,l),
(423,386,l),
(219,386,l),
(219,525,ls),
(219,613,o),
(260,650,o),
(336,650,cs),
(390,650,o),
(440,631,o),
(480,612,c),
(511,682,l),
(465,705,o),
(407,723,o),
(334,723,cs)
);
}
);
width = 572;
}
);
script = "";
subCategory = Currency;
unicode = 163;
},
{
category = Symbol;
glyphname = currency;
layers = (
{
layerId = "9FF96064-8718-4A86-A5C8-73C592101F67";
shapes = (
{
closed = 1;
nodes = (
(90,312,o),
(104,273,o),
(125,242,c),
(60,176,l),
(108,129,l),
(174,193,l),
(204,171,o),
(244,158,o),
(286,158,cs),
(327,158,o),
(365,171,o),
(396,192,c),
(463,128,l),
(510,175,l),
(447,241,l),
(469,272,o),
(482,312,o),
(482,353,cs),
(482,394,o),
(467,433,o),
(447,464,c),
(511,531,l),
(463,578,l),
(396,514,l),
(364,536,o),
(327,549,o),
(286,549,cs),
(244,549,o),
(205,536,o),
(174,514,c),
(108,578,l),
(59,531,l),
(125,463,l),
(104,432,o),
(90,393,o),
(90,353,cs)
);
},
{
closed = 1;
nodes = (
(157,426,o),
(214,484,o),
(286,484,cs),
(359,484,o),
(416,426,o),
(416,353,cs),
(416,281,o),
(359,224,o),
(286,224,cs),
(214,224,o),
(157,281,o),
(157,353,cs)
);
}
);
width = 572;
}
);
script = "";
subCategory = Currency;
unicode = 164;
},
{
category = Symbol;
glyphname = yen;
layers = (
{
layerId = "9FF96064-8718-4A86-A5C8-73C592101F67";
shapes = (
{
closed = 1;
nodes = (
(107,714,l),
(14,714,l),
(213,339,l),
(91,339,l),
(91,275,l),
(242,275,l),
(242,193,l),
(91,193,l),
(91,129,l),
(242,129,l),
(242,0,l),
(328,0,l),
(328,129,l),
(479,129,l),
(479,193,l),
(328,193,l),
(328,275,l),
(479,275,l),
(479,339,l),
(355,339,l),
(556,714,l),
(464,714,l),
(285,365,l)
);
}
);
width = 572;
}
);
script = "";
subCategory = Currency;
unicode = 165;
},
{
category = Symbol;
glyphname = brokenbar;
layers = (
{
layerId = "9FF96064-8718-4A86-A5C8-73C592101F67";
shapes = (
{
closed = 1;
nodes = (
(239,379,l),
(312,379,l),
(312,760,l),
(239,760,l)
);
},
{
closed = 1;
nodes = (
(239,-241,l),
(312,-241,l),
(312,140,l),
(239,140,l)
);
}
);
width = 551;
}
);
script = "";
subCategory = Other;
unicode = 166;
},
{
category = Symbol;
glyphname = section;
layers = (
{
layerId = "9FF96064-8718-4A86-A5C8-73C592101F67";
shapes = (
{
closed = 1;
nodes = (
(67,307,o),
(128,270,o),
(233,231,cs),
(342,190,o),
(362,170,o),
(362,133,cs),
(362,95,o),
(331,62,o),
(232,62,cs),
(169,62,o),
(102,83,o),
(59,103,c),
(59,28,l),
(101,7,o),
(154,-5,o),
(228,-5,cs),
(365,-5,o),
(446,48,o),
(446,140,cs),
(446,191,o),
(419,225,o),
(372,250,c),
(411,273,o),
(447,315,o),
(447,383,cs),
(447,463,o),
(387,505,o),
(284,543,cs),
(182,580,o),
(152,601,o),
(152,638,cs),
(152,675,o),
(181,697,o),
(261,697,cs),
(325,697,o),
(365,682,o),
(411,664,c),
(438,731,l),
(388,751,o),
(342,765,o),
(267,765,cs),
(140,765,o),
(70,716,o),
(70,636,cs),
(70,582,o),
(98,547,o),
(146,521,c),
(105,501,o),
(67,461,o),
(67,395,cs)
);
},
{
closed = 1;
nodes = (
(142,449,o),
(177,481,o),
(214,491,c),
(337,452,o),
(371,420,o),
(371,370,cs),
(371,325,o),
(338,297,o),
(307,279,c),
(285,287,ls),
(178,327,o),
(142,356,o),
(142,405,cs)
);
}
);
width = 513;
}
);
script = "";
subCategory = Other;
unicode = 167;
},
{
category = Mark;
glyphname = dieresis;
layers = (
{
layerId = "9FF96064-8718-4A86-A5C8-73C592101F67";
shapes = (
{
closed = 1;
nodes = (
(149,647,o),
(170,631,o),
(196,631,cs),
(221,631,o),
(243,647,o),
(243,681,cs),
(243,716,o),
(221,730,o),
(196,730,cs),
(170,730,o),
(149,716,o),
(149,681,cs)
);
},
{
closed = 1;
nodes = (
(337,647,o),
(358,631,o),
(383,631,cs),
(408,631,o),
(430,647,o),
(430,681,cs),
(430,716,o),
(408,730,o),
(383,730,cs),
(358,730,o),
(337,716,o),
(337,681,cs)
);
}
);
width = 580;
}
);
script = "";
subCategory = Spacing;
unicode = 168;
},
{
category = Symbol;
glyphname = copyright;
kernLeft = copyright;
kernRight = copyright;
layers = (
{
layerId = "9FF96064-8718-4A86-A5C8-73C592101F67";
shapes = (
{
closed = 1;
nodes = (
(478,133,o),
(508,143,o),
(540,157,c),
(540,221,l),
(507,208,o),
(466,198,o),
(435,198,cs),
(347,198,o),
(312,255,o),
(312,357,cs),
(312,455,o),
(357,515,o),
(436,515,cs),
(464,515,o),
(496,506,o),
(529,489,c),
(558,550,l),
(521,569,o),
(476,580,o),
(435,580,cs),
(305,580,o),
(234,487,o),
(234,357,cs),
(234,222,o),
(299,133,o),
(431,133,cs)
);
},
{
closed = 1;
nodes = (
(629,-10,o),
(783,144,o),
(783,357,cs),
(783,570,o),
(619,724,o),
(416,724,cs),
(203,724,o),
(49,570,o),
(49,357,cs),
(49,144,o),
(203,-10,o),
(416,-10,cs)
);
},
{
closed = 1;
nodes = (
(235,43,o),
(105,184,o),
(105,357,cs),
(105,540,o),
(235,671,o),
(416,671,cs),
(597,671,o),
(726,530,o),
(726,357,cs),
(726,174,o),
(587,43,o),
(416,43,cs)
);
}
);
width = 832;
}
);
script = "";
subCategory = Other;
unicode = 169;
},
{
category = Letter;
glyphname = ordfeminine;
layers = (
{
anchors = (
{
name = bottom;
pos = (172,384);
},
{
name = center;
pos = (170,552);
},
{
name = top;
pos = (172,725);
}
);
layerId = "9FF96064-8718-4A86-A5C8-73C592101F67";
shapes = (
{
closed = 1;
nodes = (
(131,722,o),
(86,710,o),
(52,693,c),
(74,644,l),
(104,659,o),
(138,670,o),
(175,670,cs),
(214,670,o),
(246,655,o),
(246,611,cs),
(246,589,l),
(190,587,ls),
(83,583,o),
(32,549,o),
(32,482,cs),
(32,415,o),
(72,383,o),
(135,383,cs),
(185,383,o),
(222,403,o),
(249,431,c),
(261,389,l),
(308,389,l),
(308,609,ls),
(308,688,o),
(263,722,o),
(177,722,cs)
);
},
{
closed = 1;
nodes = (
(246,544,l),
(246,521,ls),
(246,468,o),
(218,434,o),
(150,434,cs),
(117,434,o),
(96,448,o),
(96,482,cs),
(96,518,o),
(118,539,o),
(198,542,cs)
);
}
);
width = 357;
}
);
script = latin;
subCategory = Superscript;
unicode = 170;
},
{
category = Punctuation;
glyphname = guillemetleft;
kernLeft = guillemetleft;
kernRight = guillemetleft;
layers = (
{
layerId = "9FF96064-8718-4A86-A5C8-73C592101F67";
shapes = (
{
closed = 1;
nodes = (
(40,257,l),
(208,56,l),
(271,93,l),
(131,264,l),
(271,435,l),
(208,471,l),
(40,270,l)
);
},
{
closed = 1;
nodes = (
(238,257,l),
(408,56,l),
(470,93,l),
(330,264,l),
(470,435,l),
(408,471,l),
(238,270,l)
);
}
);
width = 509;
}
);
script = "";
subCategory = Quote;
unicode = 171;
},
{
category = Symbol;
glyphname = logicalnot;
layers = (
{
layerId = "9FF96064-8718-4A86-A5C8-73C592101F67";
shapes = (
{
closed = 1;
nodes = (
(50,388,l),
(50,317,l),
(449,317,l),
(449,128,l),
(520,128,l),
(520,388,l)
);
}
);
width = 572;
}
);
script = "";
subCategory = Math;
unicode = 172;
},
{
category = Symbol;
glyphname = registered;
kernLeft = copyright;
kernRight = copyright;
layers = (
{
layerId = "9FF96064-8718-4A86-A5C8-73C592101F67";
shapes = (
{
closed = 1;
nodes = (
(355,138,l),
(355,311,l),
(417,311,l),
(517,138,l),
(603,138,l),
(487,332,l),
(527,348,o),
(565,383,o),
(565,446,cs),
(565,532,o),
(516,575,o),
(407,575,cs),
(279,575,l),
(279,138,l)
);
},
{
closed = 1;
nodes = (
(355,373,l),
(355,511,l),
(404,511,ls),
(462,511,o),
(488,491,o),
(488,444,cs),
(488,402,o),
(457,373,o),
(405,373,cs)
);
},
{
closed = 1;
nodes = (
(629,-10,o),
(783,144,o),
(783,357,cs),
(783,570,o),
(619,724,o),
(416,724,cs),
(203,724,o),
(49,570,o),
(49,357,cs),
(49,144,o),
(203,-10,o),
(416,-10,cs)
);
},
{
closed = 1;
nodes = (
(235,43,o),
(105,184,o),
(105,357,cs),
(105,540,o),
(235,671,o),
(416,671,cs),
(597,671,o),
(726,530,o),
(726,357,cs),
(726,174,o),
(587,43,o),
(416,43,cs)
);
}
);
width = 832;
}
);
script = "";
subCategory = Other;
unicode = 174;
},
{
category = Mark;
glyphname = overscore;
layers = (
{
layerId = "9FF96064-8718-4A86-A5C8-73C592101F67";
shapes = (
{
closed = 1;
nodes = (
(503,826,l),
(-3,826,l),
(-3,760,l),
(503,760,l)
);
}
);
width = 500;
}
);
script = "";
subCategory = Spacing;
unicode = 175;
},
{
category = Symbol;
glyphname = degree;
layers = (
{
layerId = "9FF96064-8718-4A86-A5C8-73C592101F67";
shapes = (
{
closed = 1;
nodes = (
(308,417,o),
(373,479,o),
(373,570,cs),
(373,661,o),
(308,724,o),
(214,724,cs),
(116,724,o),
(55,661,o),
(55,570,cs),
(55,479,o),
(118,417,o),
(214,417,cs)
);
},
{
closed = 1;
nodes = (
(149,476,o),
(120,514,o),
(120,570,cs),
(120,628,o),
(150,666,o),
(215,666,cs),
(276,666,o),
(308,628,o),
(308,570,cs),
(308,514,o),
(279,476,o),
(215,476,cs)
);
}
);
width = 428;
}
);
script = "";
subCategory = Other;
unicode = 176;
},
{
category = Symbol;
glyphname = plusminus;
layers = (
{
layerId = "9FF96064-8718-4A86-A5C8-73C592101F67";
shapes = (
{
closed = 1;
nodes = (
(521,0,l),
(521,71,l),
(50,71,l),
(50,0,l)
);
},
{
alignment = -1;
pos = (0,3);
ref = plus;
}
);
width = 572;
}
);
metricWidth = "=plus";
script = "";
subCategory = Math;
unicode = 177;
},
{
category = Number;
glyphname = twosuperior;
layers = (
{
layerId = "9FF96064-8718-4A86-A5C8-73C592101F67";
shapes = (
{
closed = 1;
nodes = (
(306,478,l),
(111,478,l),
(192,555,ls),
(266,625,o),
(307,669,o),
(307,735,cs),
(307,808,o),
(255,853,o),
(170,853,cs),
(113,853,o),
(68,831,o),
(29,798,c),
(64,752,l),
(98,778,o),
(129,795,o),
(169,795,cs),
(209,795,o),
(236,773,o),
(236,731,cs),
(236,686,o),
(220,660,o),
(139,582,cs),
(24,470,l),
(24,416,l),
(306,416,l)
);
}
);
width = 350;
}
);
script = "";
subCategory = Small;
unicode = 178;
},
{
category = Number;
glyphname = threesuperior;
layers = (
{
layerId = "9FF96064-8718-4A86-A5C8-73C592101F67";
shapes = (
{
closed = 1;
nodes = (
(103,853,o),
(60,834,o),
(19,804,c),
(55,758,l),
(91,781,o),
(125,796,o),
(166,796,cs),
(205,796,o),
(236,777,o),
(236,735,cs),
(236,693,o),
(206,665,o),
(139,665,cs),
(82,665,l),
(82,610,l),
(139,610,ls),
(208,610,o),
(249,589,o),
(249,541,cs),
(249,494,o),
(218,465,o),
(149,465,cs),
(109,465,o),
(62,477,o),
(17,499,c),
(17,436,l),
(57,416,o),
(99,408,o),
(148,408,cs),
(266,408,o),
(321,462,o),
(321,539,cs),
(321,593,o),
(287,628,o),
(235,638,c),
(235,641,l),
(275,654,o),
(308,689,o),
(308,743,cs),
(308,807,o),
(260,853,o),
(165,853,cs)
);
}
);
width = 350;
}
);
script = "";
subCategory = Small;
unicode = 179;
},
{
category = Mark;
glyphname = acute;
layers = (
{
layerId = "9FF96064-8718-4A86-A5C8-73C592101F67";
shapes = (
{
closed = 1;
nodes = (
(241,766,l),
(135,766,l),
(112,721,o),
(69,655,o),
(40,618,c),
(40,606,l),
(98,606,l),
(145,642,o),
(216,719,o),
(241,756,c)
);
}
);
width = 281;
}
);
script = "";
subCategory = Spacing;
unicode = 180;
},
{
category = Symbol;
glyphname = micro;
layers = (
{
layerId = "9FF96064-8718-4A86-A5C8-73C592101F67";
shapes = (
{
closed = 1;
nodes = (
(450,536,l),
(450,257,ls),
(450,132,o),
(412,63,o),
(293,63,cs),
(213,63,o),
(173,107,o),
(173,190,cs),
(173,536,l),
(85,536,l),
(85,-240,l),
(173,-240,l),
(173,-84,ls),
(173,-30,o),
(171,11,o),
(168,35,c),
(172,35,l),
(198,8,o),
(235,-10,o),
(287,-10,cs),
(362,-10,o),
(414,19,o),
(448,72,c),
(453,72,l),
(467,0,l),
(538,0,l),
(538,536,l)
);
}
);
width = 623;
}
);
script = "";
subCategory = Math;
unicode = 181;
},
{
category = Symbol;
glyphname = paragraph;
layers = (
{
layerId = "9FF96064-8718-4A86-A5C8-73C592101F67";
shapes = (
{
closed = 1;
nodes = (
(549,760,l),
(275,760,ls),
(144,760,o),
(55,700,o),
(55,509,cs),
(55,326,o),
(136,264,o),
(260,264,cs),
(283,264,o),
(311,267,o),
(331,273,c),
(331,-127,l),
(389,-127,l),
(389,704,l),
(491,704,l),
(491,-127,l),
(549,-127,l)
);
}
);
width = 655;
}
);
script = "";
subCategory = Other;
unicode = 182;
},
{
category = Mark;
glyphname = cedilla;
layers = (
{
layerId = "9FF96064-8718-4A86-A5C8-73C592101F67";
shapes = (
{
closed = 1;
nodes = (
(212,-88,o),
(173,-64,o),
(125,-53,c),
(151,0,l),
(93,0,l),
(50,-86,l),
(101,-93,o),
(141,-106,o),
(141,-141,cs),
(141,-174,o),
(115,-185,o),
(67,-185,cs),
(48,-185,o),
(26,-183,o),
(14,-180,c),
(14,-235,l),
(25,-238,o),
(44,-240,o),
(64,-240,cs),
(162,-240,o),
(212,-203,o),
(212,-139,cs)
);
}
);
width = 225;
}
);
script = "";
subCategory = Spacing;
unicode = 184;
},
{
category = Number;
glyphname = onesuperior;
layers = (
{
layerId = "9FF96064-8718-4A86-A5C8-73C592101F67";
shapes = (
{
closed = 1;
nodes = (
(167,844,l),
(37,752,l),
(72,703,l),
(126,742,ls),
(143,754,o),
(160,769,o),
(173,781,c),
(171,753,o),
(169,726,o),
(169,692,cs),
(169,416,l),
(240,416,l),
(240,844,l)
);
}
);
width = 350;
}
);
script = "";
subCategory = Small;
unicode = 185;
},
{
category = Letter;
glyphname = ordmasculine;
layers = (
{
anchors = (
{
name = bottom;
pos = (184,380);
},
{
name = center;
pos = (188,552);
},
{
name = top;
pos = (190,725);
}
);
layerId = "9FF96064-8718-4A86-A5C8-73C592101F67";
shapes = (
{
closed = 1;
nodes = (
(345,663,o),
(283,722,o),
(189,722,cs),
(92,722,o),
(32,662,o),
(32,553,cs),
(32,442,o),
(97,383,o),
(187,383,cs),
(283,383,o),
(345,445,o),
(345,553,cs)
);
},
{
closed = 1;
nodes = (
(95,632,o),
(123,669,o),
(188,669,cs),
(253,669,o),
(281,632,o),
(281,553,cs),
(281,475,o),
(253,436,o),
(188,436,cs),
(122,436,o),
(95,475,o),
(95,553,cs)
);
}
);
width = 376;
}
);
script = latin;
subCategory = Superscript;
unicode = 186;
},
{
category = Punctuation;
glyphname = guillemetright;
kernLeft = guillemetright;
kernRight = guillemetright;
layers = (
{
layerId = "9FF96064-8718-4A86-A5C8-73C592101F67";
shapes = (
{
closed = 1;
nodes = (
(469,270,l),
(299,471,l),
(237,435,l),
(377,264,l),
(237,93,l),
(299,56,l),
(469,257,l)
);
},
{
closed = 1;
nodes = (
(270,270,l),
(101,471,l),
(39,435,l),
(179,264,l),
(39,93,l),
(101,56,l),
(270,257,l)
);
}
);
width = 509;
}
);
script = "";
subCategory = Quote;
unicode = 187;
},
{
category = Number;
glyphname = onequarter;
layers = (
{
layerId = "9FF96064-8718-4A86-A5C8-73C592101F67";
shapes = (
{
closed = 1;
nodes = (
(201,0,l),
(637,714,l),
(562,714,l),
(126,0,l)
);
},
{
closed = 1;
nodes = (
(166,286,l),
(237,286,l),
(237,714,l),
(164,714,l),
(34,622,l),
(69,573,l),
(123,612,ls),
(140,624,o),
(157,639,o),
(170,651,c),
(168,623,o),
(166,596,o),
(166,562,cs)
);
},
{
closed = 1;
nodes = (
(675,0,l),
(675,96,l),
(736,96,l),
(736,156,l),
(675,156,l),
(675,431,l),
(602,431,l),
(405,148,l),
(405,96,l),
(600,96,l),
(600,0,l)
);
},
{
closed = 1;
nodes = (
(555,273,ls),
(570,295,o),
(596,335,o),
(603,350,c),
(601,318,o),
(600,277,o),
(600,249,cs),
(600,156,l),
(475,156,l)
);
}
);
width = 745;
}
);
metricRight = foursuperior;
script = "";
subCategory = Fraction;
unicode = 188;
},
{
category = Number;
glyphname = onehalf;
layers = (
{
layerId = "9FF96064-8718-4A86-A5C8-73C592101F67";
shapes = (
{
closed = 1;
nodes = (
(171,0,l),
(607,714,l),
(532,714,l),
(96,0,l)
);
},
{
closed = 1;
nodes = (
(154,286,l),
(225,286,l),
(225,714,l),
(152,714,l),
(22,622,l),
(57,573,l),
(111,612,ls),
(128,624,o),
(145,639,o),
(158,651,c),
(156,623,o),
(154,596,o),
(154,562,cs)
);
},
{
closed = 1;
nodes = (
(727,0,l),
(727,62,l),
(532,62,l),
(613,139,ls),
(687,209,o),
(728,253,o),
(728,319,cs),
(728,392,o),
(676,437,o),
(591,437,cs),
(534,437,o),
(489,415,o),
(450,382,c),
(485,336,l),
(519,362,o),
(550,379,o),
(590,379,cs),
(630,379,o),
(657,357,o),
(657,315,cs),
(657,270,o),
(641,244,o),
(560,166,cs),
(445,54,l),
(445,0,l)
);
}
);
width = 771;
}
);
metricRight = "=twosuperior";
script = "";
subCategory = Fraction;
unicode = 189;
},
{
category = Number;
glyphname = threequarters;
layers = (
{
layerId = "9FF96064-8718-4A86-A5C8-73C592101F67";
shapes = (
{
closed = 1;
nodes = (
(245,0,l),
(681,714,l),
(606,714,l),
(170,0,l)
);
},
{
closed = 1;
nodes = (
(264,278,o),
(319,332,o),
(319,409,cs),
(319,463,o),
(285,498,o),
(233,508,c),
(233,511,l),
(273,524,o),
(306,559,o),
(306,613,cs),
(306,677,o),
(258,723,o),
(163,723,cs),
(101,723,o),
(58,704,o),
(17,674,c),
(53,628,l),
(89,651,o),
(123,666,o),
(164,666,cs),
(203,666,o),
(234,647,o),
(234,605,cs),
(234,563,o),
(204,535,o),
(137,535,cs),
(80,535,l),
(80,480,l),
(137,480,ls),
(206,480,o),
(247,459,o),
(247,411,cs),
(247,364,o),
(216,335,o),
(147,335,cs),
(107,335,o),
(60,347,o),
(15,369,c),
(15,306,l),
(55,286,o),
(97,278,o),
(146,278,cs)
);
},
{
closed = 1;
nodes = (
(711,0,l),
(711,96,l),
(772,96,l),
(772,156,l),
(711,156,l),
(711,431,l),
(638,431,l),
(441,148,l),
(441,96,l),
(636,96,l),
(636,0,l)
);
},
{
closed = 1;
nodes = (
(591,273,ls),
(606,295,o),
(632,335,o),
(639,350,c),
(637,318,o),
(636,277,o),
(636,249,cs),
(636,156,l),
(511,156,l)
);
}
);
width = 781;
}
);
metricRight = foursuperior;
script = "";
subCategory = Fraction;
unicode = 190;
},
{
category = Letter;
glyphname = AE;
kernLeft = AE;
kernRight = E.left;
layers = (
{
anchors = (
{
name = bottom;
pos = (441,0);
},
{
name = center;
pos = (410,357);
},
{
name = top;
pos = (493,714);
}
);
layerId = "9FF96064-8718-4A86-A5C8-73C592101F67";
shapes = (
{
closed = 1;
nodes = (
(821,79,l),
(539,79,l),
(539,334,l),
(802,334,l),
(802,412,l),
(539,412,l),
(539,635,l),
(821,635,l),
(821,714,l),
(338,714,l),
(-1,0,l),
(92,0,l),
(199,221,l),
(449,221,l),
(449,0,l),
(821,0,l)
);
},
{
closed = 1;
nodes = (
(391,634,l),
(449,634,l),
(449,301,l),
(234,301,l)
);
}
);
width = 881;
}
);
script = latin;
subCategory = Uppercase;
unicode = 198;
},
{
category = Letter;
glyphname = Eth;
kernRight = O.left;
layers = (
{
anchors = (
{
name = bottom;
pos = (365,0);
},
{
name = center;
pos = (349,357);
},
{
name = top;
pos = (365,714);
}
);
layerId = "9FF96064-8718-4A86-A5C8-73C592101F67";
shapes = (
{
closed = 1;
nodes = (
(104,714,l),
(104,392,l),
(30,392,l),
(30,314,l),
(104,314,l),
(104,0,l),
(295,0,ls),
(531,0,o),
(669,123,o),
(669,364,cs),
(669,593,o),
(531,714,o),
(317,714,cs)
);
},
{
closed = 1;
nodes = (
(475,637,o),
(574,551,o),
(574,361,cs),
(574,173,o),
(478,77,o),
(284,77,cs),
(194,77,l),
(194,314,l),
(372,314,l),
(372,392,l),
(194,392,l),
(194,637,l),
(304,637,l)
);
}
);
width = 730;
}
);
script = latin;
subCategory = Uppercase;
unicode = 208;
},
{
category = Symbol;
glyphname = multiply;
layers = (
{
layerId = "9FF96064-8718-4A86-A5C8-73C592101F67";
shapes = (
{
closed = 1;
nodes = (
(285,403,l),
(116,574,l),
(64,522,l),
(234,353,l),
(65,183,l),
(117,132,l),
(284,301,l),
(455,132,l),
(505,183,l),
(336,353,l),
(506,523,l),
(456,574,l)
);
}
);
width = 572;
}
);
script = "";
subCategory = Math;
unicode = 215;
},
{
category = Letter;
glyphname = Oslash;
kernLeft = O.right;
kernRight = O.left;
layers = (
{
anchors = (
{
name = bottom;
pos = (391,0);
},
{
name = center;
pos = (390,357);
},
{
name = top;
pos = (392,714);
}
);
layerId = "9FF96064-8718-4A86-A5C8-73C592101F67";
shapes = (
{
closed = 1;
nodes = (
(720,475,o),
(687,570,o),
(626,634,c),
(677,705,l),
(616,746,l),
(570,680,l),
(521,708,o),
(461,725,o),
(392,725,cs),
(168,725,o),
(61,578,o),
(61,359,cs),
(61,243,o),
(90,148,o),
(149,83,c),
(97,9,l),
(158,-31,l),
(206,37,l),
(254,6,o),
(316,-10,o),
(391,-10,cs),
(606,-10,o),
(720,137,o),
(720,358,cs)
);
},
{
closed = 1;
nodes = (
(625,178,o),
(553,68,o),
(391,68,cs),
(335,68,o),
(289,82,o),
(254,106,c),
(574,560,l),
(608,511,o),
(625,442,o),
(625,358,cs)
);
},
{
closed = 1;
nodes = (
(156,538,o),
(230,646,o),
(392,646,cs),
(445,646,o),
(488,634,o),
(522,611,c),
(203,160,l),
(171,209,o),
(156,276,o),
(156,358,cs)
);
}
);
width = 781;
}
);
script = latin;
subCategory = Uppercase;
unicode = 216;
},
{
category = Letter;
glyphname = Thorn;
kernRight = P.left;
layers = (
{
anchors = (
{
name = bottom;
pos = (303,0);
},
{
name = center;
pos = (325,357);
},
{
name = top;
pos = (303,714);
}
);
layerId = "9FF96064-8718-4A86-A5C8-73C592101F67";
shapes = (
{
closed = 1;
nodes = (
(554,513,o),
(476,590,o),
(283,590,cs),
(187,590,l),
(187,714,l),
(97,714,l),
(97,0,l),
(187,0,l),
(187,155,l),
(268,155,ls),
(486,155,o),
(554,262,o),
(554,382,cs)
);
},
{
closed = 1;
nodes = (
(187,231,l),
(187,513,l),
(276,513,ls),
(406,513,o),
(461,469,o),
(461,377,cs),
(461,272,o),
(399,231,o),
(259,231,cs)
);
}
);
width = 605;
}
);
script = latin;
subCategory = Uppercase;
unicode = 222;
},
{
category = Letter;
glyphname = germandbls;
layers = (
{
anchors = (
{
name = bottom;
pos = (316,0);
},
{
name = center;
pos = (335,377);
},
{
name = top;
pos = (316,765);
}
);
layerId = "9FF96064-8718-4A86-A5C8-73C592101F67";
shapes = (
{
closed = 1;
nodes = (
(522,716,o),
(435,765,o),
(306,765,cs),
(180,765,o),
(85,718,o),
(85,584,cs),
(85,0,l),
(173,0,l),
(173,584,ls),
(173,669,o),
(236,692,o),
(306,692,cs),
(380,692,o),
(433,668,o),
(433,612,cs),
(433,523,o),
(297,511,o),
(297,407,cs),
(297,354,o),
(322,321,o),
(406,267,cs),
(477,221,o),
(500,195,o),
(500,147,cs),
(500,94,o),
(470,61,o),
(397,61,cs),
(344,61,o),
(289,82,o),
(255,103,c),
(255,24,l),
(290,2,o),
(337,-10,o),
(400,-10,cs),
(510,-10,o),
(586,39,o),
(586,153,cs),
(586,232,o),
(542,275,o),
(470,323,cs),
(396,372,o),
(382,385,o),
(382,412,cs),
(382,472,o),
(522,503,o),
(522,617,cs)
);
}
);
width = 631;
}
);
script = latin;
subCategory = Lowercase;
unicode = 223;
},
{
category = Letter;
glyphname = ae;
kernLeft = a.right;
kernRight = o.left;
layers = (
{
anchors = (
{
name = bottom;
pos = (432,0);
},
{
name = center;
pos = (429,268);
},
{
name = top;
pos = (439,536);
}
);
layerId = "9FF96064-8718-4A86-A5C8-73C592101F67";
shapes = (
{
closed = 1;
nodes = (
(531,546,o),
(474,514,o),
(439,459,c),
(411,519,o),
(358,545,o),
(275,545,cs),
(209,545,o),
(138,525,o),
(91,499,c),
(118,433,l),
(162,455,o),
(215,474,o),
(268,474,cs),
(336,474,o),
(380,444,o),
(380,357,cs),
(380,323,l),
(290,320,ls),
(125,315,o),
(46,256,o),
(46,149,cs),
(46,40,o),
(119,-10,o),
(216,-10,cs),
(319,-10,o),
(373,34,o),
(419,103,c),
(460,28,o),
(530,-10,o),
(622,-10,cs),
(689,-10,o),
(736,1,o),
(789,25,c),
(789,102,l),
(738,78,o),
(691,65,o),
(625,65,cs),
(526,65,o),
(473,124,o),
(470,252,c),
(813,252,l),
(813,306,ls),
(813,449,o),
(733,546,o),
(603,546,cs)
);
},
{
closed = 1;
nodes = (
(378,262,l),
(378,214,ls),
(378,110,o),
(314,61,o),
(230,61,cs),
(174,61,o),
(137,88,o),
(137,148,cs),
(137,216,o),
(178,254,o),
(303,259,cs)
);
},
{
closed = 1;
nodes = (
(683,474,o),
(720,413,o),
(720,321,c),
(472,321,l),
(479,420,o),
(525,474,o),
(602,474,cs)
);
}
);
width = 864;
}
);
script = latin;
subCategory = Lowercase;
unicode = 230;
},
{
category = Letter;
glyphname = eth;
kernRight = o.left;
layers = (
{
anchors = (
{
name = bottom;
pos = (303,0);
},
{
name = center;
pos = (303,377);
},
{
name = top;
pos = (303,765);
}
);
layerId = "9FF96064-8718-4A86-A5C8-73C592101F67";
shapes = (
{
closed = 1;
nodes = (
(180,705,l),
(211,689,o),
(242,671,o),
(270,652,c),
(158,588,l),
(196,533,l),
(326,608,l),
(382,557,o),
(429,493,o),
(450,417,c),
(446,415,l),
(414,455,o),
(360,473,o),
(290,473,cs),
(146,473,o),
(55,382,o),
(55,233,cs),
(55,83,o),
(157,-10,o),
(301,-10,cs),
(456,-10,o),
(551,85,o),
(551,275,cs),
(551,437,o),
(487,564,o),
(396,649,c),
(495,706,l),
(457,760,l),
(342,693,l),
(303,721,o),
(259,745,o),
(216,765,c)
);
},
{
closed = 1;
nodes = (
(411,402,o),
(462,334,o),
(462,251,cs),
(462,128,o),
(413,62,o),
(303,62,cs),
(192,62,o),
(144,132,o),
(144,230,cs),
(144,341,o),
(191,402,o),
(303,402,cs)
);
}
);
width = 605;
}
);
script = latin;
subCategory = Lowercase;
unicode = 240;
},
{
category = Symbol;
glyphname = divide;
layers = (
{
layerId = "9FF96064-8718-4A86-A5C8-73C592101F67";
shapes = (
{
closed = 1;
nodes = (
(521,317,l),
(521,388,l),
(50,388,l),
(50,317,l)
);
},
{
closed = 1;
nodes = (
(315,121,o),
(340,139,o),
(340,182,cs),
(340,227,o),
(315,242,o),
(285,242,cs),
(254,242,o),
(229,227,o),
(229,182,cs),
(229,139,o),
(254,121,o),
(285,121,cs)
);
},
{
closed = 1;
nodes = (
(315,462,o),
(340,480,o),
(340,523,cs),
(340,568,o),
(315,583,o),
(285,583,cs),
(254,583,o),
(229,568,o),
(229,523,cs),
(229,480,o),
(254,462,o),
(285,462,cs)
);
}
);
width = 572;
}
);
script = "";
subCategory = Math;
unicode = 247;
},
{
category = Letter;
glyphname = oslash;
kernLeft = o.right;
kernRight = o.left;
layers = (
{
anchors = (
{
name = bottom;
pos = (303,0);
},
{
name = center;
pos = (303,266);
},
{
name = top;
pos = (303,536);
}
);
layerId = "9FF96064-8718-4A86-A5C8-73C592101F67";
shapes = (
{
closed = 1;
nodes = (
(551,352,o),
(527,418,o),
(488,465,c),
(533,528,l),
(474,566,l),
(435,510,l),
(398,533,o),
(353,546,o),
(304,546,cs),
(150,546,o),
(55,446,o),
(55,269,cs),
(55,183,o),
(78,116,o),
(119,68,c),
(74,6,l),
(132,-33,l),
(172,23,l),
(209,1,o),
(252,-10,o),
(301,-10,cs),
(454,-10,o),
(551,91,o),
(551,269,cs)
);
},
{
closed = 1;
nodes = (
(146,396,o),
(193,472,o),
(302,472,cs),
(337,472,o),
(367,463,o),
(390,447,c),
(170,141,l),
(153,174,o),
(146,218,o),
(146,269,cs)
);
},
{
closed = 1;
nodes = (
(460,142,o),
(411,63,o),
(303,63,cs),
(269,63,o),
(239,71,o),
(217,86,c),
(437,392,l),
(452,360,o),
(460,318,o),
(460,269,cs)
);
}
);
width = 605;
}
);
script = latin;
subCategory = Lowercase;
unicode = 248;
},
{
category = Letter;
glyphname = thorn;
kernLeft = b;
kernRight = o.left;
layers = (
{
anchors = (
{
name = bottom;
pos = (308,-240);
},
{
name = center;
pos = (322,260);
},
{
name = top;
pos = (308,760);
}
);
layerId = "9FF96064-8718-4A86-A5C8-73C592101F67";
shapes = (
{
closed = 1;
nodes = (
(560,451,o),
(472,546,o),
(340,546,cs),
(254,546,o),
(206,509,o),
(174,464,c),
(170,464,l),
(171,481,o),
(173,517,o),
(173,536,cs),
(173,760,l),
(85,760,l),
(85,-240,l),
(173,-240,l),
(173,-16,ls),
(173,5,o),
(169,53,o),
(167,68,c),
(173,68,l),
(205,25,o),
(256,-10,o),
(340,-10,cs),
(472,-10,o),
(560,86,o),
(560,269,cs)
);
},
{
closed = 1;
nodes = (
(469,137,o),
(424,63,o),
(326,63,cs),
(209,63,o),
(173,137,o),
(173,269,cs),
(173,288,ls),
(175,411,o),
(215,472,o),
(325,472,cs),
(424,472,o),
(469,405,o),
(469,270,cs)
);
}
);
width = 615;
}
);
script = latin;
subCategory = Lowercase;
unicode = 254;
},
{
category = Letter;
glyphname = dcroat;
kernLeft = o.right;
layers = (
{
anchors = (
{
name = bottom;
pos = (309,0);
},
{
name = center;
pos = (330,375);
},
{
name = top;
pos = (309,760);
}
);
layerId = "9FF96064-8718-4A86-A5C8-73C592101F67";
shapes = (
{
closed = 1;
nodes = (
(358,-10,o),
(409,26,o),
(441,72,c),
(445,72,l),
(458,0,l),
(530,0,l),
(530,605,l),
(606,605,l),
(606,671,l),
(530,671,l),
(530,760,l),
(442,760,l),
(442,671,l),
(229,671,l),
(229,605,l),
(442,605,l),
(442,544,ls),
(442,523,o),
(445,481,o),
(448,464,c),
(442,464,l),
(409,508,o),
(359,543,o),
(275,543,cs),
(143,543,o),
(55,452,o),
(55,265,cs),
(55,83,o),
(141,-10,o),
(275,-10,cs)
);
},
{
closed = 1;
nodes = (
(193,63,o),
(147,136,o),
(147,264,cs),
(147,392,o),
(193,470,o),
(288,470,cs),
(407,470,o),
(443,399,o),
(443,265,cs),
(443,248,ls),
(443,124,o),
(402,63,o),
(290,63,cs)
);
}
);
width = 617;
}
);
script = latin;
subCategory = Lowercase;
unicode = 273;
},
{
category = Letter;
glyphname = eogonek;
kernLeft = o.right;
kernRight = o.left;
layers = (
{
anchors = (
{
name = bottom;
pos = (301,-220);
},
{
name = top;
pos = (285,536);
}
);
layerId = "9FF96064-8718-4A86-A5C8-73C592101F67";
shapes = (
{
closed = 1;
nodes = (
(389,-75,o),
(408,-39,o),
(489,25,c),
(409,15,l),
(369,-13,o),
(317,-69,o),
(317,-126,cs),
(317,-185,o),
(349,-220,o),
(420,-220,cs),
(446,-220,o),
(463,-216,o),
(482,-211,c),
(482,-155,l),
(471,-157,o),
(456,-161,o),
(434,-161,cs),
(406,-161,o),
(389,-146,o),
(389,-116,cs)
);
},
{
alignment = -1;
ref = e;
}
);
width = 564;
}
);
script = latin;
subCategory = Lowercase;
unicode = 281;
},
{
category = Letter;
glyphname = Hbar;
layers = (
{
anchors = (
{
name = bottom;
pos = (371,0);
},
{
name = center;
pos = (370,357);
},
{
name = top;
pos = (371,714);
}
);
layerId = "9FF96064-8718-4A86-A5C8-73C592101F67";
shapes = (
{
closed = 1;
nodes = (
(187,0,l),
(187,333,l),
(553,333,l),
(553,0,l),
(643,0,l),
(643,523,l),
(740,523,l),
(740,595,l),
(643,595,l),
(643,714,l),
(553,714,l),
(553,595,l),
(187,595,l),
(187,714,l),
(97,714,l),
(97,595,l),
(0,595,l),
(0,523,l),
(97,523,l),
(97,0,l)
);
},
{
closed = 1;
nodes = (
(187,523,l),
(553,523,l),
(553,412,l),
(187,412,l)
);
}
);
width = 741;
}
);
script = latin;
subCategory = Uppercase;
unicode = 294;
},
{
category = Letter;
glyphname = hbar;
layers = (
{
anchors = (
{
name = bottom;
pos = (309,0);
},
{
name = center;
pos = (273,380);
},
{
name = top;
pos = (130,760);
}
);
layerId = "9FF96064-8718-4A86-A5C8-73C592101F67";
shapes = (
{
closed = 1;
nodes = (
(85,760,l),
(85,670,l),
(9,670,l),
(9,604,l),
(85,604,l),
(85,0,l),
(173,0,l),
(173,258,ls),
(173,383,o),
(210,452,o),
(330,452,cs),
(412,452,o),
(450,409,o),
(450,323,cs),
(450,0,l),
(537,0,l),
(537,329,ls),
(537,466,o),
(471,526,o),
(342,526,cs),
(272,526,o),
(208,498,o),
(174,443,c),
(168,443,l),
(171,464,o),
(173,491,o),
(173,517,cs),
(173,604,l),
(385,604,l),
(385,670,l),
(173,670,l),
(173,760,l)
);
}
);
width = 618;
}
);
script = latin;
subCategory = Lowercase;
unicode = 295;
},
{
category = Letter;
glyphname = kgreenlandic;
kernLeft = n.right;
kernRight = k.left;
layers = (
{
anchors = (
{
name = bottom;
pos = (267,0);
},
{
name = center;
pos = (305,268);
},
{
name = top;
pos = (267,536);
}
);
layerId = "9FF96064-8718-4A86-A5C8-73C592101F67";
shapes = (
{
closed = 1;
nodes = (
(403,536,l),
(213,312,l),
(201,297,o),
(186,278,o),
(174,261,c),
(172,261,l),
(175,288,o),
(178,344,o),
(178,397,cs),
(178,536,l),
(85,536,l),
(85,0,l),
(178,0,l),
(178,188,l),
(244,242,l),
(420,0,l),
(525,0,l),
(306,299,l),
(509,536,l)
);
}
);
width = 534;
}
);
script = latin;
subCategory = Lowercase;
unicode = 312;
},
{
category = Letter;
glyphname = Lslash;
kernRight = L.left;
layers = (
{
anchors = (
{
name = bottom;
pos = (300,0);
},
{
name = center;
pos = (256,357);
},
{
name = top;
pos = (140,714);
}
);
layerId = "9FF96064-8718-4A86-A5C8-73C592101F67";
shapes = (
{
closed = 1;
nodes = (
(499,0,l),
(499,80,l),
(187,80,l),
(187,300,l),
(360,400,l),
(324,463,l),
(187,382,l),
(187,714,l),
(97,714,l),
(97,329,l),
(13,279,l),
(48,219,l),
(97,247,l),
(97,0,l)
);
}
);
width = 524;
}
);
script = latin;
subCategory = Uppercase;
unicode = 321;
},
{
category = Letter;
glyphname = lslash;
layers = (
{
anchors = (
{
name = bottom;
pos = (129,0);
},
{
name = center;
pos = (129,380);
},
{
name = top;
pos = (129,760);
}
);
layerId = "9FF96064-8718-4A86-A5C8-73C592101F67";
shapes = (
{
closed = 1;
nodes = (
(166,0,l),
(166,342,l),
(267,410,l),
(230,469,l),
(166,425,l),
(166,760,l),
(78,760,l),
(78,368,l),
(-9,312,l),
(27,253,l),
(78,285,l),
(78,0,l)
);
}
);
width = 258;
}
);
script = latin;
subCategory = Lowercase;
unicode = 322;
},
{
category = Letter;
glyphname = Eng;
layers = (
{
anchors = (
{
name = bottom;
pos = (380,-190);
},
{
name = center;
pos = (380,262);
},
{
name = top;
pos = (380,714);
}
);
layerId = "9FF96064-8718-4A86-A5C8-73C592101F67";
shapes = (
{
closed = 1;
nodes = (
(590,-190,o),
(663,-128,o),
(663,6,cs),
(663,714,l),
(579,714,l),
(579,342,ls),
(579,268,o),
(582,185,o),
(586,142,c),
(582,142,l),
(201,714,l),
(97,714,l),
(97,0,l),
(180,0,l),
(180,387,ls),
(180,460,o),
(175,554,o),
(172,593,c),
(176,593,l),
(579,0,l),
(578,-87,o),
(526,-111,o),
(475,-111,cs),
(446,-111,o),
(420,-107,o),
(399,-101,c),
(399,-177,l),
(417,-185,o),
(442,-190,o),
(475,-190,cs)
);
}
);
width = 760;
}
);
script = latin;
subCategory = Uppercase;
unicode = 330;
},
{
category = Letter;
glyphname = eng;
kernLeft = n.right;
kernRight = n.left;
layers = (
{
anchors = (
{
name = bottom;
pos = (309,-240);
},
{
name = center;
pos = (311,153);
},
{
name = top;
pos = (309,536);
},
{
name = topright;
pos = (562,536);
}
);
layerId = "9FF96064-8718-4A86-A5C8-73C592101F67";
shapes = (
{
closed = 1;
nodes = (
(493,-240,o),
(538,-180,o),
(538,-80,cs),
(538,350,ls),
(538,487,o),
(473,546,o),
(342,546,cs),
(273,546,o),
(210,519,o),
(175,463,c),
(170,463,l),
(156,536,l),
(85,536,l),
(85,0,l),
(173,0,l),
(173,279,ls),
(173,404,o),
(212,472,o),
(331,472,cs),
(412,472,o),
(450,430,o),
(450,344,cs),
(450,-83,ls),
(450,-148,o),
(421,-167,o),
(383,-167,cs),
(359,-167,o),
(341,-163,o),
(323,-157,c),
(323,-228,l),
(340,-235,o),
(362,-240,o),
(394,-240,cs)
);
}
);
width = 618;
}
);
script = latin;
subCategory = Lowercase;
unicode = 331;
},
{
category = Letter;
glyphname = OE;
kernLeft = O.right;
kernRight = E.left;
layers = (
{
anchors = (
{
name = bottom;
pos = (464,0);
},
{
name = center;
pos = (464,357);
},
{
name = top;
pos = (464,714);
}
);
layerId = "9FF96064-8718-4A86-A5C8-73C592101F67";
shapes = (
{
closed = 1;
nodes = (
(167,725,o),
(61,580,o),
(61,359,cs),
(61,137,o),
(168,-10,o),
(391,-10,cs),
(425,-10,o),
(458,-6,o),
(488,0,c),
(868,0,l),
(868,79,l),
(581,79,l),
(581,334,l),
(849,334,l),
(849,412,l),
(581,412,l),
(581,635,l),
(868,635,l),
(868,714,l),
(482,714,l),
(453,721,o),
(420,725,o),
(386,725,cs)
);
},
{
closed = 1;
nodes = (
(431,646,o),
(464,641,o),
(492,630,c),
(492,85,l),
(465,74,o),
(430,68,o),
(393,68,cs),
(230,68,o),
(155,178,o),
(155,358,cs),
(155,538,o),
(230,646,o),
(394,646,cs)
);
}
);
width = 928;
}
);
script = latin;
subCategory = Uppercase;
unicode = 338;
},
{
category = Letter;
glyphname = oe;
kernLeft = o.right;
kernRight = o.left;
layers = (
{
anchors = (
{
name = bottom;
pos = (473,0);
},
{
name = center;
pos = (474,267);
},
{
name = top;
pos = (473,536);
}
);
layerId = "9FF96064-8718-4A86-A5C8-73C592101F67";
shapes = (
{
closed = 1;
nodes = (
(595,545,o),
(531,506,o),
(492,435,c),
(452,507,o),
(383,545,o),
(299,545,cs),
(147,545,o),
(54,445,o),
(54,269,cs),
(54,90,o),
(156,-10,o),
(296,-10,cs),
(384,-10,o),
(454,28,o),
(495,101,c),
(537,27,o),
(608,-10,o),
(699,-10,cs),
(770,-10,o),
(816,1,o),
(870,25,c),
(870,102,l),
(817,78,o),
(770,65,o),
(700,65,cs),
(597,65,o),
(541,123,o),
(538,251,c),
(894,251,l),
(894,304,ls),
(894,450,o),
(812,545,o),
(677,545,cs)
);
},
{
closed = 1;
nodes = (
(400,472,o),
(447,404,o),
(447,265,cs),
(447,132,o),
(401,63,o),
(297,63,cs),
(191,63,o),
(146,134,o),
(146,269,cs),
(146,403,o),
(190,472,o),
(295,472,cs)
);
},
{
closed = 1;
nodes = (
(763,473,o),
(801,413,o),
(801,321,c),
(540,321,l),
(548,420,o),
(596,473,o),
(676,473,cs)
);
}
);
width = 946;
}
);
script = latin;
subCategory = Lowercase;
unicode = 339;
},
{
category = Letter;
glyphname = Tbar;
kernLeft = T.right;
kernRight = T.left;
layers = (
{
anchors = (
{
name = bottom;
pos = (278,0);
},
{
name = center;
pos = (277,357);
},
{
name = top;
pos = (278,714);
}
);
layerId = "9FF96064-8718-4A86-A5C8-73C592101F67";
shapes = (
{
closed = 1;
nodes = (
(322,0,l),
(322,325,l),
(470,325,l),
(470,399,l),
(322,399,l),
(322,634,l),
(545,634,l),
(545,714,l),
(10,714,l),
(10,634,l),
(232,634,l),
(232,399,l),
(83,399,l),
(83,325,l),
(232,325,l),
(232,0,l)
);
}
);
width = 556;
}
);
script = latin;
subCategory = Uppercase;
unicode = 358;
},
{
category = Letter;
glyphname = tbar;
kernLeft = t.right;
kernRight = t.left;
layers = (
{
anchors = (
{
name = bottom;
pos = (214,0);
},
{
name = top;
pos = (154,659);
}
);
layerId = "9FF96064-8718-4A86-A5C8-73C592101F67";
shapes = (
{
closed = 1;
nodes = (
(326,280,l),
(326,346,l),
(24,346,l),
(24,280,l)
);
},
{
alignment = -1;
ref = t;
}
);
width = 361;
}
);
script = latin;
subCategory = Lowercase;
unicode = 359;
},
{
category = Letter;
glyphname = Uogonek;
kernLeft = U.right;
kernRight = U.left;
layers = (
{
anchors = (
{
name = bottom;
pos = (364,-220);
},
{
name = top;
pos = (366,714);
}
);
layerId = "9FF96064-8718-4A86-A5C8-73C592101F67";
shapes = (
{
closed = 1;
nodes = (
(466,-60,o),
(494,-18,o),
(555,51,c),
(492,40,l),
(452,12,o),
(394,-54,o),
(394,-117,cs),
(394,-185,o),
(426,-220,o),
(497,-220,cs),
(523,-220,o),
(540,-216,o),
(559,-211,c),
(559,-155,l),
(548,-157,o),
(533,-161,o),
(511,-161,cs),
(483,-161,o),
(466,-146,o),
(466,-107,cs)
);
},
{
alignment = -1;
ref = U;
}
);
width = 731;
}
);
script = latin;
subCategory = Uppercase;
unicode = 370;
},
{
category = Letter;
glyphname = longs;
layers = (
{
anchors = (
{
name = bottom;
pos = (163,0);
},
{
name = center;
pos = (223,382);
},
{
name = top;
pos = (213,765);
}
);
layerId = "9FF96064-8718-4A86-A5C8-73C592101F67";
shapes = (
{
closed = 1;
nodes = (
(288,692,o),
(318,684,o),
(339,677,c),
(362,746,l),
(336,756,o),
(303,765,o),
(262,765,cs),
(155,765,o),
(85,714,o),
(85,577,cs),
(85,0,l),
(173,0,l),
(173,577,ls),
(173,661,o),
(206,692,o),
(261,692,cs)
);
}
);
width = 326;
}
);
script = latin;
subCategory = Lowercase;
unicode = 383;
},
{
category = Symbol;
glyphname = fhook;
layers = (
{
anchors = (
{
name = bottom;
pos = (120,0);
},
{
name = top;
pos = (322,765);
},
{
name = topright;
pos = (450,765);
}
);
layerId = "9FF96064-8718-4A86-A5C8-73C592101F67";
shapes = (
{
closed = 1;
nodes = (
(223,-242,o),
(267,-181,o),
(267,-79,cs),
(267,468,l),
(402,468,l),
(402,536,l),
(267,536,l),
(267,571,ls),
(267,655,o),
(295,693,o),
(354,693,cs),
(383,693,o),
(412,685,o),
(434,678,c),
(457,747,l),
(431,756,o),
(395,765,o),
(353,765,cs),
(243,765,o),
(179,708,o),
(179,570,cs),
(179,539,l),
(85,509,l),
(85,468,l),
(179,468,l),
(179,-82,ls),
(179,-147,o),
(157,-169,o),
(120,-169,cs),
(91,-169,o),
(65,-149,o),
(65,-107,cs),
(65,-99,o),
(66,-92,o),
(67,-86,c),
(-8,-70,l),
(-12,-85,o),
(-13,-100,o),
(-13,-113,cs),
(-13,-192,o),
(44,-242,o),
(130,-242,cs)
);
}
);
width = 414;
}
);
metricRight = f;
script = latin;
subCategory = Currency;
unicode = 402;
},
{
category = Letter;
glyphname = Aringacute;
kernLeft = A.right;
kernRight = A.left;
layers = (
{
anchors = (
{
name = bottom;
pos = (320,0);
},
{
name = center;
pos = (320,479);
},
{
name = top;
pos = (320,958);
}
);
layerId = "9FF96064-8718-4A86-A5C8-73C592101F67";
shapes = (
{
closed = 1;
nodes = (
(0,0,l),
(92,0,l),
(170,192,l),
(465,192,l),
(547,0,l),
(640,0,l),
(382,609,l),
(411,626,o),
(430,657,o),
(430,699,cs),
(430,765,o),
(381,804,o),
(318,804,cs),
(254,804,o),
(209,765,o),
(209,698,cs),
(209,656,o),
(227,625,o),
(258,608,c)
);
},
{
closed = 1;
nodes = (
(284,477,ls),
(293,500,o),
(308,544,o),
(319,580,c),
(330,544,o),
(345,503,o),
(355,479,cs),
(439,272,l),
(201,272,l)
);
},
{
closed = 1;
nodes = (
(282,642,o),
(262,663,o),
(262,698,cs),
(262,734,o),
(286,754,o),
(318,754,cs),
(351,754,o),
(374,734,o),
(374,698,cs),
(374,662,o),
(351,642,o),
(318,642,cs)
);
},
{
closed = 1;
nodes = (
(271,829,l),
(330,829,l),
(374,859,o),
(441,921,o),
(462,950,c),
(462,958,l),
(356,958,l),
(335,921,o),
(299,870,o),
(271,838,c)
);
}
);
width = 640;
}
);
script = latin;
subCategory = Uppercase;
unicode = 506;
},
{
category = Letter;
glyphname = aringacute;
kernLeft = a.right;
kernRight = n.left;
layers = (
{
anchors = (
{
name = bottom;
pos = (281,0);
},
{
name = center;
pos = (263,474);
},
{
name = top;
pos = (281,958);
}
);
layerId = "9FF96064-8718-4A86-A5C8-73C592101F67";
shapes = (
{
closed = 1;
nodes = (
(218,545,o),
(152,524,o),
(105,499,c),
(132,433,l),
(176,454,o),
(227,474,o),
(283,474,cs),
(353,474,o),
(394,444,o),
(394,355,cs),
(394,323,l),
(303,320,ls),
(128,315,o),
(46,256,o),
(46,149,cs),
(46,40,o),
(118,-10,o),
(215,-10,cs),
(305,-10,o),
(348,17,o),
(395,76,c),
(399,76,l),
(416,0,l),
(480,0,l),
(480,365,ls),
(480,490,o),
(418,545,o),
(288,545,cs)
);
},
{
closed = 1;
nodes = (
(393,262,l),
(393,214,ls),
(393,110,o),
(325,61,o),
(235,61,cs),
(177,61,o),
(137,88,o),
(137,148,cs),
(137,216,o),
(180,254,o),
(314,259,cs)
);
},
{
closed = 1;
nodes = (
(317,768,o),
(341,747,o),
(341,712,cs),
(341,677,o),
(318,656,o),
(285,656,cs),
(249,656,o),
(229,677,o),
(229,712,cs),
(229,747,o),
(253,768,o),
(285,768,cs)
);
},
{
closed = 1;
nodes = (
(220,817,o),
(176,778,o),
(176,712,cs),
(176,645,o),
(220,606,o),
(285,606,cs),
(349,606,o),
(396,645,o),
(396,713,cs),
(396,778,o),
(348,817,o),
(285,817,cs)
);
},
{
closed = 1;
nodes = (
(446,958,l),
(315,958,l),
(294,929,o),
(258,889,o),
(230,864,c),
(230,856,l),
(293,856,l),
(338,879,o),
(425,929,o),
(446,952,c)
);
}
);
width = 561;
}
);
script = latin;
subCategory = Lowercase;
unicode = 507;
},
{
category = Mark;
glyphname = circumflex;
layers = (
{
layerId = "9FF96064-8718-4A86-A5C8-73C592101F67";
shapes = (
{
closed = 1;
nodes = (
(163,766,l),
(137,721,o),
(77,656,o),
(40,617,c),
(40,606,l),
(100,606,l),
(135,628,o),
(171,660,o),
(207,696,c),
(243,660,o),
(281,627,o),
(316,606,c),
(378,606,l),
(378,617,l),
(340,655,o),
(277,721,o),
(253,766,c)
);
}
);
width = 418;
}
);
script = "";
subCategory = Spacing;
unicode = 710;
},
{
category = Mark;
glyphname = caron;
layers = (
{
layerId = "9FF96064-8718-4A86-A5C8-73C592101F67";
shapes = (
{
closed = 1;
nodes = (
(253,606,l),
(277,651,o),
(340,715,o),
(378,753,c),
(378,766,l),
(316,766,l),
(281,743,o),
(243,710,o),
(207,674,c),
(174,710,o),
(135,743,o),
(100,766,c),
(40,766,l),
(40,753,l),
(76,715,o),
(137,651,o),
(163,606,c)
);
}
);
width = 418;
}
);
script = "";
subCategory = Spacing;
unicode = 711;
},
{
category = Mark;
glyphname = macronmod;
layers = (
{
layerId = "9FF96064-8718-4A86-A5C8-73C592101F67";
shapes = (
{
closed = 1;
nodes = (
(40,677,l),
(40,606,l),
(337,606,l),
(337,677,l)
);
}
);
width = 377;
}
);
script = "";
subCategory = Spacing;
unicode = 713;
},
{
category = Mark;
glyphname = breve;
layers = (
{
layerId = "9FF96064-8718-4A86-A5C8-73C592101F67";
shapes = (
{
closed = 1;
nodes = (
(296,740,l),
(289,688,o),
(247,677,o),
(195,677,cs),
(134,677,o),
(100,685,o),
(94,740,c),
(40,740,l),
(45,658,o),
(94,606,o),
(193,606,cs),
(289,606,o),
(344,660,o),
(351,740,c)
);
}
);
width = 391;
}
);
script = "";
subCategory = Spacing;
unicode = 728;
},
{
category = Mark;
glyphname = dotaccent;
layers = (
{
layerId = "9FF96064-8718-4A86-A5C8-73C592101F67";
shapes = (
{
closed = 1;
nodes = (
(63,737,o),
(40,720,o),
(40,681,cs),
(40,643,o),
(63,625,o),
(92,625,cs),
(119,625,o),
(143,643,o),
(143,681,cs),
(143,720,o),
(119,737,o),
(92,737,cs)
);
}
);
width = 183;
}
);
script = "";
subCategory = Spacing;
unicode = 729;
},
{
category = Mark;
glyphname = ring;
layers = (
{
layerId = "9FF96064-8718-4A86-A5C8-73C592101F67";
shapes = (
{
closed = 1;
nodes = (
(213,606,o),
(260,645,o),
(260,713,cs),
(260,778,o),
(212,817,o),
(149,817,cs),
(84,817,o),
(40,778,o),
(40,712,cs),
(40,645,o),
(84,606,o),
(149,606,cs)
);
},
{
closed = 1;
nodes = (
(113,656,o),
(93,677,o),
(93,712,cs),
(93,747,o),
(117,768,o),
(149,768,cs),
(181,768,o),
(205,747,o),
(205,712,cs),
(205,677,o),
(182,656,o),
(149,656,cs)
);
}
);
width = 300;
}
);
script = "";
subCategory = Spacing;
unicode = 730;
},
{
category = Mark;
glyphname = ogonek;
layers = (
{
layerId = "9FF96064-8718-4A86-A5C8-73C592101F67";
shapes = (
{
closed = 1;
nodes = (
(112,-75,o),
(135,-43,o),
(180,0,c),
(132,15,l),
(92,-13,o),
(40,-69,o),
(40,-126,cs),
(40,-185,o),
(72,-220,o),
(143,-220,cs),
(169,-220,o),
(186,-216,o),
(205,-211,c),
(205,-155,l),
(194,-157,o),
(179,-161,o),
(157,-161,cs),
(129,-161,o),
(112,-146,o),
(112,-116,cs)
);
}
);
width = 245;
}
);
script = "";
subCategory = Spacing;
unicode = 731;
},
{
category = Mark;
glyphname = tilde;
layers = (
{
layerId = "9FF96064-8718-4A86-A5C8-73C592101F67";
shapes = (
{
closed = 1;
nodes = (
(91,606,l),
(100,645,o),
(114,664,o),
(146,664,cs),
(190,664,o),
(242,607,o),
(298,607,cs),
(361,607,o),
(399,657,o),
(407,735,c),
(357,735,l),
(347,696,o),
(333,677,o),
(302,677,cs),
(260,677,o),
(209,734,o),
(150,734,cs),
(87,734,o),
(48,685,o),
(40,606,c)
);
}
);
width = 447;
}
);
script = "";
subCategory = Spacing;
unicode = 732;
},
{
category = Mark;
glyphname = hungarumlaut;
layers = (
{
layerId = "9FF96064-8718-4A86-A5C8-73C592101F67";
shapes = (
{
closed = 1;
nodes = (
(399,766,l),
(303,766,l),
(282,721,o),
(244,656,o),
(216,618,c),
(216,606,l),
(266,606,l),
(311,642,o),
(378,721,o),
(399,756,c)
);
},
{
closed = 1;
nodes = (
(223,766,l),
(127,766,l),
(105,721,o),
(68,656,o),
(40,618,c),
(40,606,l),
(90,606,l),
(135,642,o),
(202,721,o),
(223,756,c)
);
}
);
width = 439;
}
);
script = "";
subCategory = Spacing;
unicode = 733;
},
{
category = Mark;
glyphname = tonos;
kernLeft = GRK_Alpha;
kernRight = GRK_Alpha;
layers = (
{
anchors = (
{
name = _top;
pos = (61,536);
}
);
layerId = "9FF96064-8718-4A86-A5C8-73C592101F67";
shapes = (
{
closed = 1;
nodes = (
(99,606,l),
(194,766,l),
(194,776,l),
(88,776,l),
(40,618,l),
(40,606,l)
);
}
);
width = 234;
}
);
metricLeft = "=acute";
metricRight = "=acute";
script = greek;
subCategory = Spacing;
unicode = 900;
},
{
category = Mark;
glyphname = dieresistonos;
kernLeft = GRK_Epsilon;
kernRight = GRK_Beta;
layers = (
{
anchors = (
{
name = _top;
pos = (287,536);
}
);
layerId = "9FF96064-8718-4A86-A5C8-73C592101F67";
shapes = (
{
closed = 1;
nodes = (
(321,606,l),
(406,766,l),
(406,776,l),
(300,776,l),
(262,618,l),
(262,606,l)
);
},
{
closed = 1;
nodes = (
(221,631,o),
(243,647,o),
(243,681,cs),
(243,716,o),
(221,730,o),
(196,730,cs),
(170,730,o),
(149,716,o),
(149,681,cs),
(149,647,o),
(170,631,o),
(196,631,cs)
);
},
{
closed = 1;
nodes = (
(476,631,o),
(498,647,o),
(498,681,cs),
(498,716,o),
(476,730,o),
(451,730,cs),
(426,730,o),
(405,716,o),
(405,681,cs),
(405,647,o),
(426,631,o),
(451,631,cs)
);
}
);
width = 648;
}
);
metricLeft = "=dieresis";
metricRight = "=dieresis";
script = greek;
subCategory = Spacing;
unicode = 901;
},
{
category = Letter;
glyphname = Gamma;
kernLeft = GRK_Epsilon;
kernRight = GRK_Gamma;
layers = (
{
anchors = (
{
name = center;
pos = (286,357);
}
);
layerId = "9FF96064-8718-4A86-A5C8-73C592101F67";
shapes = (
{
closed = 1;
nodes = (
(187,0,l),
(187,635,l),
(476,635,l),
(476,714,l),
(97,714,l),
(97,0,l)
);
}
);
width = 499;
}
);
metricLeft = "=F";
metricRight = "=F";
script = greek;
subCategory = Uppercase;
unicode = 915;
},
{
category = Letter;
glyphname = Delta;
kernLeft = GRK_Alpha;
kernRight = GRK_Alpha;
layers = (
{
anchors = (
{
name = center;
pos = (319,358);
}
);
layerId = "9FF96064-8718-4A86-A5C8-73C592101F67";
shapes = (
{
closed = 1;
nodes = (
(628,0,l),
(628,50,l),
(360,717,l),
(279,717,l),
(10,50,l),
(10,0,l)
);
},
{
closed = 1;
nodes = (
(284,517,ls),
(292,540,o),
(309,583,o),
(319,624,c),
(326,599,o),
(350,533,o),
(357,517,cs),
(524,81,l),
(113,81,l)
);
}
);
width = 639;
}
);
metricLeft = "=A+10";
metricRight = "=A+10";
script = greek;
subCategory = Uppercase;
unicode = 916;
},
{
category = Letter;
glyphname = Theta;
kernLeft = GRK_Omicron;
kernRight = GRK_Omicron;
layers = (
{
layerId = "9FF96064-8718-4A86-A5C8-73C592101F67";
shapes = (
{
closed = 1;
nodes = (
(542,324,l),
(542,402,l),
(240,402,l),
(240,324,l)
);
},
{
ref = O;
}
);
width = 781;
}
);
metricLeft = "=O";
metricRight = "=O";
script = greek;
subCategory = Uppercase;
unicode = 920;
},
{
category = Letter;
glyphname = Lambda;
kernLeft = GRK_Alpha;
kernRight = GRK_Alpha;
layers = (
{
anchors = (
{
name = center;
pos = (304,358);
}
);
layerId = "9FF96064-8718-4A86-A5C8-73C592101F67";
shapes = (
{
closed = 1;
nodes = (
(91,0,l),
(272,517,l),
(280,540,o),
(293,583,o),
(303,624,c),
(310,599,o),
(331,533,o),
(337,517,c),
(515,0,l),
(608,0,l),
(345,717,l),
(264,717,l),
(0,0,l)
);
}
);
width = 609;
}
);
metricLeft = "=A";
metricRight = "=A";
script = greek;
subCategory = Uppercase;
unicode = 923;
},
{
category = Letter;
glyphname = Xi;
kernLeft = GRK_Xi;
kernRight = GRK_Epsilon;
layers = (
{
anchors = (
{
name = center;
pos = (312,357);
}
);
layerId = "9FF96064-8718-4A86-A5C8-73C592101F67";
shapes = (
{
closed = 1;
nodes = (
(564,0,l),
(564,81,l),
(60,81,l),
(60,0,l)
);
},
{
closed = 1;
nodes = (
(504,333,l),
(504,414,l),
(120,414,l),
(120,333,l)
);
},
{
closed = 1;
nodes = (
(544,633,l),
(544,714,l),
(80,714,l),
(80,633,l)
);
}
);
width = 624;
}
);
metricLeft = "=|E";
metricRight = "=E";
script = greek;
subCategory = Uppercase;
unicode = 926;
},
{
category = Letter;
glyphname = Pi;
kernLeft = GRK_Epsilon;
kernRight = GRK_Eta;
layers = (
{
anchors = (
{
name = center;
pos = (365,357);
}
);
layerId = "9FF96064-8718-4A86-A5C8-73C592101F67";
shapes = (
{
closed = 1;
nodes = (
(187,0,l),
(187,635,l),
(544,635,l),
(544,0,l),
(633,0,l),
(633,714,l),
(97,714,l),
(97,0,l)
);
}
);
width = 731;
}
);
metricLeft = "=H";
metricRight = "=H";
script = greek;
subCategory = Uppercase;
unicode = 928;
},
{
category = Letter;
glyphname = Sigma;
kernLeft = GRK_Zeta;
kernRight = GRK_Zeta;
layers = (
{
anchors = (
{
name = center;
pos = (285,357);
}
);
layerId = "9FF96064-8718-4A86-A5C8-73C592101F67";
shapes = (
{
closed = 1;
nodes = (
(533,0,l),
(533,81,l),
(290,81,ls),
(237,81,o),
(191,80,o),
(141,80,c),
(368,365,l),
(368,392,l),
(163,635,l),
(184,634,o),
(235,634,o),
(264,634,cs),
(521,634,l),
(521,714,l),
(48,714,l),
(48,639,l),
(274,369,l),
(38,74,l),
(38,0,l)
);
}
);
width = 572;
}
);
metricLeft = "=Z";
metricRight = "=Z";
script = greek;
subCategory = Uppercase;
unicode = 931;
},
{
category = Letter;
glyphname = Phi;
kernLeft = GRK_Omicron;
kernRight = GRK_Omicron;
layers = (
{
anchors = (
{
name = center;
pos = (421,357);
}
);
layerId = "9FF96064-8718-4A86-A5C8-73C592101F67";
shapes = (
{
closed = 1;
nodes = (
(466,0,l),
(466,90,l),
(723,95,o),
(792,241,o),
(792,370,cs),
(792,515,o),
(718,642,o),
(466,646,c),
(466,714,l),
(377,714,l),
(377,646,l),
(127,642,o),
(51,511,o),
(51,370,cs),
(51,247,o),
(114,95,o),
(377,90,c),
(377,0,l)
);
},
{
closed = 1;
nodes = (
(207,169,o),
(142,253,o),
(142,371,cs),
(142,482,o),
(196,566,o),
(377,570,c),
(377,164,l)
);
},
{
closed = 1;
nodes = (
(466,570,l),
(647,566,o),
(701,484,o),
(701,371,cs),
(701,256,o),
(640,169,o),
(466,164,c)
);
}
);
width = 843;
}
);
metricLeft = "=O-10";
metricRight = "=O-10";
script = greek;
subCategory = Uppercase;
unicode = 934;
},
{
category = Letter;
glyphname = Psi;
kernLeft = GRK_Psi;
kernRight = GRK_Psi;
layers = (
{
anchors = (
{
name = center;
pos = (410,357);
}
);
layerId = "9FF96064-8718-4A86-A5C8-73C592101F67";
shapes = (
{
closed = 1;
nodes = (
(454,0,l),
(454,187,l),
(636,196,o),
(730,291,o),
(730,489,cs),
(730,714,l),
(638,714,l),
(638,488,ls),
(638,316,o),
(564,264,o),
(454,264,c),
(454,714,l),
(366,714,l),
(366,264,l),
(256,264,o),
(182,316,o),
(182,488,cs),
(182,714,l),
(90,714,l),
(90,489,ls),
(90,291,o),
(184,196,o),
(366,187,c),
(366,0,l)
);
}
);
width = 821;
}
);
metricLeft = "=U";
metricRight = "=U";
script = greek;
subCategory = Uppercase;
unicode = 936;
},
{
category = Letter;
glyphname = Omega;
kernLeft = GRK_Omega;
kernRight = GRK_Omega;
layers = (
{
anchors = (
{
name = bottom;
pos = (358,0);
},
{
name = center;
pos = (358,362);
},
{
name = top;
pos = (358,714);
},
{
name = topleft;
pos = (40,714);
}
);
layerId = "9FF96064-8718-4A86-A5C8-73C592101F67";
shapes = (
{
closed = 1;
nodes = (
(293,0,l),
(293,72,l),
(169,161,o),
(126,248,o),
(126,381,cs),
(126,533,o),
(198,646,o),
(358,646,cs),
(519,646,o),
(592,533,o),
(592,381,cs),
(592,249,o),
(548,160,o),
(424,72,c),
(424,0,l),
(692,0,l),
(692,79,l),
(535,79,l),
(610,134,o),
(686,235,o),
(686,385,cs),
(686,581,o),
(570,725,o),
(358,725,cs),
(149,725,o),
(31,580,o),
(31,384,cs),
(31,235,o),
(108,134,o),
(183,79,c),
(25,79,l),
(25,0,l)
);
}
);
width = 717;
}
);
metricLeft = "=|L";
metricRight = "=L";
script = greek;
subCategory = Uppercase;
unicode = 937;
},
{
category = Letter;
glyphname = alpha;
kernLeft = GRK_omicron;
kernRight = GRK_alpha;
layers = (
{
anchors = (
{
name = bottom;
pos = (291,0);
},
{
name = center;
pos = (328,268);
},
{
name = top;
pos = (291,536);
}
);
layerId = "9FF96064-8718-4A86-A5C8-73C592101F67";
shapes = (
{
closed = 1;
nodes = (
(353,-10,o),
(408,24,o),
(441,72,c),
(448,72,l),
(462,10,o),
(496,-10,o),
(545,-10,cs),
(567,-10,o),
(591,-3,o),
(601,3,c),
(601,67,l),
(595,65,o),
(581,62,o),
(571,62,cs),
(548,62,o),
(530,77,o),
(530,118,cs),
(530,536,l),
(460,536,l),
(447,463,l),
(443,463,l),
(408,512,o),
(352,546,o),
(277,546,cs),
(140,546,o),
(55,447,o),
(55,266,cs),
(55,83,o),
(145,-10,o),
(273,-10,cs)
);
},
{
closed = 1;
nodes = (
(196,63,o),
(146,131,o),
(146,265,cs),
(146,400,o),
(192,473,o),
(290,473,cs),
(404,473,o),
(443,400,o),
(443,267,cs),
(443,261,ls),
(443,124,o),
(401,63,o),
(291,63,cs)
);
}
);
width = 623;
}
);
metricLeft = "=q";
metricRight = "=t";
script = greek;
subCategory = Lowercase;
unicode = 945;
},
{
category = Letter;
glyphname = beta;
kernLeft = GRK_mu;
kernRight = GRK_beta;
layers = (
{
anchors = (
{
name = center;
pos = (321,262);
}
);
layerId = "9FF96064-8718-4A86-A5C8-73C592101F67";
shapes = (
{
closed = 1;
nodes = (
(173,-240,l),
(173,24,l),
(216,3,o),
(254,-10,o),
(326,-10,cs),
(457,-10,o),
(558,66,o),
(558,203,cs),
(558,324,o),
(485,388,o),
(384,402,c),
(384,406,l),
(462,422,o),
(526,478,o),
(526,574,cs),
(526,697,o),
(450,765,o),
(314,765,cs),
(186,765,o),
(85,700,o),
(85,529,cs),
(85,-240,l)
);
},
{
closed = 1;
nodes = (
(256,62,o),
(219,79,o),
(173,103,c),
(173,525,ls),
(173,660,o),
(242,692,o),
(312,692,cs),
(380,692,o),
(436,652,o),
(436,570,cs),
(436,489,o),
(390,434,o),
(314,434,cs),
(241,434,l),
(241,366,l),
(324,366,ls),
(400,366,o),
(470,314,o),
(470,209,cs),
(470,115,o),
(411,62,o),
(318,62,cs)
);
}
);
width = 613;
}
);
metricLeft = "=p";
metricRight = "=p";
script = greek;
subCategory = Lowercase;
unicode = 946;
},
{
category = Letter;
glyphname = gamma;
kernLeft = GRK_gamma;
kernRight = GRK_gamma;
layers = (
{
anchors = (
{
name = center;
pos = (243,163);
}
);
layerId = "9FF96064-8718-4A86-A5C8-73C592101F67";
shapes = (
{
closed = 1;
nodes = (
(281,-210,l),
(281,-4,l),
(441,170,o),
(486,329,o),
(486,536,c),
(399,536,l),
(399,342,o),
(363,199,o),
(250,74,c),
(246,74,l),
(236,114,o),
(204,198,o),
(188,247,cs),
(91,536,l),
(0,536,l),
(193,-7,l),
(193,-210,l)
);
}
);
width = 516;
}
);
metricLeft = "=nu";
metricRight = "=nu";
script = greek;
subCategory = Lowercase;
unicode = 947;
},
{
category = Letter;
glyphname = delta;
kernLeft = GRK_omicron;
kernRight = GRK_omicron;
layers = (
{
anchors = (
{
name = center;
pos = (289,377);
}
);
layerId = "9FF96064-8718-4A86-A5C8-73C592101F67";
shapes = (
{
closed = 1;
nodes = (
(419,-10,o),
(534,65,o),
(534,235,cs),
(534,319,o),
(508,408,o),
(331,502,cs),
(233,554,o),
(217,583,o),
(217,618,cs),
(217,650,o),
(240,693,o),
(324,693,cs),
(383,693,o),
(432,666,o),
(474,634,c),
(512,703,l),
(487,724,o),
(424,765,o),
(325,765,cs),
(188,765,o),
(131,686,o),
(131,615,cs),
(131,538,o),
(179,502,o),
(226,473,c),
(111,428,o),
(45,353,o),
(45,225,cs),
(45,82,o),
(148,-10,o),
(291,-10,cs)
);
},
{
closed = 1;
nodes = (
(197,62,o),
(135,130,o),
(135,233,cs),
(135,343,o),
(198,402,o),
(300,437,c),
(390,394,o),
(448,331,o),
(448,233,cs),
(448,134,o),
(392,62,o),
(293,62,cs)
);
}
);
width = 588;
}
);
metricLeft = "=o-10";
metricRight = o;
script = greek;
subCategory = Lowercase;
unicode = 948;
},
{
category = Letter;
glyphname = epsilon;
kernLeft = GRK_epsilon;
kernRight = GRK_epsilon;
layers = (
{
anchors = (
{
name = bottom;
pos = (267,0);
},
{
name = center;
pos = (241,268);
},
{
name = top;
pos = (261,536);
}
);
layerId = "9FF96064-8718-4A86-A5C8-73C592101F67";
shapes = (
{
closed = 1;
nodes = (
(330,-10,o),
(387,-3,o),
(428,19,c),
(428,97,l),
(387,76,o),
(337,65,o),
(268,65,cs),
(184,65,o),
(136,93,o),
(136,151,cs),
(136,212,o),
(183,246,o),
(271,246,cs),
(340,246,l),
(340,314,l),
(271,314,ls),
(207,314,o),
(150,335,o),
(150,397,cs),
(150,444,o),
(181,473,o),
(261,473,cs),
(318,473,o),
(366,458,o),
(409,434,c),
(437,507,l),
(398,528,o),
(336,546,o),
(261,546,cs),
(136,546,o),
(63,494,o),
(63,403,cs),
(63,339,o),
(101,300,o),
(158,282,c),
(158,277,l),
(97,259,o),
(45,226,o),
(45,146,cs),
(45,57,o),
(113,-10,o),
(268,-10,cs)
);
}
);
width = 470;
}
);
metricLeft = "=c-10";
metricRight = "=c";
script = greek;
subCategory = Lowercase;
unicode = 949;
},
{
category = Letter;
glyphname = zeta;
kernLeft = GRK_zeta;
kernRight = GRK_zeta;
layers = (
{
anchors = (
{
name = center;
pos = (256,279);
}
);
layerId = "9FF96064-8718-4A86-A5C8-73C592101F67";
shapes = (
{
closed = 1;
nodes = (
(411,-202,l),
(433,-160,o),
(454,-116,o),
(454,-57,cs),
(454,12,o),
(417,40,o),
(313,64,cs),
(169,97,o),
(146,135,o),
(146,203,cs),
(146,283,o),
(190,352,o),
(307,508,cs),
(457,707,l),
(457,760,l),
(85,760,l),
(85,693,l),
(205,693,ls),
(273,693,o),
(348,696,o),
(357,697,c),
(248,556,ls),
(135,409,o),
(55,305,o),
(55,191,cs),
(55,89,o),
(108,27,o),
(280,-11,cs),
(356,-28,o),
(366,-44,o),
(366,-82,cs),
(366,-111,o),
(346,-160,o),
(324,-202,c)
);
}
);
width = 460;
}
);
metricLeft = "=c";
metricRight = "=c";
script = greek;
subCategory = Lowercase;
unicode = 950;
},
{
category = Letter;
glyphname = eta;
kernLeft = GRK_eta;
kernRight = GRK_eta;
layers = (
{
anchors = (
{
name = bottom;
pos = (129,0);
},
{
name = center;
pos = (306,153);
},
{
name = top;
pos = (246,536);
}
);
layerId = "9FF96064-8718-4A86-A5C8-73C592101F67";
shapes = (
{
closed = 1;
nodes = (
(527,-240,l),
(527,349,ls),
(527,487,o),
(461,546,o),
(338,546,cs),
(270,546,o),
(209,519,o),
(174,463,c),
(169,463,l),
(156,536,l),
(85,536,l),
(85,0,l),
(173,0,l),
(173,278,ls),
(173,403,o),
(212,472,o),
(325,472,cs),
(403,472,o),
(440,428,o),
(440,343,cs),
(440,-240,l)
);
}
);
width = 608;
}
);
metricLeft = "=n";
metricRight = "=n";
script = greek;
subCategory = Lowercase;
unicode = 951;
},
{
category = Letter;
glyphname = theta;
kernLeft = GRK_theta;
kernRight = GRK_theta;
layers = (
{
anchors = (
{
name = center;
pos = (297,377);
}
);
layerId = "9FF96064-8718-4A86-A5C8-73C592101F67";
shapes = (
{
closed = 1;
nodes = (
(472,-10,o),
(540,135,o),
(540,377,cs),
(540,623,o),
(462,765,o),
(296,765,cs),
(123,765,o),
(55,621,o),
(55,377,cs),
(55,135,o),
(131,-10,o),
(296,-10,cs)
);
},
{
closed = 1;
nodes = (
(190,63,o),
(147,150,o),
(144,354,c),
(451,354,l),
(447,148,o),
(400,63,o),
(296,63,cs)
);
},
{
closed = 1;
nodes = (
(151,603,o),
(194,691,o),
(296,691,cs),
(398,691,o),
(443,603,o),
(450,422,c),
(144,422,l)
);
}
);
width = 594;
}
);
metricLeft = "=o";
metricRight = "=o";
script = greek;
subCategory = Lowercase;
unicode = 952;
},
{
category = Letter;
glyphname = iota;
kernLeft = GRK_iota;
kernRight = GRK_iota;
layers = (
{
anchors = (
{
name = bottom;
pos = (198,0);
},
{
name = center;
pos = (196,263);
},
{
name = top;
pos = (134,536);
}
);
layerId = "9FF96064-8718-4A86-A5C8-73C592101F67";
shapes = (
{
closed = 1;
nodes = (
(267,-10,o),
(292,-5,o),
(310,2,c),
(310,73,l),
(290,67,o),
(270,63,o),
(244,63,cs),
(201,63,o),
(170,82,o),
(170,147,cs),
(170,536,l),
(82,536,l),
(82,150,ls),
(82,50,o),
(128,-10,o),
(233,-10,cs)
);
}
);
width = 332;
}
);
metricRight = "=alpha";
script = greek;
subCategory = Lowercase;
unicode = 953;
},
{
category = Letter;
glyphname = lambda;
kernLeft = GRK_lambda;
kernRight = GRK_lambda;
layers = (
{
anchors = (
{
name = center;
pos = (259,377);
}
);
layerId = "9FF96064-8718-4A86-A5C8-73C592101F67";
shapes = (
{
closed = 1;
nodes = (
(485,-10,o),
(504,-5,o),
(519,2,c),
(519,67,l),
(512,65,o),
(502,62,o),
(492,62,cs),
(477,62,o),
(471,69,o),
(460,97,cs),
(270,602,ls),
(227,716,o),
(170,765,o),
(67,765,cs),
(40,765,o),
(18,762,o),
(0,757,c),
(0,687,l),
(14,690,o),
(32,693,o),
(56,693,cs),
(120,693,o),
(157,663,o),
(179,605,cs),
(205,538,l),
(9,0,l),
(103,0,l),
(195,281,ls),
(212,334,o),
(235,403,o),
(244,451,c),
(248,451,l),
(258,409,o),
(287,324,o),
(304,276,cs),
(383,53,ls),
(400,4,o),
(423,-10,o),
(462,-10,cs)
);
}
);
width = 519;
}
);
metricLeft = "=v";
metricRight = "=v";
script = greek;
subCategory = Lowercase;
unicode = 955;
},
{
category = Letter;
glyphname = mu;
kernLeft = GRK_mu;
kernRight = GRK_alpha;
layers = (
{
anchors = (
{
name = center;
pos = (344,148);
}
);
layerId = "9FF96064-8718-4A86-A5C8-73C592101F67";
shapes = (
{
closed = 1;
nodes = (
(173,-240,l),
(173,-84,ls),
(173,-30,o),
(171,11,o),
(168,35,c),
(172,35,l),
(198,8,o),
(237,-10,o),
(289,-10,cs),
(364,-10,o),
(410,19,o),
(444,72,c),
(451,72,l),
(465,10,o),
(499,-10,o),
(548,-10,cs),
(570,-10,o),
(594,-3,o),
(604,3,c),
(604,67,l),
(598,65,o),
(584,62,o),
(574,62,cs),
(551,62,o),
(533,77,o),
(533,118,cs),
(533,536,l),
(445,536,l),
(445,257,ls),
(445,132,o),
(404,63,o),
(295,63,cs),
(215,63,o),
(173,107,o),
(173,190,cs),
(173,536,l),
(85,536,l),
(85,-240,l)
);
}
);
width = 626;
}
);
metricLeft = "=p";
metricRight = "=alpha";
script = greek;
subCategory = Lowercase;
unicode = 956;
},
{
category = Letter;
glyphname = nu;
kernLeft = GRK_gamma;
kernRight = GRK_gamma;
layers = (
{
anchors = (
{
name = center;
pos = (243,268);
}
);
layerId = "9FF96064-8718-4A86-A5C8-73C592101F67";
shapes = (
{
closed = 1;
nodes = (
(285,0,l),
(440,166,o),
(486,326,o),
(486,536,c),
(399,536,l),
(399,342,o),
(363,199,o),
(250,74,c),
(246,74,l),
(236,114,o),
(204,198,o),
(188,247,cs),
(91,536,l),
(0,536,l),
(190,0,l)
);
}
);
width = 516;
}
);
metricLeft = "=v";
metricRight = "=o";
script = greek;
subCategory = Lowercase;
unicode = 957;
},
{
category = Letter;
glyphname = xi;
kernLeft = GRK_xi;
kernRight = GRK_xi;
layers = (
{
anchors = (
{
name = center;
pos = (256,279);
}
);
layerId = "9FF96064-8718-4A86-A5C8-73C592101F67";
shapes = (
{
closed = 1;
nodes = (
(411,-202,l),
(435,-155,o),
(454,-115,o),
(454,-56,cs),
(454,-2,o),
(432,36,o),
(326,61,cs),
(195,92,o),
(145,115,o),
(145,210,cs),
(145,295,o),
(194,366,o),
(334,366,cs),
(445,366,l),
(445,433,l),
(337,433,ls),
(218,433,o),
(174,481,o),
(174,549,cs),
(174,664,o),
(292,698,o),
(431,698,cs),
(457,698,l),
(457,760,l),
(85,760,l),
(85,693,l),
(116,693,ls),
(161,693,o),
(212,696,o),
(237,699,c),
(157,676,o),
(89,636,o),
(89,542,cs),
(89,466,o),
(129,420,o),
(205,401,c),
(205,395,l),
(121,372,o),
(55,306,o),
(55,198,cs),
(55,73,o),
(134,21,o),
(281,-11,cs),
(360,-28,o),
(366,-49,o),
(366,-79,cs),
(366,-116,o),
(345,-160,o),
(324,-202,c)
);
}
);
width = 490;
}
);
metricLeft = "=c";
metricRight = "=c";
script = greek;
subCategory = Lowercase;
unicode = 958;
},
{
category = Letter;
glyphname = pi;
kernLeft = GRK_pi;
kernRight = GRK_pi;
layers = (
{
anchors = (
{
name = center;
pos = (323,263);
}
);
layerId = "9FF96064-8718-4A86-A5C8-73C592101F67";
shapes = (
{
closed = 1;
nodes = (
(581,-10,o),
(605,-3,o),
(616,3,c),
(616,72,l),
(606,67,o),
(590,62,o),
(572,62,cs),
(545,62,o),
(526,77,o),
(526,124,cs),
(526,468,l),
(631,468,l),
(631,536,l),
(16,536,l),
(16,468,l),
(125,468,l),
(125,0,l),
(212,0,l),
(212,468,l),
(439,468,l),
(439,118,ls),
(439,33,o),
(477,-10,o),
(550,-10,cs)
);
}
);
width = 653;
}
);
metricLeft = "=t";
metricRight = "=t";
script = greek;
subCategory = Lowercase;
unicode = 960;
},
{
category = Letter;
glyphname = rho;
kernLeft = GRK_mu;
kernRight = GRK_omicron;
layers = (
{
anchors = (
{
name = bottom;
pos = (294,-240);
},
{
name = center;
pos = (307,153);
},
{
name = top;
pos = (294,536);
}
);
layerId = "9FF96064-8718-4A86-A5C8-73C592101F67";
shapes = (
{
closed = 1;
nodes = (
(158,-240,l),
(158,-98,ls),
(158,-38,o),
(157,13,o),
(154,35,c),
(159,35,l),
(197,6,o),
(250,-10,o),
(304,-10,cs),
(444,-10,o),
(545,92,o),
(545,263,cs),
(545,443,o),
(454,546,o),
(298,546,cs),
(163,546,o),
(70,457,o),
(70,275,cs),
(70,-240,l)
);
},
{
closed = 1;
nodes = (
(249,63,o),
(197,79,o),
(159,112,c),
(159,274,ls),
(159,406,o),
(206,472,o),
(296,472,cs),
(399,472,o),
(454,405,o),
(454,263,cs),
(454,133,o),
(399,63,o),
(303,63,cs)
);
}
);
width = 600;
}
);
metricLeft = "=p-15";
metricRight = "=p";
script = greek;
subCategory = Lowercase;
unicode = 961;
},
{
category = Letter;
glyphname = sigma;
kernLeft = GRK_omicron;
kernRight = GRK_sigma;
layers = (
{
anchors = (
{
name = center;
pos = (318,263);
}
);
layerId = "9FF96064-8718-4A86-A5C8-73C592101F67";
shapes = (
{
closed = 1;
nodes = (
(457,-10,o),
(540,111,o),
(540,256,cs),
(540,352,o),
(511,419,o),
(460,468,c),
(582,468,l),
(582,536,l),
(340,536,ls),
(166,536,o),
(55,457,o),
(55,256,cs),
(55,83,o),
(151,-10,o),
(296,-10,cs)
);
},
{
closed = 1;
nodes = (
(189,63,o),
(144,143,o),
(144,256,cs),
(144,407,o),
(209,468,o),
(340,468,cs),
(375,468,l),
(427,410,o),
(452,340,o),
(452,254,cs),
(452,149,o),
(406,63,o),
(298,63,cs)
);
}
);
width = 614;
}
);
metricLeft = "=o";
metricRight = "=tau";
script = greek;
subCategory = Lowercase;
unicode = 963;
},
{
category = Letter;
glyphname = tau;
kernLeft = GRK_tau;
kernRight = GRK_tau;
layers = (
{
anchors = (
{
name = center;
pos = (237,262);
}
);
layerId = "9FF96064-8718-4A86-A5C8-73C592101F67";
shapes = (
{
closed = 1;
nodes = (
(371,-11,o),
(411,-3,o),
(430,5,c),
(430,71,l),
(409,65,o),
(374,60,o),
(345,60,cs),
(288,60,o),
(249,87,o),
(249,164,cs),
(249,468,l),
(458,468,l),
(458,536,l),
(16,536,l),
(16,468,l),
(160,468,l),
(160,155,ls),
(160,21,o),
(240,-11,o),
(332,-11,cs)
);
}
);
width = 490;
}
);
metricLeft = "=t";
metricRight = "=t+10";
script = greek;
subCategory = Lowercase;
unicode = 964;
},
{
category = Letter;
glyphname = upsilon;
kernLeft = GRK_upsilon;
kernRight = GRK_upsilon;
layers = (
{
anchors = (
{
name = bottom;
pos = (287,0);
},
{
name = center;
pos = (304,263);
},
{
name = top;
pos = (282,536);
}
);
layerId = "9FF96064-8718-4A86-A5C8-73C592101F67";
shapes = (
{
closed = 1;
nodes = (
(438,-10,o),
(529,85,o),
(529,292,cs),
(529,391,o),
(518,457,o),
(497,536,c),
(409,536,l),
(429,456,o),
(440,389,o),
(440,296,cs),
(440,136,o),
(385,62,o),
(289,62,cs),
(186,62,o),
(167,122,o),
(167,236,cs),
(167,536,l),
(79,536,l),
(79,233,ls),
(79,90,o),
(104,-10,o),
(282,-10,cs)
);
}
);
width = 598;
}
);
metricLeft = "=u";
metricRight = "=o+15";
script = greek;
subCategory = Lowercase;
unicode = 965;
},
{
category = Letter;
glyphname = phi;
kernLeft = GRK_omicron;
kernRight = GRK_omicron;
layers = (
{
anchors = (
{
name = center;
pos = (363,260);
}
);
layerId = "9FF96064-8718-4A86-A5C8-73C592101F67";
shapes = (
{
closed = 1;
nodes = (
(406,-240,l),
(406,-8,l),
(571,6,o),
(671,106,o),
(671,268,cs),
(671,430,o),
(565,529,o),
(406,544,c),
(406,760,l),
(320,760,l),
(320,544,l),
(151,531,o),
(55,431,o),
(55,268,cs),
(55,105,o),
(161,5,o),
(320,-8,c),
(320,-240,l)
);
},
{
closed = 1;
nodes = (
(198,74,o),
(147,145,o),
(147,268,cs),
(147,391,o),
(197,461,o),
(320,473,c),
(320,62,l)
);
},
{
closed = 1;
nodes = (
(406,472,l),
(524,459,o),
(580,390,o),
(580,268,cs),
(580,146,o),
(526,75,o),
(406,62,c)
);
}
);
width = 725;
}
);
metricLeft = "=o";
metricRight = "=o";
script = greek;
subCategory = Lowercase;
unicode = 966;
},
{
category = Letter;
glyphname = chi;
kernLeft = GRK_chi;
kernRight = GRK_chi;
layers = (
{
anchors = (
{
name = center;
pos = (302,149);
}
);
layerId = "9FF96064-8718-4A86-A5C8-73C592101F67";
shapes = (
{
closed = 1;
nodes = (
(552,-240,o),
(571,-236,o),
(586,-232,c),
(586,-164,l),
(574,-166,o),
(558,-168,o),
(541,-168,cs),
(492,-168,o),
(478,-136,o),
(449,-76,cs),
(201,439,ls),
(164,516,o),
(140,539,o),
(81,539,cs),
(53,539,o),
(43,535,o),
(29,531,c),
(29,462,l),
(38,466,o),
(50,468,o),
(62,468,cs),
(96,468,o),
(111,435,o),
(136,383,cs),
(379,-127,ls),
(417,-207,o),
(446,-240,o),
(524,-240,cs)
);
},
{
closed = 1;
nodes = (
(112,-240,l),
(314,90,l),
(279,171,l),
(18,-240,l)
);
},
{
closed = 1;
nodes = (
(586,536,l),
(492,536,l),
(296,180,l),
(331,99,l)
);
}
);
width = 594;
}
);
metricLeft = "=x";
metricRight = "=x";
script = greek;
subCategory = Lowercase;
unicode = 967;
},
{
category = Letter;
glyphname = psi;
kernLeft = GRK_upsilon;
kernRight = GRK_upsilon;
layers = (
{
anchors = (
{
name = center;
pos = (379,260);
}
);
layerId = "9FF96064-8718-4A86-A5C8-73C592101F67";
shapes = (
{
closed = 1;
nodes = (
(416,-240,l),
(416,-9,l),
(567,0,o),
(680,77,o),
(680,283,cs),
(680,371,o),
(670,446,o),
(649,536,c),
(562,536,l),
(583,443,o),
(594,372,o),
(594,280,cs),
(594,139,o),
(529,75,o),
(416,65,c),
(416,760,l),
(330,760,l),
(330,64,l),
(237,71,o),
(166,106,o),
(166,257,cs),
(166,536,l),
(79,536,l),
(79,260,ls),
(79,61,o),
(178,-3,o),
(330,-9,c),
(330,-240,l)
);
}
);
width = 749;
}
);
metricLeft = "=upsilon";
metricRight = "=upsilon";
script = greek;
subCategory = Lowercase;
unicode = 968;
},
{
category = Letter;
glyphname = omega;
kernLeft = GRK_omicron;
kernRight = GRK_omicron;
layers = (
{
anchors = (
{
name = bottom;
pos = (400,0);
},
{
name = center;
pos = (400,263);
},
{
name = top;
pos = (400,536);
}
);
layerId = "9FF96064-8718-4A86-A5C8-73C592101F67";
shapes = (
{
closed = 1;
nodes = (
(330,-10,o),
(376,21,o),
(397,100,c),
(402,100,l),
(424,21,o),
(470,-10,o),
(544,-10,cs),
(668,-10,o),
(735,99,o),
(735,260,cs),
(735,384,o),
(699,474,o),
(646,536,c),
(556,536,l),
(612,471,o),
(647,385,o),
(647,259,cs),
(647,130,o),
(604,63,o),
(537,63,cs),
(477,63,o),
(442,110,o),
(442,193,cs),
(442,354,l),
(358,354,l),
(358,193,ls),
(358,118,o),
(328,63,o),
(262,63,cs),
(196,63,o),
(153,130,o),
(153,259,cs),
(153,389,o),
(194,478,o),
(244,536,c),
(154,536,l),
(105,479,o),
(65,386,o),
(65,260,cs),
(65,99,o),
(132,-10,o),
(256,-10,cs)
);
}
);
width = 799;
}
);
metricLeft = "=o+10";
metricRight = "=o+10";
script = greek;
subCategory = Lowercase;
unicode = 969;
},
{
category = Letter;
glyphname = "Dje-cy";
kernLeft = "Te-cy";
kernRight = "Dje-cy";
layers = (
{
anchors = (
{
name = bottom;
pos = (358,0);
},
{
name = center;
pos = (325,352);
},
{
name = top;
pos = (358,714);
}
);
layerId = "9FF96064-8718-4A86-A5C8-73C592101F67";
shapes = (
{
closed = 1;
nodes = (
(580,-12,o),
(666,76,o),
(666,211,cs),
(666,214,ls),
(666,359,o),
(577,435,o),
(422,435,cs),
(357,435,o),
(298,421,o),
(248,400,c),
(271,389,l),
(270,635,l),
(518,635,l),
(518,714,l),
(10,714,l),
(10,635,l),
(181,635,l),
(182,0,l),
(271,0,l),
(271,374,l),
(243,323,l),
(302,347,o),
(363,358,o),
(414,358,cs),
(518,358,o),
(573,310,o),
(573,210,cs),
(573,209,ls),
(573,122,o),
(528,67,o),
(447,67,cs),
(423,67,o),
(399,69,o),
(366,77,c),
(366,1,l),
(387,-7,o),
(419,-12,o),
(450,-12,cs)
);
}
);
width = 716;
}
);
metricLeft = "Te-cy";
script = cyrillic;
subCategory = Uppercase;
unicode = 1026;
},
{
category = Letter;
glyphname = "E-cy";
kernLeft = "O-cy";
kernRight = "Es-cy";
layers = (
{
anchors = (
{
name = bottom;
pos = (329,0);
},
{
name = center;
pos = (344,357);
},
{
name = top;
pos = (329,714);
}
);
layerId = "9FF96064-8718-4A86-A5C8-73C592101F67";
shapes = (
{
closed = 1;
nodes = (
(464,-10,o),
(527,0,o),
(582,22,c),
(582,105,l),
(520,80,o),
(463,69,o),
(407,69,cs),
(242,69,o),
(154,173,o),
(156,361,c),
(117,327,l),
(506,327,l),
(506,406,l),
(118,406,l),
(156,373,l),
(162,545,o),
(250,645,o),
(403,645,cs),
(455,645,o),
(509,633,o),
(564,606,c),
(600,682,l),
(533,713,o),
(469,724,o),
(400,724,cs),
(187,724,o),
(61,583,o),
(61,355,cs),
(61,129,o),
(169,-10,o),
(396,-10,cs)
);
}
);
width = 631;
}
);
metricLeft = C;
metricRight = C;
script = cyrillic;
subCategory = Uppercase;
unicode = 1028;
},
{
category = Letter;
glyphname = "Lje-cy";
kernLeft = "El-cy";
kernRight = "Hardsign-cy";
layers = (
{
anchors = (
{
name = bottom;
pos = (502,0);
},
{
name = center;
pos = (483,351);
},
{
name = top;
pos = (502,714);
}
);
layerId = "9FF96064-8718-4A86-A5C8-73C592101F67";
shapes = (
{
closed = 1;
nodes = (
(159,-8,o),
(201,47,o),
(215,231,cs),
(227,388,o),
(232,499,o),
(238,635,c),
(498,635,l),
(498,0,l),
(676,0,ls),
(890,0,o),
(959,107,o),
(959,225,cs),
(959,359,o),
(878,438,o),
(690,438,cs),
(588,438,l),
(588,714,l),
(154,714,l),
(144,469,o),
(139,376,o),
(129,261,cs),
(117,117,o),
(102,82,o),
(42,82,cs),
(31,82,o),
(21,83,o),
(6,88,c),
(6,3,l),
(26,-5,o),
(45,-8,o),
(68,-8,cs)
);
},
{
closed = 1;
nodes = (
(588,361,l),
(682,361,ls),
(809,361,o),
(866,313,o),
(866,220,cs),
(866,123,o),
(803,77,o),
(670,77,cs),
(588,77,l)
);
}
);
width = 1010;
}
);
metricLeft = "El-cy";
metricRight = "Softsign-cy";
script = cyrillic;
subCategory = Uppercase;
unicode = 1033;
},
{
category = Letter;
glyphname = "Nje-cy";
kernLeft = "En-cy";
kernRight = "Hardsign-cy";
layers = (
{
anchors = (
{
name = bottom;
pos = (508,0);
},
{
name = center;
pos = (537,357);
},
{
name = top;
pos = (508,714);
}
);
layerId = "9FF96064-8718-4A86-A5C8-73C592101F67";
shapes = (
{
closed = 1;
nodes = (
(187,0,l),
(187,343,l),
(521,343,l),
(521,0,l),
(697,0,ls),
(909,0,o),
(978,107,o),
(978,217,cs),
(978,341,o),
(897,420,o),
(711,420,cs),
(611,420,l),
(611,714,l),
(521,714,l),
(521,420,l),
(187,420,l),
(187,714,l),
(97,714,l),
(97,0,l)
);
},
{
closed = 1;
nodes = (
(611,343,l),
(703,343,ls),
(828,343,o),
(885,295,o),
(885,212,cs),
(885,123,o),
(822,77,o),
(691,77,cs),
(611,77,l)
);
}
);
width = 1029;
}
);
metricLeft = H;
metricRight = "Softsign-cy";
script = cyrillic;
subCategory = Uppercase;
unicode = 1034;
},
{
category = Letter;
glyphname = "Tshe-cy";
kernLeft = "Te-cy";
kernRight = "Dje-cy";
layers = (
{
anchors = (
{
name = bottom;
pos = (354,0);
},
{
name = center;
pos = (321,357);
},
{
name = top;
pos = (354,714);
}
);
layerId = "9FF96064-8718-4A86-A5C8-73C592101F67";
shapes = (
{
closed = 1;
nodes = (
(271,0,l),
(271,372,l),
(241,321,l),
(307,347,o),
(360,358,o),
(415,358,cs),
(524,358,o),
(571,313,o),
(571,210,cs),
(571,0,l),
(660,0,l),
(660,210,ls),
(660,364,o),
(588,435,o),
(433,435,cs),
(370,435,o),
(306,424,o),
(245,400,c),
(271,367,l),
(271,635,l),
(518,635,l),
(518,714,l),
(10,714,l),
(10,635,l),
(182,635,l),
(182,0,l)
);
}
);
width = 715;
}
);
metricLeft = "Te-cy";
script = cyrillic;
subCategory = Uppercase;
unicode = 1035;
},
{
category = Letter;
glyphname = "Dzhe-cy";
kernLeft = "En-cy";
kernRight = "En-cy";
layers = (
{
anchors = (
{
name = bottom;
pos = (365,-158);
},
{
name = center;
pos = (365,263);
},
{
name = top;
pos = (365,714);
}
);
layerId = "9FF96064-8718-4A86-A5C8-73C592101F67";
shapes = (
{
closed = 1;
nodes = (
(408,-158,l),
(408,0,l),
(633,0,l),
(633,714,l),
(544,714,l),
(544,78,l),
(187,78,l),
(187,714,l),
(97,714,l),
(97,0,l),
(322,0,l),
(322,-158,l)
);
}
);
width = 731;
}
);
metricLeft = H;
metricRight = H;
script = cyrillic;
subCategory = Uppercase;
unicode = 1039;
},
{
category = Letter;
glyphname = "Be-cy";
kernLeft = "En-cy";
kernRight = "Be-cy";
layers = (
{
anchors = (
{
name = bottom;
pos = (312,0);
},
{
name = center;
pos = (334,357);
},
{
name = top;
pos = (312,714);
}
);
layerId = "9FF96064-8718-4A86-A5C8-73C592101F67";
shapes = (
{
closed = 1;
nodes = (
(292,0,ls),
(506,0,o),
(571,107,o),
(571,220,cs),
(571,350,o),
(493,428,o),
(306,428,cs),
(187,428,l),
(187,635,l),
(519,635,l),
(519,714,l),
(97,714,l),
(97,0,l)
);
},
{
closed = 1;
nodes = (
(187,351,l),
(298,351,ls),
(424,351,o),
(478,304,o),
(478,215,cs),
(478,123,o),
(419,77,o),
(286,77,cs),
(187,77,l)
);
}
);
width = 621;
}
);
metricLeft = H;
script = cyrillic;
subCategory = Uppercase;
unicode = 1041;
},
{
category = Letter;
glyphname = "Ge-cy";
kernLeft = "En-cy";
kernRight = "Te-cy";
layers = (
{
anchors = (
{
name = bottom;
pos = (262,0);
},
{
name = center;
pos = (298,357);
},
{
name = top;
pos = (305,714);
}
);
layerId = "9FF96064-8718-4A86-A5C8-73C592101F67";
shapes = (
{
closed = 1;
nodes = (
(187,0,l),
(187,635,l),
(486,635,l),
(486,714,l),
(97,714,l),
(97,0,l)
);
}
);
width = 509;
}
);
metricLeft = H;
script = cyrillic;
subCategory = Uppercase;
unicode = 1043;
},
{
category = Letter;
glyphname = "De-cy";
kernLeft = "De-cy";
kernRight = "De-cy";
layers = (
{
anchors = (
{
name = bottom;
pos = (343,-156);
},
{
name = center;
pos = (341,263);
},
{
name = top;
pos = (350,714);
}
);
layerId = "9FF96064-8718-4A86-A5C8-73C592101F67";
shapes = (
{
closed = 1;
nodes = (
(595,0,l),
(595,714,l),
(147,714,l),
(137,469,o),
(132,381,o),
(126,306,cs),
(117,197,o),
(100,129,o),
(68,72,c),
(167,71,l),
(190,120,o),
(205,192,o),
(212,290,cs),
(220,397,o),
(225,499,o),
(231,635,c),
(505,635,l),
(505,0,l)
);
},
{
closed = 1;
nodes = (
(92,-156,l),
(92,0,l),
(589,0,l),
(589,-156,l),
(675,-156,l),
(675,79,l),
(6,79,l),
(6,-156,l)
);
}
);
width = 685;
}
);
script = cyrillic;
subCategory = Uppercase;
unicode = 1044;
},
{
category = Letter;
glyphname = "Zhe-cy";
kernLeft = "Zhe-cy";
kernRight = "Zhe-cy";
layers = (
{
anchors = (
{
name = bottom;
pos = (460,0);
},
{
name = center;
pos = (460,357);
},
{
name = top;
pos = (460,714);
}
);
layerId = "9FF96064-8718-4A86-A5C8-73C592101F67";
shapes = (
{
closed = 1;
nodes = (
(909,0,l),
(661,388,l),
(661,369,l),
(890,714,l),
(795,714,l),
(577,386,l),
(577,361,l),
(807,0,l)
);
},
{
closed = 1;
nodes = (
(112,0,l),
(341,361,l),
(342,386,l),
(124,714,l),
(29,714,l),
(260,367,l),
(258,388,l),
(10,0,l)
);
},
{
closed = 1;
nodes = (
(503,0,l),
(503,714,l),
(416,714,l),
(416,0,l)
);
},
{
closed = 1;
nodes = (
(635,334,l),
(635,413,l),
(295,413,l),
(295,334,l)
);
}
);
width = 919;
}
);
metricLeft = "=|Ka-cy";
metricRight = "Ka-cy";
script = cyrillic;
subCategory = Uppercase;
unicode = 1046;
},
{
category = Letter;
glyphname = "Ze-cy";
kernLeft = "Ze-cy";
kernRight = "Ze-cy";
layers = (
{
anchors = (
{
name = bottom;
pos = (292,0);
},
{
name = center;
pos = (284,357);
},
{
name = top;
pos = (285,714);
}
);
layerId = "9FF96064-8718-4A86-A5C8-73C592101F67";
shapes = (
{
closed = 1;
nodes = (
(422,-10,o),
(527,65,o),
(527,197,cs),
(527,295,o),
(469,355,o),
(357,374,c),
(357,379,l),
(449,393,o),
(508,455,o),
(508,545,cs),
(508,658,o),
(420,726,o),
(258,726,cs),
(182,726,o),
(109,711,o),
(47,684,c),
(75,607,l),
(140,637,o),
(194,649,o),
(255,648,cs),
(361,646,o),
(415,606,o),
(415,534,cs),
(415,457,o),
(353,411,o),
(239,411,cs),
(130,411,l),
(130,334,l),
(239,334,ls),
(368,334,o),
(431,290,o),
(431,202,cs),
(431,112,o),
(367,68,o),
(238,68,cs),
(167,68,o),
(104,81,o),
(40,110,c),
(40,24,l),
(93,2,o),
(164,-10,o),
(239,-10,cs)
);
}
);
width = 586;
}
);
script = cyrillic;
subCategory = Uppercase;
unicode = 1047;
},
{
category = Letter;
glyphname = "Ii-cy";
kernLeft = "En-cy";
kernRight = "En-cy";
layers = (
{
anchors = (
{
name = bottom;
pos = (377,0);
},
{
name = center;
pos = (377,357);
},
{
name = top;
pos = (377,714);
}
);
layerId = "9FF96064-8718-4A86-A5C8-73C592101F67";
shapes = (
{
closed = 1;
nodes = (
(193,0,l),
(571,590,l),
(575,590,l),
(573,560,o),
(567,457,o),
(567,384,cs),
(567,0,l),
(657,0,l),
(657,714,l),
(558,714,l),
(184,130,l),
(180,130,l),
(183,161,o),
(187,262,o),
(187,329,cs),
(187,714,l),
(97,714,l),
(97,0,l)
);
}
);
width = 755;
}
);
metricLeft = H;
metricRight = H;
script = cyrillic;
subCategory = Uppercase;
unicode = 1048;
},
{
category = Letter;
glyphname = "Ka-cy";
kernLeft = "En-cy";
kernRight = "Zhe-cy";
layers = (
{
anchors = (
{
name = bottom;
pos = (308,0);
},
{
name = center;
pos = (356,357);
},
{
name = top;
pos = (335,714);
}
);
layerId = "9FF96064-8718-4A86-A5C8-73C592101F67";
shapes = (
{
closed = 1;
nodes = (
(615,0,l),
(359,389,l),
(359,370,l),
(595,714,l),
(498,714,l),
(273,385,l),
(273,361,l),
(511,0,l)
);
},
{
closed = 1;
nodes = (
(187,0,l),
(187,714,l),
(97,714,l),
(97,0,l)
);
},
{
closed = 1;
nodes = (
(331,334,l),
(331,413,l),
(167,413,l),
(167,334,l)
);
}
);
width = 625;
}
);
metricLeft = H;
script = cyrillic;
subCategory = Uppercase;
unicode = 1050;
},
{
category = Letter;
glyphname = "El-cy";
kernLeft = "El-cy";
kernRight = "En-cy";
layers = (
{
anchors = (
{
name = bottom;
pos = (352,0);
},
{
name = center;
pos = (304,351);
},
{
name = top;
pos = (352,714);
}
);
layerId = "9FF96064-8718-4A86-A5C8-73C592101F67";
shapes = (
{
closed = 1;
nodes = (
(159,-8,o),
(201,47,o),
(215,231,cs),
(227,388,o),
(232,499,o),
(238,635,c),
(507,635,l),
(507,0,l),
(597,0,l),
(597,714,l),
(154,714,l),
(144,469,o),
(139,376,o),
(129,261,cs),
(117,117,o),
(102,82,o),
(42,82,cs),
(31,82,o),
(21,83,o),
(6,88,c),
(6,3,l),
(26,-5,o),
(45,-8,o),
(68,-8,cs)
);
}
);
width = 695;
}
);
metricRight = H;
script = cyrillic;
subCategory = Uppercase;
unicode = 1051;
},
{
category = Letter;
glyphname = "Pe-cy";
kernLeft = "En-cy";
kernRight = "En-cy";
layers = (
{
anchors = (
{
name = bottom;
pos = (368,0);
},
{
name = center;
pos = (368,357);
},
{
name = top;
pos = (368,714);
}
);
layerId = "9FF96064-8718-4A86-A5C8-73C592101F67";
shapes = (
{
closed = 1;
nodes = (
(187,0,l),
(187,635,l),
(549,635,l),
(549,0,l),
(638,0,l),
(638,714,l),
(97,714,l),
(97,0,l)
);
}
);
width = 736;
}
);
metricLeft = H;
metricRight = H;
script = cyrillic;
subCategory = Uppercase;
unicode = 1055;
},
{
category = Letter;
glyphname = "U-cy";
kernLeft = "U-cy";
kernRight = "U-cy";
layers = (
{
anchors = (
{
name = bottom;
pos = (303,0);
},
{
name = center;
pos = (308,352);
},
{
name = top;
pos = (317,714);
}
);
layerId = "9FF96064-8718-4A86-A5C8-73C592101F67";
shapes = (
{
closed = 1;
nodes = (
(269,-11,o),
(324,59,o),
(388,203,cs),
(616,714,l),
(520,714,l),
(348,318,ls),
(342,304,o),
(334,280,o),
(329,266,c),
(325,266,l),
(318,284,o),
(308,307,o),
(301,321,cs),
(105,714,l),
(5,714,l),
(295,144,l),
(294,218,l),
(250,109,o),
(213,75,o),
(146,75,cs),
(119,75,o),
(102,78,o),
(81,82,c),
(81,0,l),
(102,-7,o),
(127,-11,o),
(154,-11,cs)
);
}
);
width = 616;
}
);
script = cyrillic;
subCategory = Uppercase;
unicode = 1059;
},
{
category = Letter;
glyphname = "Ef-cy";
kernLeft = "Ef-cy";
kernRight = "Ef-cy";
layers = (
{
anchors = (
{
name = bottom;
pos = (430,0);
},
{
name = center;
pos = (430,357);
},
{
name = top;
pos = (430,714);
}
);
layerId = "9FF96064-8718-4A86-A5C8-73C592101F67";
shapes = (
{
closed = 1;
nodes = (
(474,-23,l),
(474,71,l),
(687,75,o),
(798,185,o),
(798,361,cs),
(798,538,o),
(688,645,o),
(474,648,c),
(474,734,l),
(385,734,l),
(385,648,l),
(172,645,o),
(61,537,o),
(61,361,cs),
(61,186,o),
(173,75,o),
(385,71,c),
(385,-23,l)
);
},
{
closed = 1;
nodes = (
(226,150,o),
(155,228,o),
(155,361,cs),
(155,495,o),
(225,570,o),
(387,574,c),
(387,145,l)
);
},
{
closed = 1;
nodes = (
(472,574,l),
(635,570,o),
(704,496,o),
(704,362,cs),
(704,228,o),
(633,150,o),
(472,145,c)
);
}
);
width = 859;
}
);
metricLeft = O;
metricRight = O;
script = cyrillic;
subCategory = Uppercase;
unicode = 1060;
},
{
category = Letter;
glyphname = "Tse-cy";
kernLeft = "En-cy";
kernRight = "De-cy";
layers = (
{
anchors = (
{
name = bottom;
pos = (364,-156);
},
{
name = center;
pos = (364,263);
},
{
name = top;
pos = (364,714);
}
);
layerId = "9FF96064-8718-4A86-A5C8-73C592101F67";
shapes = (
{
closed = 1;
nodes = (
(710,-156,l),
(710,79,l),
(630,79,l),
(630,714,l),
(541,714,l),
(541,79,l),
(187,79,l),
(187,714,l),
(97,714,l),
(97,0,l),
(624,0,l),
(624,-156,l)
);
}
);
width = 720;
}
);
metricLeft = H;
metricRight = "De-cy";
script = cyrillic;
subCategory = Uppercase;
unicode = 1062;
},
{
category = Letter;
glyphname = "Che-cy";
kernLeft = "Che-cy";
kernRight = "En-cy";
layers = (
{
anchors = (
{
name = bottom;
pos = (324,0);
},
{
name = center;
pos = (324,357);
},
{
name = top;
pos = (324,714);
}
);
layerId = "9FF96064-8718-4A86-A5C8-73C592101F67";
shapes = (
{
closed = 1;
nodes = (
(586,0,l),
(586,714,l),
(496,714,l),
(496,337,l),
(521,388,l),
(458,359,o),
(388,345,o),
(317,345,cs),
(205,345,o),
(158,384,o),
(158,488,cs),
(158,714,l),
(68,714,l),
(68,474,ls),
(68,334,o),
(145,266,o),
(307,266,cs),
(380,266,o),
(447,278,o),
(527,309,c),
(496,340,l),
(496,0,l)
);
}
);
width = 684;
}
);
metricRight = H;
script = cyrillic;
subCategory = Uppercase;
unicode = 1063;
},
{
category = Letter;
glyphname = "Sha-cy";
kernLeft = "En-cy";
kernRight = "En-cy";
layers = (
{
anchors = (
{
name = bottom;
pos = (518,0);
},
{
name = center;
pos = (518,357);
},
{
name = top;
pos = (518,714);
}
);
layerId = "9FF96064-8718-4A86-A5C8-73C592101F67";
shapes = (
{
closed = 1;
nodes = (
(939,0,l),
(939,714,l),
(849,714,l),
(849,79,l),
(563,79,l),
(563,714,l),
(473,714,l),
(473,79,l),
(187,79,l),
(187,714,l),
(97,714,l),
(97,0,l)
);
}
);
width = 1037;
}
);
metricLeft = H;
metricRight = H;
script = cyrillic;
subCategory = Uppercase;
unicode = 1064;
},
{
category = Letter;
glyphname = "Shcha-cy";
kernLeft = "En-cy";
kernRight = "De-cy";
layers = (
{
anchors = (
{
name = bottom;
pos = (519,-156);
},
{
name = center;
pos = (519,357);
},
{
name = top;
pos = (519,714);
}
);
layerId = "9FF96064-8718-4A86-A5C8-73C592101F67";
shapes = (
{
closed = 1;
nodes = (
(1038,-156,l),
(1038,79,l),
(941,79,l),
(941,714,l),
(851,714,l),
(851,79,l),
(564,79,l),
(564,714,l),
(474,714,l),
(474,79,l),
(187,79,l),
(187,714,l),
(97,714,l),
(97,0,l),
(952,0,l),
(952,-156,l)
);
}
);
width = 1048;
}
);
metricLeft = H;
metricRight = "De-cy";
script = cyrillic;
subCategory = Uppercase;
unicode = 1065;
},
{
category = Letter;
glyphname = "Hardsign-cy";
kernLeft = "Te-cy";
kernRight = "Hardsign-cy";
layers = (
{
anchors = (
{
name = bottom;
pos = (342,0);
},
{
name = center;
pos = (320,357);
},
{
name = top;
pos = (342,714);
}
);
layerId = "9FF96064-8718-4A86-A5C8-73C592101F67";
shapes = (
{
closed = 1;
nodes = (
(354,0,ls),
(568,0,o),
(637,107,o),
(637,225,cs),
(637,359,o),
(556,438,o),
(368,438,cs),
(266,438,l),
(266,714,l),
(10,714,l),
(10,635,l),
(176,635,l),
(176,0,l)
);
},
{
closed = 1;
nodes = (
(266,361,l),
(360,361,ls),
(487,361,o),
(544,313,o),
(544,220,cs),
(544,123,o),
(481,77,o),
(348,77,cs),
(266,77,l)
);
}
);
width = 688;
}
);
metricLeft = "Te-cy";
metricRight = "Softsign-cy";
script = cyrillic;
subCategory = Uppercase;
unicode = 1066;
},
{
category = Letter;
glyphname = "Softsign-cy";
kernLeft = "En-cy";
kernRight = "Hardsign-cy";
layers = (
{
anchors = (
{
name = bottom;
pos = (301,0);
},
{
name = center;
pos = (324,357);
},
{
name = top;
pos = (301,714);
}
);
layerId = "9FF96064-8718-4A86-A5C8-73C592101F67";
shapes = (
{
closed = 1;
nodes = (
(275,0,ls),
(489,0,o),
(558,107,o),
(558,225,cs),
(558,359,o),
(477,438,o),
(289,438,cs),
(187,438,l),
(187,714,l),
(97,714,l),
(97,0,l)
);
},
{
closed = 1;
nodes = (
(187,361,l),
(281,361,ls),
(408,361,o),
(465,313,o),
(465,220,cs),
(465,123,o),
(402,77,o),
(269,77,cs),
(187,77,l)
);
}
);
width = 609;
}
);
metricLeft = H;
script = cyrillic;
subCategory = Uppercase;
unicode = 1068;
},
{
category = Letter;
glyphname = "Ereversed-cy";
kernLeft = "Ze-cy";
kernRight = "O-cy";
layers = (
{
anchors = (
{
name = bottom;
pos = (324,0);
},
{
name = center;
pos = (307,357);
},
{
name = top;
pos = (243,714);
}
);
layerId = "9FF96064-8718-4A86-A5C8-73C592101F67";
shapes = (
{
closed = 1;
nodes = (
(474,-10,o),
(587,137,o),
(587,369,cs),
(587,574,o),
(476,725,o),
(247,725,cs),
(174,725,o),
(103,709,o),
(46,684,c),
(75,606,l),
(139,634,o),
(192,647,o),
(248,646,cs),
(392,646,o),
(492,550,o),
(493,362,cs),
(494,166,o),
(407,69,o),
(228,69,cs),
(175,69,o),
(115,81,o),
(52,105,c),
(52,22,l),
(110,0,o),
(166,-10,o),
(240,-10,cs)
);
},
{
closed = 1;
nodes = (
(508,327,l),
(507,406,l),
(142,406,l),
(142,327,l)
);
}
);
width = 647;
}
);
script = cyrillic;
subCategory = Uppercase;
unicode = 1069;
},
{
category = Letter;
glyphname = "Iu-cy";
kernLeft = "En-cy";
kernRight = "O-cy";
layers = (
{
anchors = (
{
name = bottom;
pos = (525,0);
},
{
name = center;
pos = (525,357);
},
{
name = top;
pos = (525,714);
},
{
name = topright;
pos = (966,714);
}
);
layerId = "9FF96064-8718-4A86-A5C8-73C592101F67";
shapes = (
{
closed = 1;
nodes = (
(839,-10,o),
(953,129,o),
(953,358,cs),
(953,588,o),
(839,725,o),
(636,725,cs),
(440,725,o),
(334,607,o),
(318,412,c),
(187,412,l),
(187,714,l),
(97,714,l),
(97,0,l),
(187,0,l),
(187,333,l),
(316,333,l),
(324,119,o),
(431,-10,o),
(635,-10,cs)
);
},
{
closed = 1;
nodes = (
(485,68,o),
(411,170,o),
(411,358,cs),
(411,546,o),
(485,646,o),
(636,646,cs),
(786,646,o),
(858,546,o),
(858,358,cs),
(858,170,o),
(786,68,o),
(635,68,cs)
);
}
);
width = 1014;
}
);
metricLeft = H;
metricRight = O;
script = cyrillic;
subCategory = Uppercase;
unicode = 1070;
},
{
category = Letter;
glyphname = "Ia-cy";
kernLeft = "Ia-cy";
kernRight = "En-cy";
layers = (
{
anchors = (
{
name = bottom;
pos = (326,0);
},
{
name = center;
pos = (288,357);
},
{
name = top;
pos = (326,714);
}
);
layerId = "9FF96064-8718-4A86-A5C8-73C592101F67";
shapes = (
{
closed = 1;
nodes = (
(133,0,l),
(318,291,l),
(455,291,l),
(455,0,l),
(545,0,l),
(545,714,l),
(336,714,ls),
(161,714,o),
(70,645,o),
(70,506,cs),
(70,402,o),
(123,334,o),
(227,305,c),
(30,0,l)
);
},
{
closed = 1;
nodes = (
(223,367,o),
(163,411,o),
(163,505,cs),
(163,597,o),
(219,637,o),
(338,637,cs),
(455,637,l),
(455,367,l),
(343,367,ls)
);
}
);
width = 643;
}
);
metricRight = H;
script = cyrillic;
subCategory = Uppercase;
unicode = 1071;
},
{
category = Letter;
glyphname = "be-cy";
kernLeft = "be-cy";
kernRight = "o-cy";
layers = (
{
anchors = (
{
name = bottom;
pos = (299,0);
},
{
name = center;
pos = (300,377);
},
{
name = top;
pos = (299,765);
}
);
layerId = "9FF96064-8718-4A86-A5C8-73C592101F67";
shapes = (
{
closed = 1;
nodes = (
(451,-10,o),
(549,97,o),
(549,266,cs),
(549,436,o),
(459,525,o),
(322,525,cs),
(240,525,o),
(176,492,o),
(144,443,c),
(139,443,l),
(158,585,o),
(208,645,o),
(333,667,cs),
(369,674,o),
(448,684,o),
(513,691,c),
(505,770,l),
(438,763,o),
(362,752,o),
(328,746,cs),
(137,715,o),
(54,590,o),
(53,328,cs),
(54,103,o),
(141,-10,o),
(300,-10,cs)
);
},
{
closed = 1;
nodes = (
(205,63,o),
(148,137,o),
(148,268,cs),
(148,392,o),
(200,454,o),
(302,454,cs),
(406,454,o),
(456,389,o),
(456,265,cs),
(456,136,o),
(399,63,o),
(302,63,cs)
);
}
);
width = 597;
}
);
script = cyrillic;
subCategory = Lowercase;
unicode = 1073;
},
{
category = Letter;
glyphname = "ve-cy";
kernLeft = "en-cy";
kernRight = "ze-cy";
layers = (
{
anchors = (
{
name = bottom;
pos = (280,0);
},
{
name = center;
pos = (301,268);
},
{
name = top;
pos = (280,536);
}
);
layerId = "9FF96064-8718-4A86-A5C8-73C592101F67";
shapes = (
{
closed = 1;
nodes = (
(298,0,ls),
(437,0,o),
(517,54,o),
(517,151,cs),
(517,224,o),
(471,271,o),
(393,281,c),
(393,285,l),
(462,300,o),
(499,339,o),
(499,402,cs),
(499,489,o),
(428,536,o),
(298,536,cs),
(85,536,l),
(85,0,l)
);
},
{
closed = 1;
nodes = (
(173,241,l),
(294,241,ls),
(387,241,o),
(426,216,o),
(426,157,cs),
(426,97,o),
(386,72,o),
(294,72,cs),
(173,72,l)
);
},
{
closed = 1;
nodes = (
(173,464,l),
(294,464,ls),
(371,464,o),
(410,440,o),
(410,388,cs),
(410,336,o),
(371,312,o),
(294,312,cs),
(173,312,l)
);
}
);
width = 563;
}
);
metricLeft = "en-cy";
script = cyrillic;
subCategory = Lowercase;
unicode = 1074;
},
{
category = Letter;
glyphname = "ge-cy";
kernLeft = "en-cy";
kernRight = "te-cy";
layers = (
{
anchors = (
{
name = bottom;
pos = (220,0);
},
{
name = center;
pos = (251,268);
},
{
name = top;
pos = (252,536);
}
);
layerId = "9FF96064-8718-4A86-A5C8-73C592101F67";
shapes = (
{
closed = 1;
nodes = (
(173,0,l),
(173,462,l),
(417,462,l),
(417,536,l),
(85,536,l),
(85,0,l)
);
}
);
width = 438;
}
);
metricLeft = "en-cy";
script = cyrillic;
subCategory = Lowercase;
unicode = 1075;
},
{
category = Letter;
color = 0;
glyphname = "de-cy";
kernLeft = "de-cy";
kernRight = "de-cy";
layers = (
{
anchors = (
{
name = bottom;
pos = (297,-136);
},
{
name = center;
pos = (287,175);
},
{
name = top;
pos = (288,536);
}
);
layerId = "9FF96064-8718-4A86-A5C8-73C592101F67";
shapes = (
{
closed = 1;
nodes = (
(488,0,l),
(488,536,l),
(119,536,l),
(114,418,ls),
(104,192,o),
(89,115,o),
(50,63,c),
(143,63,l),
(173,120,o),
(186,210,o),
(195,417,cs),
(197,462,l),
(400,462,l),
(400,0,l)
);
},
{
closed = 1;
nodes = (
(89,-136,l),
(89,0,l),
(484,0,l),
(484,-136,l),
(569,-136,l),
(569,73,l),
(4,73,l),
(4,-136,l)
);
}
);
width = 579;
}
);
script = cyrillic;
subCategory = Lowercase;
unicode = 1076;
},
{
category = Letter;
glyphname = "zhe-cy";
kernLeft = "zhe-cy";
kernRight = "zhe-cy";
layers = (
{
anchors = (
{
name = bottom;
pos = (380,0);
},
{
name = center;
pos = (380,268);
},
{
name = top;
pos = (380,536);
}
);
layerId = "9FF96064-8718-4A86-A5C8-73C592101F67";
shapes = (
{
closed = 1;
nodes = (
(751,0,l),
(542,314,l),
(546,252,l),
(738,536,l),
(646,536,l),
(474,277,l),
(475,269,l),
(651,0,l)
);
},
{
closed = 1;
nodes = (
(108,0,l),
(284,269,l),
(285,277,l),
(113,536,l),
(21,536,l),
(213,252,l),
(217,314,l),
(8,0,l)
);
},
{
closed = 1;
nodes = (
(422,0,l),
(422,536,l),
(337,536,l),
(337,0,l)
);
},
{
closed = 1;
nodes = (
(514,237,l),
(514,310,l),
(245,310,l),
(245,237,l)
);
}
);
width = 759;
}
);
metricLeft = "=|ka-cy";
metricRight = "ka-cy";
script = cyrillic;
subCategory = Lowercase;
unicode = 1078;
},
{
category = Letter;
glyphname = "ze-cy";
kernLeft = "ze-cy";
kernRight = "ze-cy";
layers = (
{
anchors = (
{
name = bottom;
pos = (246,0);
},
{
name = center;
pos = (240,268);
},
{
name = top;
pos = (235,536);
}
);
layerId = "9FF96064-8718-4A86-A5C8-73C592101F67";
shapes = (
{
closed = 1;
nodes = (
(367,-10,o),
(448,49,o),
(448,148,cs),
(448,223,o),
(402,271,o),
(324,281,c),
(324,285,l),
(394,300,o),
(434,342,o),
(434,405,cs),
(434,494,o),
(358,546,o),
(229,546,cs),
(158,546,o),
(92,530,o),
(40,508,c),
(68,438,l),
(129,463,o),
(176,474,o),
(225,474,cs),
(304,474,o),
(345,447,o),
(345,393,cs),
(345,339,o),
(303,312,o),
(223,312,cs),
(113,312,l),
(113,241,l),
(223,241,ls),
(314,241,o),
(357,213,o),
(357,154,cs),
(357,94,o),
(313,62,o),
(214,62,cs),
(153,62,o),
(92,74,o),
(35,104,c),
(35,24,l),
(79,2,o),
(142,-10,o),
(213,-10,cs)
);
}
);
width = 496;
}
);
script = cyrillic;
subCategory = Lowercase;
unicode = 1079;
},
{
category = Letter;
glyphname = "ii-cy";
kernLeft = "en-cy";
kernRight = "en-cy";
layers = (
{
anchors = (
{
name = bottom;
pos = (311,0);
},
{
name = center;
pos = (310,268);
},
{
name = top;
pos = (319,536);
}
);
layerId = "9FF96064-8718-4A86-A5C8-73C592101F67";
shapes = (
{
closed = 1;
nodes = (
(194,0,l),
(453,437,l),
(454,437,l),
(452,411,o),
(450,343,o),
(450,312,cs),
(450,0,l),
(537,0,l),
(537,536,l),
(426,536,l),
(167,98,l),
(166,98,l),
(168,125,o),
(172,190,o),
(172,215,cs),
(172,536,l),
(85,536,l),
(85,0,l)
);
}
);
width = 622;
}
);
metricLeft = "en-cy";
metricRight = "en-cy";
script = cyrillic;
subCategory = Lowercase;
unicode = 1080;
},
{
category = Letter;
glyphname = "ka-cy";
kernLeft = "en-cy";
kernRight = "zhe-cy";
layers = (
{
anchors = (
{
name = bottom;
pos = (265,0);
},
{
name = center;
pos = (365,274);
},
{
name = top;
pos = (279,536);
}
);
layerId = "9FF96064-8718-4A86-A5C8-73C592101F67";
shapes = (
{
closed = 1;
nodes = (
(523,0,l),
(309,314,l),
(313,252,l),
(510,536,l),
(418,536,l),
(239,277,l),
(240,269,l),
(423,0,l)
);
},
{
closed = 1;
nodes = (
(173,0,l),
(173,536,l),
(85,536,l),
(85,0,l)
);
},
{
closed = 1;
nodes = (
(271,237,l),
(271,311,l),
(167,311,l),
(167,237,l)
);
}
);
width = 531;
}
);
metricLeft = "en-cy";
script = cyrillic;
subCategory = Lowercase;
unicode = 1082;
},
{
category = Letter;
color = 0;
glyphname = "el-cy";
kernLeft = "el-cy";
kernRight = "en-cy";
layers = (
{
layerId = "9FF96064-8718-4A86-A5C8-73C592101F67";
shapes = (
{
closed = 1;
nodes = (
(85,-7,o),
(112,3,o),
(134,25,cs),
(172,63,o),
(193,127,o),
(205,395,cs),
(208,462,l),
(408,462,l),
(408,0,l),
(496,0,l),
(496,536,l),
(130,536,l),
(124,396,ls),
(114,155,o),
(101,113,o),
(77,89,cs),
(66,78,o),
(55,74,o),
(39,74,cs),
(35,74,o),
(30,74,o),
(26,75,c),
(26,-4,l),
(34,-6,o),
(43,-7,o),
(53,-7,cs)
);
}
);
width = 581;
}
);
metricRight = "en-cy";
script = cyrillic;
subCategory = Lowercase;
unicode = 1083;
},
{
category = Letter;
glyphname = "em-cy";
kernLeft = "en-cy";
kernRight = "en-cy";
layers = (
{
anchors = (
{
name = bottom;
pos = (383,0);
},
{
name = center;
pos = (383,273);
},
{
name = top;
pos = (383,546);
}
);
layerId = "9FF96064-8718-4A86-A5C8-73C592101F67";
shapes = (
{
closed = 1;
nodes = (
(166,0,l),
(166,339,ls),
(166,371,o),
(165,401,o),
(163,431,c),
(166,431,l),
(343,0,l),
(418,0,l),
(600,431,l),
(603,431,l),
(600,401,o),
(598,370,o),
(598,342,cs),
(598,0,l),
(681,0,l),
(681,536,l),
(563,536,l),
(365,68,l),
(399,67,l),
(206,536,l),
(85,536,l),
(85,0,l)
);
}
);
width = 766;
}
);
metricLeft = "en-cy";
metricRight = "en-cy";
script = cyrillic;
subCategory = Lowercase;
unicode = 1084;
},
{
category = Letter;
glyphname = "en-cy";
kernLeft = "en-cy";
kernRight = "en-cy";
layers = (
{
anchors = (
{
name = bottom;
pos = (305,0);
},
{
name = center;
pos = (305,268);
},
{
name = top;
pos = (305,536);
}
);
layerId = "9FF96064-8718-4A86-A5C8-73C592101F67";
shapes = (
{
closed = 1;
nodes = (
(173,0,l),
(173,239,l),
(437,239,l),
(437,0,l),
(525,0,l),
(525,536,l),
(437,536,l),
(437,313,l),
(173,313,l),
(173,536,l),
(85,536,l),
(85,0,l)
);
}
);
width = 610;
}
);
metricLeft = n;
metricRight = "=|n";
script = cyrillic;
subCategory = Lowercase;
unicode = 1085;
},
{
category = Letter;
glyphname = "pe-cy";
kernLeft = "en-cy";
kernRight = "en-cy";
layers = (
{
anchors = (
{
name = bottom;
pos = (303,0);
},
{
name = center;
pos = (303,268);
},
{
name = top;
pos = (303,536);
}
);
layerId = "9FF96064-8718-4A86-A5C8-73C592101F67";
shapes = (
{
closed = 1;
nodes = (
(173,0,l),
(173,462,l),
(433,462,l),
(433,0,l),
(521,0,l),
(521,536,l),
(85,536,l),
(85,0,l)
);
}
);
width = 606;
}
);
metricLeft = "en-cy";
metricRight = "en-cy";
script = cyrillic;
subCategory = Lowercase;
unicode = 1087;
},
{
category = Letter;
glyphname = "te-cy";
kernLeft = "te-cy";
kernRight = "te-cy";
layers = (
{
anchors = (
{
name = bottom;
pos = (234,0);
},
{
name = center;
pos = (234,268);
},
{
name = top;
pos = (234,536);
}
);
layerId = "9FF96064-8718-4A86-A5C8-73C592101F67";
shapes = (
{
closed = 1;
nodes = (
(277,0,l),
(277,462,l),
(453,462,l),
(453,536,l),
(14,536,l),
(14,462,l),
(190,462,l),
(190,0,l)
);
}
);
width = 467;
}
);
script = cyrillic;
subCategory = Lowercase;
unicode = 1090;
},
{
category = Letter;
glyphname = "ef-cy";
kernLeft = "o-cy";
kernRight = "o-cy";
layers = (
{
anchors = (
{
name = bottom;
pos = (374,-240);
},
{
name = top;
pos = (374,760);
}
);
layerId = "9FF96064-8718-4A86-A5C8-73C592101F67";
shapes = (
{
closed = 1;
nodes = (
(396,-15,ls),
(588,-15,o),
(697,87,o),
(697,265,cs),
(697,443,o),
(587,546,o),
(391,546,cs),
(358,546,ls),
(162,546,o),
(52,443,o),
(52,265,cs),
(52,87,o),
(161,-15,o),
(353,-15,cs)
);
},
{
closed = 1;
nodes = (
(417,-240,l),
(417,15,l),
(416,28,l),
(416,504,l),
(417,523,l),
(417,760,l),
(331,760,l),
(331,523,l),
(333,504,l),
(333,28,l),
(331,15,l),
(331,-240,l)
);
},
{
closed = 1;
nodes = (
(214,57,o),
(145,125,o),
(145,265,cs),
(145,405,o),
(214,474,o),
(360,474,cs),
(388,474,ls),
(535,474,o),
(604,405,o),
(604,265,cs),
(604,125,o),
(535,57,o),
(389,57,cs),
(359,57,ls)
);
}
);
width = 748;
}
);
metricLeft = "=o-3";
metricRight = "=o-3";
script = cyrillic;
subCategory = Lowercase;
unicode = 1092;
},
{
category = Letter;
glyphname = "tse-cy";
kernLeft = "en-cy";
kernRight = "de-cy";
layers = (
{
anchors = (
{
name = bottom;
pos = (301,-136);
},
{
name = center;
pos = (301,175);
},
{
name = top;
pos = (301,536);
}
);
layerId = "9FF96064-8718-4A86-A5C8-73C592101F67";
shapes = (
{
closed = 1;
nodes = (
(598,-136,l),
(598,73,l),
(517,73,l),
(517,536,l),
(429,536,l),
(429,74,l),
(173,74,l),
(173,536,l),
(85,536,l),
(85,0,l),
(513,0,l),
(513,-136,l)
);
}
);
width = 608;
}
);
metricLeft = "en-cy";
metricRight = "de-cy";
script = cyrillic;
subCategory = Lowercase;
unicode = 1094;
},
{
category = Letter;
glyphname = "che-cy";
kernLeft = "che-cy";
kernRight = "en-cy";
layers = (
{
anchors = (
{
name = bottom;
pos = (269,0);
},
{
name = center;
pos = (269,268);
},
{
name = top;
pos = (269,536);
}
);
layerId = "9FF96064-8718-4A86-A5C8-73C592101F67";
shapes = (
{
closed = 1;
nodes = (
(484,0,l),
(484,536,l),
(396,536,l),
(396,253,l),
(421,304,l),
(368,278,o),
(313,266,o),
(261,266,cs),
(179,266,o),
(142,299,o),
(142,380,cs),
(142,536,l),
(54,536,l),
(54,370,ls),
(54,249,o),
(119,192,o),
(248,192,cs),
(301,192,o),
(355,200,o),
(422,224,c),
(396,262,l),
(396,0,l)
);
}
);
width = 569;
}
);
metricRight = "en-cy";
script = cyrillic;
subCategory = Lowercase;
unicode = 1095;
},
{
category = Letter;
glyphname = "sha-cy";
kernLeft = "en-cy";
kernRight = "en-cy";
layers = (
{
anchors = (
{
name = bottom;
pos = (447,0);
},
{
name = center;
pos = (447,268);
},
{
name = top;
pos = (447,536);
}
);
layerId = "9FF96064-8718-4A86-A5C8-73C592101F67";
shapes = (
{
closed = 1;
nodes = (
(809,0,l),
(809,536,l),
(721,536,l),
(721,74,l),
(491,74,l),
(491,536,l),
(403,536,l),
(403,74,l),
(173,74,l),
(173,536,l),
(85,536,l),
(85,0,l)
);
}
);
width = 894;
}
);
metricLeft = "en-cy";
metricRight = "en-cy";
script = cyrillic;
subCategory = Lowercase;
unicode = 1096;
},
{
category = Letter;
glyphname = "shcha-cy";
kernLeft = "en-cy";
kernRight = "de-cy";
layers = (
{
anchors = (
{
name = bottom;
pos = (447,0);
},
{
name = center;
pos = (447,268);
},
{
name = top;
pos = (447,536);
}
);
layerId = "9FF96064-8718-4A86-A5C8-73C592101F67";
shapes = (
{
closed = 1;
nodes = (
(892,-136,l),
(892,73,l),
(809,73,l),
(809,536,l),
(721,536,l),
(721,74,l),
(491,74,l),
(491,536,l),
(403,536,l),
(403,74,l),
(173,74,l),
(173,536,l),
(85,536,l),
(85,0,l),
(807,0,l),
(807,-136,l)
);
}
);
width = 902;
}
);
metricLeft = "en-cy";
metricRight = "de-cy";
script = cyrillic;
subCategory = Lowercase;
unicode = 1097;
},
{
category = Letter;
glyphname = "hardsign-cy";
kernLeft = "te-cy";
kernRight = "hardsign-cy";
layers = (
{
anchors = (
{
name = bottom;
pos = (317,0);
},
{
name = center;
pos = (299,268);
},
{
name = top;
pos = (317,536);
}
);
layerId = "9FF96064-8718-4A86-A5C8-73C592101F67";
shapes = (
{
closed = 1;
nodes = (
(356,0,ls),
(500,0,o),
(577,63,o),
(577,173,cs),
(577,282,o),
(502,338,o),
(356,338,cs),
(250,338,l),
(250,536,l),
(14,536,l),
(14,462,l),
(162,462,l),
(162,0,l)
);
},
{
closed = 1;
nodes = (
(250,265,l),
(356,265,ls),
(446,265,o),
(486,235,o),
(486,173,cs),
(486,106,o),
(444,73,o),
(356,73,cs),
(250,73,l)
);
}
);
width = 622;
}
);
metricLeft = "te-cy";
script = cyrillic;
subCategory = Lowercase;
unicode = 1098;
},
{
category = Letter;
glyphname = "yeru-cy";
kernLeft = "en-cy";
kernRight = "en-cy";
layers = (
{
anchors = (
{
name = bottom;
pos = (380,0);
},
{
name = center;
pos = (380,268);
},
{
name = top;
pos = (380,536);
}
);
layerId = "9FF96064-8718-4A86-A5C8-73C592101F67";
shapes = (
{
closed = 1;
nodes = (
(276,1,ls),
(420,1,o),
(497,64,o),
(497,176,cs),
(497,285,o),
(422,341,o),
(276,341,cs),
(173,341,l),
(173,537,l),
(85,537,l),
(85,1,l)
);
},
{
closed = 1;
nodes = (
(173,268,l),
(276,268,ls),
(366,268,o),
(406,239,o),
(406,175,cs),
(406,108,o),
(364,74,o),
(276,74,cs),
(173,74,l)
);
},
{
closed = 1;
nodes = (
(674,1,l),
(674,537,l),
(586,537,l),
(586,1,l)
);
}
);
width = 759;
}
);
metricLeft = "en-cy";
metricRight = "en-cy";
script = cyrillic;
subCategory = Lowercase;
unicode = 1099;
},
{
category = Letter;
glyphname = "softsign-cy";
kernLeft = "en-cy";
kernRight = "hardsign-cy";
layers = (
{
anchors = (
{
name = bottom;
pos = (297,0);
},
{
name = center;
pos = (313,268);
},
{
name = top;
pos = (297,536);
}
);
layerId = "9FF96064-8718-4A86-A5C8-73C592101F67";
shapes = (
{
closed = 1;
nodes = (
(279,0,ls),
(423,0,o),
(500,63,o),
(500,172,cs),
(500,282,o),
(425,338,o),
(279,338,cs),
(173,338,l),
(173,536,l),
(85,536,l),
(85,0,l)
);
},
{
closed = 1;
nodes = (
(173,265,l),
(279,265,ls),
(369,265,o),
(409,235,o),
(409,170,cs),
(409,106,o),
(367,73,o),
(279,73,cs),
(173,73,l)
);
}
);
width = 545;
}
);
metricLeft = "en-cy";
script = cyrillic;
subCategory = Lowercase;
unicode = 1100;
},
{
category = Letter;
glyphname = "ereversed-cy";
kernLeft = "ze-cy";
kernRight = "o-cy";
layers = (
{
anchors = (
{
name = bottom;
pos = (257,0);
},
{
name = center;
pos = (244,268);
},
{
name = top;
pos = (217,536);
}
);
layerId = "9FF96064-8718-4A86-A5C8-73C592101F67";
shapes = (
{
closed = 1;
nodes = (
(350,-10,o),
(446,92,o),
(446,267,cs),
(446,448,o),
(349,546,o),
(194,546,cs),
(144,546,o),
(87,535,o),
(42,516,c),
(68,445,l),
(107,462,o),
(152,472,o),
(190,472,cs),
(296,472,o),
(357,401,o),
(357,266,cs),
(357,130,o),
(298,64,o),
(183,64,cs),
(137,64,o),
(86,73,o),
(41,92,c),
(41,19,l),
(75,2,o),
(131,-10,o),
(189,-10,cs)
);
},
{
closed = 1;
nodes = (
(398,240,l),
(398,312,l),
(95,312,l),
(95,240,l)
);
}
);
width = 494;
}
);
script = cyrillic;
subCategory = Lowercase;
unicode = 1101;
},
{
category = Letter;
glyphname = "iu-cy";
kernLeft = "en-cy";
kernRight = "o-cy";
layers = (
{
anchors = (
{
name = bottom;
pos = (428,0);
},
{
name = center;
pos = (428,268);
},
{
name = top;
pos = (428,536);
}
);
layerId = "9FF96064-8718-4A86-A5C8-73C592101F67";
shapes = (
{
closed = 1;
nodes = (
(674,-10,o),
(771,89,o),
(771,269,cs),
(771,448,o),
(669,546,o),
(526,546,cs),
(387,546,o),
(296,464,o),
(281,313,c),
(173,313,l),
(173,536,l),
(85,536,l),
(85,0,l),
(173,0,l),
(173,239,l),
(280,239,l),
(291,78,o),
(391,-10,o),
(523,-10,cs)
);
},
{
closed = 1;
nodes = (
(418,63,o),
(370,141,o),
(370,269,cs),
(370,397,o),
(417,472,o),
(524,472,cs),
(631,472,o),
(680,397,o),
(680,269,cs),
(680,141,o),
(631,63,o),
(525,63,cs)
);
}
);
width = 825;
}
);
metricLeft = "en-cy";
metricRight = o;
script = cyrillic;
subCategory = Lowercase;
unicode = 1102;
},
{
category = Letter;
glyphname = "ia-cy";
kernLeft = "ia-cy";
kernRight = "en-cy";
layers = (
{
anchors = (
{
name = bottom;
pos = (298,0);
},
{
name = center;
pos = (263,268);
},
{
name = top;
pos = (298,536);
}
);
layerId = "9FF96064-8718-4A86-A5C8-73C592101F67";
shapes = (
{
closed = 1;
nodes = (
(136,0,l),
(277,197,l),
(395,197,l),
(395,0,l),
(483,0,l),
(483,536,l),
(252,536,ls),
(132,536,o),
(63,478,o),
(62,370,cs),
(61,281,o),
(119,214,o),
(219,203,c),
(210,241,l),
(35,0,l)
);
},
{
closed = 1;
nodes = (
(195,269,o),
(152,309,o),
(153,369,cs),
(154,435,o),
(190,463,o),
(263,463,cs),
(395,463,l),
(395,269,l),
(280,269,ls)
);
}
);
width = 568;
}
);
metricRight = "en-cy";
script = cyrillic;
subCategory = Lowercase;
unicode = 1103;
},
{
category = Letter;
glyphname = "dje-cy";
kernLeft = "dje-cy";
kernRight = "dje-cy";
layers = (
{
anchors = (
{
name = bottom;
pos = (309,-240);
},
{
name = center;
pos = (273,260);
},
{
name = top;
pos = (309,760);
}
);
layerId = "9FF96064-8718-4A86-A5C8-73C592101F67";
shapes = (
{
closed = 1;
nodes = (
(492,-240,o),
(537,-179,o),
(537,-61,cs),
(537,329,ls),
(537,466,o),
(471,526,o),
(342,526,cs),
(272,526,o),
(208,498,o),
(174,443,c),
(168,443,l),
(171,464,o),
(173,491,o),
(173,517,cs),
(173,604,l),
(385,604,l),
(385,670,l),
(173,670,l),
(173,760,l),
(85,760,l),
(85,670,l),
(9,670,l),
(9,604,l),
(85,604,l),
(85,0,l),
(173,0,l),
(173,258,ls),
(173,383,o),
(210,452,o),
(330,452,cs),
(411,452,o),
(449,409,o),
(449,323,cs),
(449,-69,ls),
(449,-142,o),
(426,-167,o),
(367,-167,cs),
(337,-167,o),
(313,-163,o),
(289,-155,c),
(289,-228,l),
(310,-236,o),
(337,-240,o),
(369,-240,cs)
);
}
);
width = 618;
}
);
metricLeft = hbar;
metricRight = h;
script = cyrillic;
subCategory = Lowercase;
unicode = 1106;
},
{
category = Letter;
glyphname = "e-cy";
kernLeft = "o-cy";
kernRight = "es-cy";
layers = (
{
anchors = (
{
name = bottom;
pos = (247,0);
},
{
name = center;
pos = (257,268);
},
{
name = top;
pos = (247,536);
}
);
layerId = "9FF96064-8718-4A86-A5C8-73C592101F67";
shapes = (
{
closed = 1;
nodes = (
(362,-10,o),
(412,-1,o),
(446,14,c),
(446,88,l),
(404,72,o),
(359,64,o),
(319,64,cs),
(202,64,o),
(145,131,o),
(145,264,cs),
(145,399,o),
(204,473,o),
(313,473,cs),
(358,473,o),
(390,465,o),
(432,446,c),
(459,515,l),
(420,536,o),
(365,547,o),
(313,547,cs),
(151,547,o),
(55,441,o),
(55,263,cs),
(55,86,o),
(150,-10,o),
(310,-10,cs)
);
},
{
closed = 1;
nodes = (
(407,240,l),
(407,312,l),
(104,312,l),
(104,240,l)
);
}
);
width = 500;
}
);
metricLeft = c;
script = cyrillic;
subCategory = Lowercase;
unicode = 1108;
},
{
category = Letter;
glyphname = "lje-cy";
kernLeft = "el-cy";
kernRight = "hardsign-cy";
layers = (
{
anchors = (
{
name = bottom;
pos = (427,0);
},
{
name = center;
pos = (415,264);
},
{
name = top;
pos = (427,536);
}
);
layerId = "9FF96064-8718-4A86-A5C8-73C592101F67";
shapes = (
{
closed = 1;
nodes = (
(152,-7,o),
(183,41,o),
(194,182,cs),
(202,285,o),
(207,364,o),
(210,462,c),
(396,462,l),
(396,0,l),
(590,0,ls),
(734,0,o),
(811,63,o),
(811,172,cs),
(811,282,o),
(736,338,o),
(590,338,cs),
(484,338,l),
(484,536,l),
(133,536,l),
(126,351,o),
(120,281,o),
(113,195,cs),
(105,98,o),
(93,74,o),
(49,74,cs),
(40,74,o),
(31,75,o),
(18,79,c),
(18,5,l),
(36,-3,o),
(53,-7,o),
(74,-7,cs)
);
},
{
closed = 1;
nodes = (
(484,265,l),
(590,265,ls),
(680,265,o),
(720,235,o),
(720,170,cs),
(720,106,o),
(678,73,o),
(590,73,cs),
(484,73,l)
);
}
);
width = 856;
}
);
metricLeft = "el-cy";
metricRight = "softsign-cy";
script = cyrillic;
subCategory = Lowercase;
unicode = 1113;
},
{
category = Letter;
glyphname = "nje-cy";
kernLeft = "en-cy";
kernRight = "hardsign-cy";
layers = (
{
anchors = (
{
name = bottom;
pos = (463,0);
},
{
name = center;
pos = (463,268);
},
{
name = top;
pos = (463,536);
}
);
layerId = "9FF96064-8718-4A86-A5C8-73C592101F67";
shapes = (
{
closed = 1;
nodes = (
(173,0,l),
(173,252,l),
(429,252,l),
(429,0,l),
(623,0,ls),
(766,0,o),
(840,63,o),
(840,166,cs),
(840,269,o),
(768,325,o),
(623,325,cs),
(517,325,l),
(517,536,l),
(429,536,l),
(429,325,l),
(173,325,l),
(173,536,l),
(85,536,l),
(85,0,l)
);
},
{
closed = 1;
nodes = (
(517,252,l),
(623,252,ls),
(712,252,o),
(749,222,o),
(749,164,cs),
(749,106,o),
(710,73,o),
(623,73,cs),
(517,73,l)
);
}
);
width = 885;
}
);
metricLeft = "en-cy";
metricRight = "softsign-cy";
script = cyrillic;
subCategory = Lowercase;
unicode = 1114;
},
{
category = Letter;
glyphname = "dzhe-cy";
kernLeft = "en-cy";
kernRight = "en-cy";
layers = (
{
anchors = (
{
name = bottom;
pos = (303,-140);
},
{
name = center;
pos = (303,175);
},
{
name = top;
pos = (303,536);
}
);
layerId = "9FF96064-8718-4A86-A5C8-73C592101F67";
shapes = (
{
closed = 1;
nodes = (
(345,-140,l),
(345,0,l),
(521,0,l),
(521,536,l),
(433,536,l),
(433,74,l),
(173,74,l),
(173,536,l),
(85,536,l),
(85,0,l),
(261,0,l),
(261,-140,l)
);
}
);
width = 606;
}
);
metricLeft = "en-cy";
metricRight = "en-cy";
script = cyrillic;
subCategory = Lowercase;
unicode = 1119;
},
{
category = Letter;
glyphname = "Gheupturn-cy";
kernLeft = "Nje-cy";
kernRight = "Ge-cy";
layers = (
{
anchors = (
{
name = bottom;
pos = (266,0);
},
{
name = center;
pos = (303,430);
},
{
name = top;
pos = (266,861);
}
);
layerId = "9FF96064-8718-4A86-A5C8-73C592101F67";
shapes = (
{
closed = 1;
nodes = (
(425,861,l),
(425,714,l),
(97,714,l),
(97,0,l),
(187,0,l),
(187,634,l),
(509,634,l),
(509,861,l)
);
}
);
width = 532;
}
);
script = cyrillic;
subCategory = Uppercase;
unicode = 1168;
},
{
category = Letter;
glyphname = "gheupturn-cy";
kernLeft = "ve-cy";
kernRight = "ge-cy";
layers = (
{
anchors = (
{
name = bottom;
pos = (218,0);
},
{
name = center;
pos = (249,346);
},
{
name = top;
pos = (218,692);
}
);
layerId = "9FF96064-8718-4A86-A5C8-73C592101F67";
shapes = (
{
closed = 1;
nodes = (
(328,692,l),
(328,536,l),
(85,536,l),
(85,0,l),
(173,0,l),
(173,468,l),
(414,468,l),
(414,692,l)
);
}
);
width = 436;
}
);
script = cyrillic;
subCategory = Lowercase;
unicode = 1169;
},
{
category = Punctuation;
glyphname = endash;
kernLeft = hyphen.right;
kernRight = hyphen.left;
layers = (
{
layerId = "9FF96064-8718-4A86-A5C8-73C592101F67";
shapes = (
{
closed = 1;
nodes = (
(460,229,l),
(460,307,l),
(40,307,l),
(40,229,l)
);
}
);
width = 500;
}
);
script = "";
subCategory = Dash;
unicode = 8211;
},
{
category = Punctuation;
glyphname = emdash;
kernLeft = hyphen.right;
kernRight = hyphen.left;
layers = (
{
layerId = "9FF96064-8718-4A86-A5C8-73C592101F67";
shapes = (
{
closed = 1;
nodes = (
(960,229,l),
(960,307,l),
(40,307,l),
(40,229,l)
);
}
);
width = 1000;
}
);
script = "";
subCategory = Dash;
unicode = 8212;
},
{
category = Punctuation;
glyphname = underscoredbl;
layers = (
{
layerId = "9FF96064-8718-4A86-A5C8-73C592101F67";
shapes = (
{
closed = 1;
nodes = (
(413,-158,l),
(-2,-158,l),
(-2,-222,l),
(413,-222,l)
);
},
{
closed = 1;
nodes = (
(413,-26,l),
(-2,-26,l),
(-2,-90,l),
(413,-90,l)
);
}
);
width = 411;
}
);
script = "";
subCategory = Other;
unicode = 8215;
},
{
category = Punctuation;
glyphname = quoteleft;
kernLeft = quoteleft;
kernRight = quote.left;
layers = (
{
layerId = "9FF96064-8718-4A86-A5C8-73C592101F67";
shapes = (
{
closed = 1;
nodes = (
(18,469,l),
(113,469,l),
(123,538,o),
(144,638,o),
(163,714,c),
(98,714,l),
(66,643,o),
(30,550,o),
(12,480,c)
);
}
);
width = 175;
}
);
script = "";
subCategory = Quote;
unicode = 8216;
},
{
category = Punctuation;
glyphname = quoteright;
kernLeft = quote.right;
kernRight = quote.left;
layers = (
{
layerId = "9FF96064-8718-4A86-A5C8-73C592101F67";
shapes = (
{
closed = 1;
nodes = (
(156,714,l),
(62,714,l),
(52,644,o),
(31,544,o),
(12,469,c),
(77,469,l),
(109,540,o),
(145,633,o),
(163,703,c)
);
}
);
width = 175;
}
);
script = "";
subCategory = Quote;
unicode = 8217;
},
{
category = Punctuation;
glyphname = quotereversed;
layers = (
{
layerId = "9FF96064-8718-4A86-A5C8-73C592101F67";
shapes = (
{
closed = 1;
nodes = (
(19,714,l),
(12,703,l),
(30,633,o),
(66,540,o),
(99,469,c),
(164,469,l),
(145,544,o),
(124,644,o),
(114,714,c)
);
}
);
width = 175;
}
);
script = "";
subCategory = Quote;
unicode = 8219;
},
{
category = Punctuation;
glyphname = quotedblleft;
kernLeft = quoteleft;
kernRight = quote.left;
layers = (
{
layerId = "9FF96064-8718-4A86-A5C8-73C592101F67";
shapes = (
{
closed = 1;
nodes = (
(282,714,l),
(249,642,o),
(213,550,o),
(195,480,c),
(202,469,l),
(297,469,l),
(307,538,o),
(328,637,o),
(347,714,c)
);
},
{
closed = 1;
nodes = (
(98,714,l),
(65,642,o),
(30,550,o),
(12,480,c),
(18,469,l),
(112,469,l),
(122,538,o),
(143,637,o),
(162,714,c)
);
}
);
width = 359;
}
);
script = "";
subCategory = Quote;
unicode = 8220;
},
{
category = Punctuation;
glyphname = quotedblright;
kernLeft = quote.right;
kernRight = quote.left;
layers = (
{
layerId = "9FF96064-8718-4A86-A5C8-73C592101F67";
shapes = (
{
closed = 1;
nodes = (
(340,714,l),
(246,714,l),
(236,644,o),
(214,544,o),
(195,469,c),
(261,469,l),
(293,540,o),
(329,632,o),
(347,703,c)
);
},
{
closed = 1;
nodes = (
(155,714,l),
(61,714,l),
(51,644,o),
(31,544,o),
(12,469,c),
(76,469,l),
(108,540,o),
(144,632,o),
(162,703,c)
);
}
);
width = 359;
}
);
script = "";
subCategory = Quote;
unicode = 8221;
},
{
category = Symbol;
glyphname = dagger;
layers = (
{
layerId = "9FF96064-8718-4A86-A5C8-73C592101F67";
shapes = (
{
closed = 1;
nodes = (
(448,571,l),
(277,556,l),
(302,760,l),
(202,760,l),
(226,556,l),
(65,571,l),
(65,484,l),
(226,499,l),
(202,0,l),
(302,0,l),
(277,499,l),
(448,484,l)
);
}
);
width = 512;
}
);
script = "";
subCategory = Other;
unicode = 8224;
},
{
category = Symbol;
glyphname = daggerdbl;
layers = (
{
layerId = "9FF96064-8718-4A86-A5C8-73C592101F67";
shapes = (
{
closed = 1;
nodes = (
(302,384,l),
(281,519,l),
(452,504,l),
(452,589,l),
(281,574,l),
(305,760,l),
(204,760,l),
(228,574,l),
(60,589,l),
(60,504,l),
(228,519,l),
(207,384,l),
(228,241,l),
(60,256,l),
(60,171,l),
(228,185,l),
(204,0,l),
(305,0,l),
(281,185,l),
(452,171,l),
(452,256,l),
(281,241,l)
);
}
);
width = 512;
}
);
script = "";
subCategory = Other;
unicode = 8225;
},
{
category = Punctuation;
glyphname = bullet;
layers = (
{
layerId = "9FF96064-8718-4A86-A5C8-73C592101F67";
shapes = (
{
closed = 1;
nodes = (
(77,277,o),
(125,241,o),
(188,241,cs),
(250,241,o),
(299,277,o),
(299,365,cs),
(299,455,o),
(250,489,o),
(188,489,cs),
(125,489,o),
(77,455,o),
(77,365,cs)
);
}
);
width = 376;
}
);
script = "";
subCategory = Other;
unicode = 8226;
},
{
category = Symbol;
glyphname = perthousand;
layers = (
{
layerId = "9FF96064-8718-4A86-A5C8-73C592101F67";
shapes = (
{
closed = 1;
nodes = (
(94,724,o),
(49,642,o),
(49,501,cs),
(49,360,o),
(100,276,o),
(195,276,cs),
(298,276,o),
(345,360,o),
(345,501,cs),
(345,642,o),
(293,724,o),
(195,724,cs)
);
},
{
closed = 1;
nodes = (
(247,662,o),
(272,608,o),
(272,501,cs),
(272,393,o),
(247,339,o),
(195,339,cs),
(144,339,o),
(122,394,o),
(122,501,cs),
(122,608,o),
(144,662,o),
(195,662,cs)
);
},
{
closed = 1;
nodes = (
(575,714,l),
(179,0,l),
(256,0,l),
(652,714,l)
);
},
{
closed = 1;
nodes = (
(531,438,o),
(486,356,o),
(486,215,cs),
(486,74,o),
(537,-10,o),
(632,-10,cs),
(735,-10,o),
(782,74,o),
(782,215,cs),
(782,356,o),
(729,438,o),
(632,438,cs)
);
},
{
closed = 1;
nodes = (
(684,375,o),
(709,322,o),
(709,215,cs),
(709,106,o),
(684,53,o),
(632,53,cs),
(581,53,o),
(559,107,o),
(559,215,cs),
(559,322,o),
(581,375,o),
(632,375,cs)
);
},
{
closed = 1;
nodes = (
(877,438,o),
(832,356,o),
(832,215,cs),
(832,74,o),
(883,-10,o),
(978,-10,cs),
(1081,-10,o),
(1128,74,o),
(1128,215,cs),
(1128,356,o),
(1075,438,o),
(978,438,cs)
);
},
{
closed = 1;
nodes = (
(1030,375,o),
(1055,322,o),
(1055,215,cs),
(1055,106,o),
(1030,53,o),
(978,53,cs),
(927,53,o),
(905,107,o),
(905,215,cs),
(905,322,o),
(927,375,o),
(978,375,cs)
);
}
);
width = 1177;
}
);
script = "";
subCategory = Math;
unicode = 8240;
},
{
category = Symbol;
glyphname = minute;
layers = (
{
layerId = "9FF96064-8718-4A86-A5C8-73C592101F67";
shapes = (
{
closed = 1;
nodes = (
(39,456,l),
(97,456,l),
(258,714,l),
(168,714,l)
);
}
);
width = 232;
}
);
metricLeft = second;
metricRight = second;
script = "";
subCategory = Other;
unicode = 8242;
},
{
category = Punctuation;
glyphname = guilsinglleft;
kernLeft = guillemetleft;
kernRight = guillemetleft;
layers = (
{
layerId = "9FF96064-8718-4A86-A5C8-73C592101F67";
shapes = (
{
closed = 1;
nodes = (
(40,257,l),
(208,56,l),
(271,93,l),
(131,264,l),
(271,435,l),
(208,471,l),
(40,270,l)
);
}
);
width = 310;
}
);
script = "";
subCategory = Quote;
unicode = 8249;
},
{
category = Punctuation;
glyphname = guilsinglright;
kernLeft = guillemetright;
kernRight = guillemetright;
layers = (
{
layerId = "9FF96064-8718-4A86-A5C8-73C592101F67";
shapes = (
{
closed = 1;
nodes = (
(39,435,l),
(179,264,l),
(39,93,l),
(101,56,l),
(270,257,l),
(270,270,l),
(101,471,l)
);
}
);
width = 310;
}
);
script = "";
subCategory = Quote;
unicode = 8250;
},
{
category = Number;
glyphname = fraction;
layers = (
{
layerId = "9FF96064-8718-4A86-A5C8-73C592101F67";
shapes = (
{
closed = 1;
nodes = (
(245,714,l),
(-191,0,l),
(-116,0,l),
(320,714,l)
);
}
);
width = 130;
}
);
script = "";
subCategory = Fraction;
unicode = 8260;
},
{
category = Symbol;
glyphname = franc;
layers = (
{
layerId = "9FF96064-8718-4A86-A5C8-73C592101F67";
shapes = (
{
closed = 1;
nodes = (
(217,0,l),
(217,130,l),
(368,130,l),
(368,195,l),
(217,195,l),
(217,305,l),
(498,305,l),
(498,384,l),
(217,384,l),
(217,635,l),
(517,635,l),
(517,714,l),
(130,714,l),
(130,195,l),
(45,195,l),
(45,130,l),
(130,130,l),
(130,0,l)
);
}
);
width = 572;
}
);
script = "";
subCategory = Currency;
unicode = 8355;
},
{
category = Symbol;
glyphname = lira;
layers = (
{
layerId = "9FF96064-8718-4A86-A5C8-73C592101F67";
shapes = (
{
closed = 1;
nodes = (
(192,723,o),
(133,640,o),
(133,503,cs),
(133,437,l),
(36,437,l),
(36,372,l),
(133,372,l),
(133,294,l),
(36,294,l),
(36,228,l),
(133,228,l),
(133,134,o),
(95,87,o),
(33,74,c),
(33,0,l),
(536,0,l),
(536,80,l),
(152,80,l),
(192,101,o),
(220,141,o),
(220,228,c),
(423,228,l),
(423,294,l),
(221,294,l),
(221,372,l),
(423,372,l),
(423,437,l),
(221,437,l),
(221,525,ls),
(221,613,o),
(266,649,o),
(337,649,cs),
(391,649,o),
(441,634,o),
(482,615,c),
(513,684,l),
(468,706,o),
(410,723,o),
(336,723,cs)
);
}
);
width = 572;
}
);
script = "";
subCategory = Currency;
unicode = 8356;
},
{
category = Symbol;
glyphname = peseta;
layers = (
{
layerId = "9FF96064-8718-4A86-A5C8-73C592101F67";
shapes = (
{
closed = 1;
nodes = (
(76,714,l),
(76,0,l),
(163,0,l),
(163,278,l),
(194,278,ls),
(398,278,o),
(461,384,o),
(461,504,cs),
(461,637,o),
(387,714,o),
(210,714,cs)
);
},
{
closed = 1;
nodes = (
(319,637,o),
(372,592,o),
(372,500,cs),
(372,396,o),
(312,355,o),
(189,355,cs),
(163,355,l),
(163,637,l),
(204,637,l)
);
},
{
closed = 1;
nodes = (
(567,517,l),
(536,422,l),
(458,386,l),
(458,346,l),
(535,346,l),
(535,127,ls),
(535,34,o),
(581,-10,o),
(654,-10,cs),
(696,-10,o),
(725,-2,o),
(741,6,c),
(741,71,l),
(727,66,o),
(695,61,o),
(675,61,cs),
(634,61,o),
(618,89,o),
(618,138,cs),
(618,346,l),
(728,346,l),
(728,413,l),
(618,413,l),
(618,517,l)
);
}
);
width = 776;
}
);
script = "";
subCategory = Currency;
unicode = 8359;
},
{
category = Symbol;
glyphname = euro;
layers = (
{
layerId = "9FF96064-8718-4A86-A5C8-73C592101F67";
shapes = (
{
closed = 1;
nodes = (
(221,723,o),
(127,619,o),
(102,455,c),
(23,455,l),
(23,390,l),
(95,390,l),
(95,382,o),
(94,366,o),
(94,352,cs),
(94,335,o),
(94,327,o),
(95,311,c),
(23,311,l),
(23,246,l),
(103,246,l),
(132,88,o),
(221,-10,o),
(383,-10,cs),
(447,-10,o),
(496,4,o),
(537,22,c),
(537,100,l),
(495,82,o),
(440,68,o),
(388,68,cs),
(279,68,o),
(215,133,o),
(192,246,c),
(405,246,l),
(405,311,l),
(184,311,l),
(183,325,o),
(183,340,o),
(183,352,c),
(183,365,o),
(183,377,o),
(184,390,c),
(435,390,l),
(435,455,l),
(191,455,l),
(216,584,o),
(280,646,o),
(380,646,cs),
(432,646,o),
(485,625,o),
(522,605,c),
(559,677,l),
(504,709,o),
(447,723,o),
(380,723,cs)
);
}
);
width = 572;
}
);
script = "";
subCategory = Currency;
unicode = 8364;
},
{
category = Symbol;
glyphname = careof;
layers = (
{
layerId = "9FF96064-8718-4A86-A5C8-73C592101F67";
shapes = (
{
closed = 1;
nodes = (
(563,714,l),
(167,0,l),
(244,0,l),
(640,714,l)
);
},
{
closed = 1;
nodes = (
(756,272,o),
(689,331,o),
(603,331,cs),
(510,331,o),
(448,272,o),
(448,163,cs),
(448,55,o),
(513,-5,o),
(600,-5,cs),
(694,-5,o),
(756,55,o),
(756,163,cs)
);
},
{
closed = 1;
nodes = (
(517,232,o),
(540,277,o),
(602,277,cs),
(662,277,o),
(686,232,o),
(686,163,cs),
(686,96,o),
(662,49,o),
(602,49,cs),
(540,49,o),
(517,96,o),
(517,163,cs)
);
},
{
closed = 1;
nodes = (
(268,383,o),
(305,390,o),
(330,402,c),
(330,454,l),
(304,444,o),
(272,437,o),
(237,437,cs),
(167,437,o),
(134,475,o),
(134,550,cs),
(134,626,o),
(168,664,o),
(239,664,cs),
(264,664,o),
(295,657,o),
(318,649,c),
(335,701,l),
(311,711,o),
(276,719,o),
(240,719,cs),
(143,719,o),
(65,672,o),
(65,549,cs),
(65,433,o),
(139,383,o),
(236,383,cs)
);
}
);
width = 821;
}
);
script = "";
subCategory = Other;
unicode = 8453;
},
{
category = Symbol;
glyphname = literSign;
layers = (
{
layerId = "9FF96064-8718-4A86-A5C8-73C592101F67";
shapes = (
{
closed = 1;
nodes = (
(255,58,o),
(230,100,o),
(230,167,cs),
(230,302,l),
(338,348,o),
(419,447,o),
(419,577,cs),
(419,670,o),
(369,724,o),
(292,724,cs),
(188,724,o),
(148,657,o),
(148,576,cs),
(148,337,l),
(119,327,o),
(88,317,o),
(54,308,c),
(54,249,l),
(86,257,o),
(118,266,o),
(148,277,c),
(148,164,ls),
(148,34,o),
(220,-10,o),
(302,-10,cs),
(399,-10,o),
(449,52,o),
(454,161,c),
(403,161,l),
(397,84,o),
(358,58,o),
(311,58,cs)
);
},
{
closed = 1;
nodes = (
(352,478,o),
(310,408,o),
(230,366,c),
(230,574,ls),
(230,629,o),
(241,666,o),
(292,666,cs),
(332,666,o),
(352,635,o),
(352,574,cs)
);
}
);
width = 520;
}
);
script = "";
subCategory = Other;
unicode = 8467;
},
{
category = Symbol;
glyphname = numero;
layers = (
{
layerId = "9FF96064-8718-4A86-A5C8-73C592101F67";
shapes = (
{
closed = 1;
nodes = (
(174,0,l),
(174,396,ls),
(174,449,o),
(169,538,o),
(166,590,c),
(170,590,l),
(499,0,l),
(597,0,l),
(597,714,l),
(518,714,l),
(518,314,ls),
(518,264,o),
(522,177,o),
(525,126,c),
(521,126,l),
(196,714,l),
(95,714,l),
(95,0,l)
);
},
{
closed = 1;
nodes = (
(949,0,l),
(949,69,l),
(692,69,l),
(692,0,l)
);
},
{
closed = 1;
nodes = (
(913,134,o),
(972,194,o),
(972,304,cs),
(972,414,o),
(908,473,o),
(823,473,cs),
(729,473,o),
(672,413,o),
(672,304,cs),
(672,194,o),
(734,134,o),
(820,134,cs)
);
},
{
closed = 1;
nodes = (
(763,192,o),
(739,231,o),
(739,304,cs),
(739,378,o),
(764,413,o),
(822,413,cs),
(880,413,o),
(904,378,o),
(904,304,cs),
(904,231,o),
(880,192,o),
(822,192,cs)
);
}
);
width = 1020;
}
);
script = "";
subCategory = Other;
unicode = 8470;
},
{
category = Symbol;
glyphname = trademark;
layers = (
{
layerId = "9FF96064-8718-4A86-A5C8-73C592101F67";
shapes = (
{
closed = 1;
nodes = (
(385,362,l),
(385,571,ls),
(385,579,o),
(383,612,o),
(382,633,c),
(386,633,l),
(482,362,l),
(535,362,l),
(636,633,l),
(640,633,l),
(639,617,o),
(637,577,o),
(637,566,cs),
(637,362,l),
(701,362,l),
(701,714,l),
(610,714,l),
(513,443,l),
(419,714,l),
(325,714,l),
(325,362,l)
);
},
{
closed = 1;
nodes = (
(181,362,l),
(181,660,l),
(283,660,l),
(283,714,l),
(17,714,l),
(17,660,l),
(118,660,l),
(118,362,l)
);
}
);
width = 773;
}
);
script = "";
subCategory = Other;
unicode = 8482;
},
{
category = Symbol;
glyphname = estimated;
layers = (
{
layerId = "9FF96064-8718-4A86-A5C8-73C592101F67";
shapes = (
{
closed = 1;
nodes = (
(433,-17,o),
(490,45,o),
(537,119,c),
(502,139,l),
(457,67,o),
(406,25,o),
(309,25,cs),
(249,25,o),
(193,54,o),
(164,85,c),
(164,259,l),
(568,259,l),
(568,429,o),
(456,535,o),
(309,535,cs),
(186,535,o),
(50,451,o),
(50,259,cs),
(50,115,o),
(140,-17,o),
(309,-17,cs)
);
},
{
closed = 1;
nodes = (
(455,301,l),
(164,301,l),
(164,437,l),
(195,467,o),
(242,494,o),
(308,494,cs),
(377,494,o),
(430,462,o),
(455,436,c)
);
}
);
width = 619;
}
);
script = "";
subCategory = Other;
unicode = 8494;
},
{
category = Number;
glyphname = oneeighth;
layers = (
{
layerId = "9FF96064-8718-4A86-A5C8-73C592101F67";
shapes = (
{
closed = 1;
nodes = (
(185,0,l),
(621,714,l),
(546,714,l),
(110,0,l)
);
},
{
closed = 1;
nodes = (
(164,286,l),
(235,286,l),
(235,714,l),
(162,714,l),
(32,622,l),
(67,573,l),
(121,612,ls),
(138,624,o),
(155,639,o),
(168,651,c),
(166,623,o),
(164,596,o),
(164,562,cs)
);
},
{
closed = 1;
nodes = (
(544,48,o),
(518,74,o),
(518,112,cs),
(518,150,o),
(541,176,o),
(585,197,c),
(598,192,ls),
(649,175,o),
(681,151,o),
(681,112,cs),
(681,74,o),
(655,48,o),
(599,48,cs)
);
},
{
closed = 1;
nodes = (
(689,-8,o),
(750,40,o),
(750,115,cs),
(750,170,o),
(716,205,o),
(664,227,c),
(704,248,o),
(736,279,o),
(736,328,cs),
(736,401,o),
(674,436,o),
(601,436,cs),
(527,436,o),
(463,397,o),
(463,325,cs),
(463,274,o),
(486,250,o),
(527,224,c),
(484,201,o),
(450,167,o),
(450,112,cs),
(450,37,o),
(504,-8,o),
(601,-8,cs)
);
},
{
closed = 1;
nodes = (
(562,270,o),
(532,291,o),
(532,326,cs),
(532,361,o),
(557,381,o),
(600,381,cs),
(642,381,o),
(668,361,o),
(668,326,cs),
(668,289,o),
(641,269,o),
(602,254,c)
);
}
);
width = 830;
}
);
script = "";
subCategory = Fraction;
unicode = 8539;
},
{
category = Number;
glyphname = threeeighths;
layers = (
{
layerId = "9FF96064-8718-4A86-A5C8-73C592101F67";
shapes = (
{
closed = 1;
nodes = (
(218,0,l),
(654,714,l),
(579,714,l),
(143,0,l)
);
},
{
closed = 1;
nodes = (
(266,278,o),
(321,332,o),
(321,409,cs),
(321,463,o),
(287,498,o),
(235,508,c),
(235,511,l),
(275,524,o),
(308,559,o),
(308,613,cs),
(308,677,o),
(260,723,o),
(165,723,cs),
(103,723,o),
(60,704,o),
(19,674,c),
(55,628,l),
(91,651,o),
(125,666,o),
(166,666,cs),
(205,666,o),
(236,647,o),
(236,605,cs),
(236,563,o),
(206,535,o),
(139,535,cs),
(82,535,l),
(82,480,l),
(139,480,ls),
(208,480,o),
(249,459,o),
(249,411,cs),
(249,364,o),
(218,335,o),
(149,335,cs),
(109,335,o),
(62,347,o),
(17,369,c),
(17,306,l),
(57,286,o),
(99,278,o),
(148,278,cs)
);
},
{
closed = 1;
nodes = (
(556,48,o),
(530,74,o),
(530,112,cs),
(530,150,o),
(553,176,o),
(597,197,c),
(610,192,ls),
(661,175,o),
(693,151,o),
(693,112,cs),
(693,74,o),
(667,48,o),
(611,48,cs)
);
},
{
closed = 1;
nodes = (
(701,-8,o),
(762,40,o),
(762,115,cs),
(762,170,o),
(728,205,o),
(676,227,c),
(716,248,o),
(748,279,o),
(748,328,cs),
(748,401,o),
(686,436,o),
(613,436,cs),
(539,436,o),
(475,397,o),
(475,325,cs),
(475,274,o),
(498,250,o),
(539,224,c),
(496,201,o),
(462,167,o),
(462,112,cs),
(462,37,o),
(516,-8,o),
(613,-8,cs)
);
},
{
closed = 1;
nodes = (
(574,270,o),
(544,291,o),
(544,326,cs),
(544,361,o),
(569,381,o),
(612,381,cs),
(654,381,o),
(680,361,o),
(680,326,cs),
(680,289,o),
(653,269,o),
(614,254,c)
);
}
);
width = 830;
}
);
script = "";
subCategory = Fraction;
unicode = 8540;
},
{
category = Number;
glyphname = fiveeighths;
layers = (
{
layerId = "9FF96064-8718-4A86-A5C8-73C592101F67";
shapes = (
{
closed = 1;
nodes = (
(214,0,l),
(650,714,l),
(575,714,l),
(139,0,l)
);
},
{
closed = 1;
nodes = (
(268,277,o),
(325,331,o),
(325,424,cs),
(325,509,o),
(257,556,o),
(168,556,cs),
(145,556,o),
(126,553,o),
(110,550,c),
(119,659,l),
(304,659,l),
(304,714,l),
(61,714,l),
(45,506,l),
(76,486,l),
(96,491,o),
(119,498,o),
(154,498,cs),
(218,498,o),
(255,469,o),
(255,418,cs),
(255,360,o),
(217,335,o),
(157,335,cs),
(122,335,o),
(71,348,o),
(35,370,c),
(35,303,l),
(64,286,o),
(116,277,o),
(159,277,cs)
);
},
{
closed = 1;
nodes = (
(555,48,o),
(529,74,o),
(529,112,cs),
(529,150,o),
(552,176,o),
(596,197,c),
(609,192,ls),
(660,175,o),
(692,151,o),
(692,112,cs),
(692,74,o),
(666,48,o),
(610,48,cs)
);
},
{
closed = 1;
nodes = (
(700,-8,o),
(761,40,o),
(761,115,cs),
(761,170,o),
(727,205,o),
(675,227,c),
(715,248,o),
(747,279,o),
(747,328,cs),
(747,401,o),
(685,436,o),
(612,436,cs),
(538,436,o),
(474,397,o),
(474,325,cs),
(474,274,o),
(497,250,o),
(538,224,c),
(495,201,o),
(461,167,o),
(461,112,cs),
(461,37,o),
(515,-8,o),
(612,-8,cs)
);
},
{
closed = 1;
nodes = (
(573,270,o),
(543,291,o),
(543,326,cs),
(543,361,o),
(568,381,o),
(611,381,cs),
(653,381,o),
(679,361,o),
(679,326,cs),
(679,289,o),
(652,269,o),
(613,254,c)
);
}
);
width = 830;
}
);
script = "";
subCategory = Fraction;
unicode = 8541;
},
{
category = Number;
glyphname = seveneighths;
layers = (
{
layerId = "9FF96064-8718-4A86-A5C8-73C592101F67";
shapes = (
{
closed = 1;
nodes = (
(172,0,l),
(608,714,l),
(533,714,l),
(97,0,l)
);
},
{
closed = 1;
nodes = (
(173,286,l),
(343,665,l),
(343,714,l),
(48,714,l),
(48,654,l),
(269,654,l),
(99,286,l)
);
},
{
closed = 1;
nodes = (
(552,48,o),
(526,74,o),
(526,112,cs),
(526,150,o),
(549,176,o),
(593,197,c),
(606,192,ls),
(657,175,o),
(689,151,o),
(689,112,cs),
(689,74,o),
(663,48,o),
(607,48,cs)
);
},
{
closed = 1;
nodes = (
(697,-8,o),
(758,40,o),
(758,115,cs),
(758,170,o),
(724,205,o),
(672,227,c),
(712,248,o),
(744,279,o),
(744,328,cs),
(744,401,o),
(682,436,o),
(609,436,cs),
(535,436,o),
(471,397,o),
(471,325,cs),
(471,274,o),
(494,250,o),
(535,224,c),
(492,201,o),
(458,167,o),
(458,112,cs),
(458,37,o),
(512,-8,o),
(609,-8,cs)
);
},
{
closed = 1;
nodes = (
(570,270,o),
(540,291,o),
(540,326,cs),
(540,361,o),
(565,381,o),
(608,381,cs),
(650,381,o),
(676,361,o),
(676,326,cs),
(676,289,o),
(649,269,o),
(610,254,c)
);
}
);
width = 830;
}
);
script = "";
subCategory = Fraction;
unicode = 8542;
},
{
category = Mark;
glyphname = cyrillicbreve;
layers = (
{
anchors = (
{
name = _top;
pos = (188,536);
}
);
layerId = "9FF96064-8718-4A86-A5C8-73C592101F67";
shapes = (
{
closed = 1;
nodes = (
(275,604,o),
(329,649,o),
(336,740,c),
(262,740,l),
(259,684,o),
(234,662,o),
(188,662,cs),
(143,662,o),
(117,683,o),
(115,740,c),
(40,740,l),
(47,648,o),
(98,604,o),
(187,604,cs)
);
}
);
width = 376;
}
);
subCategory = Nonspacing;
},
{
category = "";
export = 0;
glyphname = caroncommaaccent;
layers = (
{
layerId = "9FF96064-8718-4A86-A5C8-73C592101F67";
shapes = (
{
closed = 1;
nodes = (
(310,760,l),
(223,760,l),
(218,717,o),
(203,650,o),
(190,612,c),
(190,600,l),
(238,600,l),
(268,644,o),
(301,715,o),
(310,751,c)
);
}
);
width = 500;
}
);
script = "";
subCategory = "";
},
{
category = Mark;
glyphname = commaaccentcomb;
layers = (
{
anchors = (
{
name = _bottom;
},
{
name = bottom;
pos = (2,-221);
}
);
layerId = "9FF96064-8718-4A86-A5C8-73C592101F67";
shapes = (
{
closed = 1;
nodes = (
(64,-61,l),
(-23,-61,l),
(-28,-104,o),
(-49,-176,o),
(-64,-209,c),
(-64,-221,l),
(-16,-221,l),
(20,-178,o),
(55,-106,o),
(64,-70,c)
);
}
);
width = 0;
}
);
script = "";
subCategory = Nonspacing;
unicode = 806;
},
{
category = "";
export = 0;
glyphname = commaaccentrotate;
layers = (
{
layerId = "9FF96064-8718-4A86-A5C8-73C592101F67";
shapes = (
{
closed = 1;
nodes = (
(314,766,l),
(265,766,l),
(229,722,o),
(195,651,o),
(185,615,c),
(185,606,l),
(272,606,l),
(278,649,o),
(298,720,o),
(314,754,c)
);
}
);
width = 500;
}
);
script = "";
subCategory = "";
},
{
category = Number;
glyphname = foursuperior;
layers = (
{
layerId = "9FF96064-8718-4A86-A5C8-73C592101F67";
shapes = (
{
closed = 1;
nodes = (
(341,572,l),
(280,572,l),
(280,847,l),
(207,847,l),
(10,564,l),
(10,512,l),
(205,512,l),
(205,416,l),
(280,416,l),
(280,512,l),
(341,512,l)
);
},
{
closed = 1;
nodes = (
(205,572,l),
(80,572,l),
(160,689,ls),
(175,711,o),
(201,751,o),
(208,766,c),
(206,734,o),
(205,693,o),
(205,665,cs)
);
}
);
width = 350;
}
);
script = "";
subCategory = Small;
unicode = 8308;
},
{
category = Number;
glyphname = fivesuperior;
layers = (
{
layerId = "9FF96064-8718-4A86-A5C8-73C592101F67";
shapes = (
{
closed = 1;
nodes = (
(56,844,l),
(40,636,l),
(71,616,l),
(91,621,o),
(114,628,o),
(149,628,cs),
(213,628,o),
(250,599,o),
(250,548,cs),
(250,490,o),
(212,465,o),
(152,465,cs),
(117,465,o),
(66,478,o),
(30,500,c),
(30,433,l),
(59,416,o),
(111,407,o),
(154,407,cs),
(263,407,o),
(320,461,o),
(320,554,cs),
(320,639,o),
(252,686,o),
(163,686,cs),
(140,686,o),
(121,683,o),
(105,680,c),
(114,789,l),
(299,789,l),
(299,844,l)
);
}
);
width = 350;
}
);
script = "";
subCategory = Small;
unicode = 8309;
},
{
category = Number;
glyphname = sevensuperior;
layers = (
{
layerId = "9FF96064-8718-4A86-A5C8-73C592101F67";
shapes = (
{
closed = 1;
nodes = (
(153,416,l),
(323,795,l),
(323,844,l),
(28,844,l),
(28,784,l),
(249,784,l),
(79,416,l)
);
}
);
width = 350;
}
);
script = "";
subCategory = Small;
unicode = 8311;
},
{
category = Number;
glyphname = eightsuperior;
layers = (
{
layerId = "9FF96064-8718-4A86-A5C8-73C592101F67";
shapes = (
{
closed = 1;
nodes = (
(102,852,o),
(38,813,o),
(38,741,cs),
(38,690,o),
(61,666,o),
(102,640,c),
(59,617,o),
(25,583,o),
(25,528,cs),
(25,453,o),
(79,408,o),
(176,408,cs),
(264,408,o),
(325,456,o),
(325,531,cs),
(325,586,o),
(291,621,o),
(239,643,c),
(279,664,o),
(311,695,o),
(311,744,cs),
(311,817,o),
(249,852,o),
(176,852,cs)
);
},
{
closed = 1;
nodes = (
(173,608,ls),
(224,591,o),
(256,567,o),
(256,528,cs),
(256,490,o),
(230,464,o),
(174,464,cs),
(119,464,o),
(93,490,o),
(93,528,cs),
(93,566,o),
(116,592,o),
(160,613,c)
);
},
{
closed = 1;
nodes = (
(217,797,o),
(243,777,o),
(243,742,cs),
(243,705,o),
(216,685,o),
(177,670,c),
(137,686,o),
(107,707,o),
(107,742,cs),
(107,777,o),
(132,797,o),
(175,797,cs)
);
}
);
width = 350;
}
);
script = "";
subCategory = Small;
unicode = 8312;
},
{
category = Symbol;
glyphname = objectReplacementCharacter;
layers = (
{
layerId = "9FF96064-8718-4A86-A5C8-73C592101F67";
shapes = (
{
closed = 1;
nodes = (
(95,593,l),
(95,687,l),
(189,687,l),
(189,741,l),
(41,741,l),
(41,593,l)
);
},
{
closed = 1;
nodes = (
(916,687,l),
(916,593,l),
(969,593,l),
(969,741,l),
(821,741,l),
(821,687,l)
);
},
{
closed = 1;
nodes = (
(189,-187,l),
(189,-134,l),
(95,-134,l),
(95,-39,l),
(41,-39,l),
(41,-187,l)
);
},
{
closed = 1;
nodes = (
(969,-187,l),
(969,-39,l),
(916,-39,l),
(916,-134,l),
(821,-134,l),
(821,-187,l)
);
},
{
closed = 1;
nodes = (
(763,-187,l),
(763,-134,l),
(630,-134,l),
(630,-187,l)
);
},
{
closed = 1;
nodes = (
(380,-187,l),
(380,-134,l),
(248,-134,l),
(248,-187,l)
);
},
{
closed = 1;
nodes = (
(380,687,l),
(380,741,l),
(248,741,l),
(248,687,l)
);
},
{
closed = 1;
nodes = (
(969,151,l),
(916,151,l),
(916,19,l),
(969,19,l)
);
},
{
closed = 1;
nodes = (
(969,534,l),
(916,534,l),
(916,402,l),
(969,402,l)
);
},
{
closed = 1;
nodes = (
(572,-187,l),
(572,-134,l),
(439,-134,l),
(439,-187,l)
);
},
{
closed = 1;
nodes = (
(95,151,l),
(41,151,l),
(41,19,l),
(95,19,l)
);
},
{
closed = 1;
nodes = (
(572,687,l),
(572,741,l),
(439,741,l),
(439,687,l)
);
},
{
closed = 1;
nodes = (
(763,687,l),
(763,741,l),
(630,741,l),
(630,687,l)
);
},
{
closed = 1;
nodes = (
(95,343,l),
(41,343,l),
(41,210,l),
(95,210,l)
);
},
{
closed = 1;
nodes = (
(95,534,l),
(41,534,l),
(41,402,l),
(95,402,l)
);
},
{
closed = 1;
nodes = (
(969,343,l),
(916,343,l),
(916,210,l),
(969,210,l)
);
},
{
closed = 1;
nodes = (
(422,396,o),
(382,454,o),
(294,454,cs),
(206,454,o),
(166,396,o),
(166,307,cs),
(166,219,o),
(206,160,o),
(294,160,cs),
(382,160,o),
(422,219,o),
(422,307,cs)
);
},
{
closed = 1;
nodes = (
(228,367,o),
(249,403,o),
(294,403,cs),
(340,403,o),
(360,367,o),
(360,307,cs),
(360,247,o),
(340,211,o),
(294,211,cs),
(249,211,o),
(228,247,o),
(228,307,cs)
);
},
{
closed = 1;
nodes = (
(463,450,l),
(463,164,l),
(564,164,ls),
(625,164,o),
(663,195,o),
(663,247,cs),
(663,292,o),
(640,307,o),
(611,313,c),
(611,317,l),
(639,322,o),
(655,345,o),
(655,377,cs),
(655,431,o),
(618,450,o),
(547,450,cs)
);
},
{
closed = 1;
nodes = (
(523,337,l),
(523,400,l),
(552,400,ls),
(582,400,o),
(595,391,o),
(595,369,cs),
(595,348,o),
(585,337,o),
(555,337,cs)
);
},
{
closed = 1;
nodes = (
(557,289,l),
(591,289,o),
(601,274,o),
(601,253,cs),
(601,229,o),
(591,214,o),
(559,214,cs),
(523,214,l),
(523,289,l)
);
},
{
closed = 1;
nodes = (
(785,161,o),
(825,190,o),
(825,256,cs),
(825,450,l),
(764,450,l),
(764,254,ls),
(764,221,o),
(746,212,o),
(722,212,cs),
(709,212,o),
(699,214,o),
(689,216,c),
(689,166,l),
(698,163,o),
(711,161,o),
(728,161,cs)
);
}
);
width = 1000;
}
);
script = "";
subCategory = Other;
unicode = 65532;
},
{
category = Symbol;
glyphname = replacementCharacter;
layers = (
{
layerId = "9FF96064-8718-4A86-A5C8-73C592101F67";
shapes = (
{
closed = 1;
nodes = (
(41,302,l),
(499,-156,l),
(958,302,l),
(499,760,l)
);
},
{
closed = 1;
nodes = (
(531,179,l),
(428,179,l),
(428,208,l),
(428,260,o),
(448,292,o),
(498,332,cs),
(542,366,o),
(557,383,o),
(557,421,cs),
(557,451,o),
(537,472,o),
(496,472,cs),
(460,472,o),
(418,455,o),
(374,433,c),
(334,520,l),
(379,546,o),
(442,568,o),
(498,568,cs),
(604,568,o),
(670,516,o),
(670,427,cs),
(670,361,o),
(641,328,o),
(584,282,cs),
(540,248,o),
(531,235,o),
(531,202,c)
);
},
{
closed = 1;
nodes = (
(415,94,o),
(445,112,o),
(484,112,cs),
(520,112,o),
(552,94,o),
(552,45,cs),
(552,-2,o),
(520,-21,o),
(484,-21,cs),
(445,-21,o),
(415,-2,o),
(415,45,cs)
);
}
);
width = 1000;
}
);
script = "";
subCategory = Other;
unicode = 65533;
},
{
category = Symbol;
glyphname = lowringmod;
layers = (
{
layerId = "9FF96064-8718-4A86-A5C8-73C592101F67";
shapes = (
{
closed = 1;
nodes = (
(229,-273,o),
(277,-234,o),
(277,-166,cs),
(277,-101,o),
(228,-61,o),
(165,-61,cs),
(100,-61,o),
(56,-101,o),
(56,-167,cs),
(56,-234,o),
(100,-273,o),
(165,-273,cs)
);
},
{
closed = 1;
nodes = (
(128,-223,o),
(109,-202,o),
(109,-167,cs),
(109,-131,o),
(132,-111,o),
(165,-111,cs),
(197,-111,o),
(221,-131,o),
(221,-167,cs),
(221,-202,o),
(198,-223,o),
(165,-223,cs)
);
}
);
width = 333;
}
);
script = "";
subCategory = Modifier;
unicode = 755;
},
{
category = Letter;
glyphname = Ohorn;
kernLeft = O.right;
kernRight = Ohorn;
layers = (
{
anchors = (
{
name = bottom;
pos = (391,0);
},
{
name = center;
pos = (433,375);
},
{
name = top;
pos = (391,714);
}
);
layerId = "9FF96064-8718-4A86-A5C8-73C592101F67";
shapes = (
{
closed = 1;
nodes = (
(719,439,o),
(704,510,o),
(674,567,c),
(758,598,o),
(790,670,o),
(805,749,c),
(798,760,l),
(703,760,l),
(703,691,o),
(695,636,o),
(639,621,c),
(584,686,o),
(501,725,o),
(392,725,cs),
(167,725,o),
(61,578,o),
(61,359,cs),
(61,138,o),
(167,-10,o),
(391,-10,cs),
(606,-10,o),
(719,137,o),
(719,358,cs)
);
},
{
closed = 1;
nodes = (
(156,537,o),
(228,646,o),
(392,646,cs),
(554,646,o),
(624,537,o),
(624,358,cs),
(624,178,o),
(554,68,o),
(391,68,cs),
(228,68,o),
(156,178,o),
(156,358,cs)
);
}
);
width = 784;
}
);
script = latin;
subCategory = Uppercase;
unicode = 416;
},
{
category = Letter;
glyphname = ohorn;
kernLeft = o.right;
kernRight = o.hornleft;
layers = (
{
anchors = (
{
name = bottom;
pos = (301,0);
},
{
name = center;
pos = (350,304);
},
{
name = top;
pos = (303,536);
}
);
layerId = "9FF96064-8718-4A86-A5C8-73C592101F67";
shapes = (
{
closed = 1;
nodes = (
(551,330,o),
(538,382,o),
(517,424,c),
(594,452,o),
(628,515,o),
(646,607,c),
(639,618,l),
(545,618,l),
(545,551,o),
(538,495,o),
(478,477,c),
(435,521,o),
(374,546,o),
(304,546,cs),
(150,546,o),
(55,446,o),
(55,269,cs),
(55,91,o),
(159,-10,o),
(301,-10,cs),
(454,-10,o),
(551,91,o),
(551,269,cs)
);
},
{
closed = 1;
nodes = (
(146,403,o),
(192,472,o),
(302,472,cs),
(412,472,o),
(460,403,o),
(460,269,cs),
(460,134,o),
(413,63,o),
(303,63,cs),
(193,63,o),
(146,134,o),
(146,269,cs)
);
}
);
width = 616;
}
);
script = latin;
subCategory = Lowercase;
unicode = 417;
},
{
category = Letter;
glyphname = Uhorn;
kernLeft = U.right;
kernRight = Uhorn;
layers = (
{
anchors = (
{
name = bottom;
pos = (370,0);
},
{
name = center;
pos = (454,375);
},
{
name = top;
pos = (366,714);
}
);
layerId = "9FF96064-8718-4A86-A5C8-73C592101F67";
shapes = (
{
closed = 1;
nodes = (
(640,714,l),
(551,714,l),
(551,251,ls),
(551,144,o),
(501,68,o),
(371,68,cs),
(243,68,o),
(180,135,o),
(180,250,cs),
(180,714,l),
(90,714,l),
(90,254,ls),
(90,95,o),
(187,-10,o),
(369,-10,cs),
(560,-10,o),
(640,104,o),
(640,252,cs),
(640,555,l),
(762,576,o),
(801,654,o),
(818,749,c),
(811,760,l),
(718,760,l),
(718,681,o),
(705,627,o),
(640,617,c)
);
}
);
width = 780;
}
);
script = latin;
subCategory = Uppercase;
unicode = 431;
},
{
category = Letter;
glyphname = uhorn;
kernLeft = n.right;
kernRight = uhorn.left;
layers = (
{
anchors = (
{
name = bottom;
pos = (293,0);
},
{
name = center;
pos = (393,304);
},
{
name = top;
pos = (309,536);
}
);
layerId = "9FF96064-8718-4A86-A5C8-73C592101F67";
shapes = (
{
closed = 1;
nodes = (
(701,619,l),
(608,619,l),
(608,542,o),
(597,487,o),
(533,476,c),
(533,535,l),
(445,535,l),
(445,257,ls),
(445,132,o),
(406,63,o),
(287,63,cs),
(206,63,o),
(168,105,o),
(168,191,cs),
(168,535,l),
(79,535,l),
(79,185,ls),
(79,49,o),
(145,-10,o),
(276,-10,cs),
(344,-10,o),
(409,15,o),
(444,71,c),
(448,71,l),
(461,0,l),
(533,0,l),
(533,414,l),
(653,427,o),
(692,514,o),
(708,608,c)
);
}
);
width = 674;
}
);
script = latin;
subCategory = Lowercase;
unicode = 432;
},
